<mxfile host="65bd71144e">
    <diagram id="AdtQg6Vjtk9TqPrz76Sl" name="Page-1">
        <mxGraphModel dx="664" dy="559" grid="1" gridSize="10" guides="1" tooltips="1" connect="1" arrows="1" fold="1" page="1" pageScale="1" pageWidth="850" pageHeight="1100" math="0" shadow="0">
            <root>
                <mxCell id="0"/>
                <mxCell id="1" parent="0"/>
                <mxCell id="3" value="" style="shape=step;perimeter=stepPerimeter;whiteSpace=wrap;html=1;fixedSize=1;fillColor=#647687;fontColor=#ffffff;strokeColor=#314354;gradientColor=#D8CCF0;gradientDirection=east;" vertex="1" parent="1">
                    <mxGeometry x="169" y="350" width="60" height="40" as="geometry"/>
                </mxCell>
                <mxCell id="4" value="" style="shape=step;perimeter=stepPerimeter;whiteSpace=wrap;html=1;fixedSize=1;fillColor=#647687;fontColor=#ffffff;strokeColor=#314354;gradientColor=#E1B6F0;gradientDirection=east;" vertex="1" parent="1">
                    <mxGeometry x="218" y="350" width="60" height="40" as="geometry"/>
                </mxCell>
                <mxCell id="5" value="" style="shape=step;perimeter=stepPerimeter;whiteSpace=wrap;html=1;fixedSize=1;fillColor=#647687;fontColor=#ffffff;strokeColor=#314354;gradientColor=#CCC2F0;gradientDirection=east;" vertex="1" parent="1">
                    <mxGeometry x="122" y="350" width="60" height="40" as="geometry"/>
                </mxCell>
                <mxCell id="6" value="" style="shape=step;perimeter=stepPerimeter;whiteSpace=wrap;html=1;fixedSize=1;fillColor=#647687;fontColor=#ffffff;strokeColor=#314354;gradientColor=#D597F0;gradientDirection=east;" vertex="1" parent="1">
                    <mxGeometry x="270" y="350" width="60" height="40" as="geometry"/>
                </mxCell>
                <mxCell id="7" value="" style="shape=step;perimeter=stepPerimeter;whiteSpace=wrap;html=1;fixedSize=1;fillColor=#878483;fontColor=#ffffff;strokeColor=#314354;gradientColor=#F060A8;gradientDirection=east;" vertex="1" parent="1">
                    <mxGeometry x="320" y="350" width="60" height="40" as="geometry"/>
                </mxCell>
                <mxCell id="12" value="" style="shape=step;perimeter=stepPerimeter;whiteSpace=wrap;html=1;fixedSize=1;fillColor=#f8cecc;strokeColor=#b85450;gradientColor=#ea6b66;" vertex="1" parent="1">
                    <mxGeometry x="370" y="341.25" width="100" height="57.5" as="geometry"/>
                </mxCell>
                <mxCell id="13" value="" style="shape=step;perimeter=stepPerimeter;whiteSpace=wrap;html=1;fixedSize=1;fillColor=#FF8FB4;gradientColor=#48C3F0;gradientDirection=east;" vertex="1" parent="1">
                    <mxGeometry x="470" y="350" width="100" height="40" as="geometry"/>
                </mxCell>
                <mxCell id="14" value="" style="shape=step;perimeter=stepPerimeter;whiteSpace=wrap;html=1;fixedSize=1;fillColor=#609FF1;gradientColor=#86D04D;strokeColor=#82b366;gradientDirection=east;" vertex="1" parent="1">
                    <mxGeometry x="560" y="350" width="100" height="40" as="geometry"/>
                </mxCell>
                <mxCell id="15" value="" style="shape=step;perimeter=stepPerimeter;whiteSpace=wrap;html=1;fixedSize=1;fillColor=#d5e8d4;gradientColor=#97d077;strokeColor=#82b366;" vertex="1" parent="1">
                    <mxGeometry x="650" y="341.25" width="110" height="57.5" as="geometry"/>
                </mxCell>
                <mxCell id="16" value="" style="shape=step;perimeter=stepPerimeter;whiteSpace=wrap;html=1;fixedSize=1;fillColor=#647687;fontColor=#ffffff;strokeColor=#314354;" vertex="1" parent="1">
                    <mxGeometry x="50" y="350" width="80" height="40" as="geometry"/>
                </mxCell>
                <mxCell id="18" value="Cell seeding&amp;nbsp;" style="text;align=center;html=1;verticalAlign=middle;whiteSpace=wrap;rounded=0;labelBackgroundColor=none;fillColor=none;strokeColor=none;fontColor=#FFFFFF;" vertex="1" parent="1">
                    <mxGeometry x="62" y="355" width="60" height="30" as="geometry"/>
                </mxCell>
                <mxCell id="19" value="Drug applying" style="text;strokeColor=none;align=center;fillColor=none;html=1;verticalAlign=middle;whiteSpace=wrap;rounded=0;fontColor=#000000;fontStyle=1" vertex="1" parent="1">
                    <mxGeometry x="389" y="355" width="60" height="30" as="geometry"/>
                </mxCell>
                <mxCell id="21" value="Brightfield" style="text;strokeColor=none;align=center;fillColor=none;html=1;verticalAlign=middle;whiteSpace=wrap;rounded=0;sketch=0;fontColor=#000000;fontStyle=1" vertex="1" parent="1">
                    <mxGeometry x="494" y="355" width="60" height="30" as="geometry"/>
                </mxCell>
                <mxCell id="23" value="Brightfield" style="text;strokeColor=none;align=center;fillColor=none;html=1;verticalAlign=middle;whiteSpace=wrap;rounded=0;sketch=0;fontColor=#000000;fontStyle=1" vertex="1" parent="1">
                    <mxGeometry x="585" y="355" width="60" height="30" as="geometry"/>
                </mxCell>
                <mxCell id="24" value="&lt;div style=&quot;&quot;&gt;&lt;b style=&quot;background-color: initial;&quot;&gt;Drug effect at max&lt;/b&gt;&lt;/div&gt;" style="text;strokeColor=none;align=center;fillColor=none;html=1;verticalAlign=middle;whiteSpace=wrap;rounded=0;sketch=0;fontColor=#000000;" vertex="1" parent="1">
                    <mxGeometry x="675" y="355" width="60" height="30" as="geometry"/>
                </mxCell>
                <mxCell id="26" value="&amp;gt;" style="text;strokeColor=none;align=center;fillColor=none;html=1;verticalAlign=middle;whiteSpace=wrap;rounded=0;sketch=0;fontColor=#FFFFFF;fontStyle=1" vertex="1" parent="1">
                    <mxGeometry x="130" y="355" width="60" height="30" as="geometry"/>
                </mxCell>
                <mxCell id="27" value="&amp;gt;" style="text;strokeColor=none;align=center;fillColor=none;html=1;verticalAlign=middle;whiteSpace=wrap;rounded=0;sketch=0;fontColor=#FFFFFF;fontStyle=1" vertex="1" parent="1">
                    <mxGeometry x="173" y="355" width="60" height="30" as="geometry"/>
                </mxCell>
                <mxCell id="28" value="&amp;gt;" style="text;strokeColor=none;align=center;fillColor=none;html=1;verticalAlign=middle;whiteSpace=wrap;rounded=0;sketch=0;fontColor=#FFFFFF;fontStyle=1" vertex="1" parent="1">
                    <mxGeometry x="222" y="355" width="60" height="30" as="geometry"/>
                </mxCell>
                <mxCell id="29" value="&amp;gt;" style="text;strokeColor=none;align=center;fillColor=none;html=1;verticalAlign=middle;whiteSpace=wrap;rounded=0;sketch=0;fontColor=#FFFFFF;fontStyle=1" vertex="1" parent="1">
                    <mxGeometry x="278" y="355" width="60" height="30" as="geometry"/>
                </mxCell>
                <mxCell id="30" value="&amp;gt;" style="text;strokeColor=none;align=center;fillColor=none;html=1;verticalAlign=middle;whiteSpace=wrap;rounded=0;sketch=0;fontColor=#FFFFFF;fontStyle=1" vertex="1" parent="1">
                    <mxGeometry x="320" y="355" width="60" height="30" as="geometry"/>
                </mxCell>
                <mxCell id="32" value="Day 1" style="text;strokeColor=none;align=center;fillColor=none;html=1;verticalAlign=middle;whiteSpace=wrap;rounded=0;sketch=0;fontColor=#000000;fontStyle=1" vertex="1" parent="1">
                    <mxGeometry x="60" y="398.75" width="60" height="30" as="geometry"/>
                </mxCell>
                <mxCell id="33" value="Day 2&lt;span style=&quot;color: rgba(0, 0, 0, 0); font-family: monospace; font-size: 0px; font-weight: 400; text-align: start;&quot;&gt;%3CmxGraphModel%3E%3Croot%3E%3CmxCell%20id%3D%220%22%2F%3E%3CmxCell%20id%3D%221%22%20parent%3D%220%22%2F%3E%3CmxCell%20id%3D%222%22%20value%3D%22Day%200%22%20style%3D%22text%3BstrokeColor%3Dnone%3Balign%3Dcenter%3BfillColor%3Dnone%3Bhtml%3D1%3BverticalAlign%3Dmiddle%3BwhiteSpace%3Dwrap%3Brounded%3D0%3Bsketch%3D0%3BfontColor%3D%23000000%3BfontStyle%3D1%22%20vertex%3D%221%22%20parent%3D%221%22%3E%3CmxGeometry%20x%3D%2250%22%20y%3D%22398.75%22%20width%3D%2260%22%20height%3D%2230%22%20as%3D%22geometry%22%2F%3E%3C%2FmxCell%3E%3C%2Froot%3E%3C%2FmxGraphModel%3E&lt;/span&gt;" style="text;strokeColor=none;align=center;fillColor=none;html=1;verticalAlign=middle;whiteSpace=wrap;rounded=0;sketch=0;fontColor=#000000;fontStyle=1" vertex="1" parent="1">
                    <mxGeometry x="113" y="398.75" width="60" height="30" as="geometry"/>
                </mxCell>
                <mxCell id="34" value="Day 3" style="text;strokeColor=none;align=center;fillColor=none;html=1;verticalAlign=middle;whiteSpace=wrap;rounded=0;sketch=0;fontColor=#000000;fontStyle=1" vertex="1" parent="1">
                    <mxGeometry x="162" y="398.75" width="60" height="30" as="geometry"/>
                </mxCell>
                <mxCell id="35" value="Day 4" style="text;strokeColor=none;align=center;fillColor=none;html=1;verticalAlign=middle;whiteSpace=wrap;rounded=0;sketch=0;fontColor=#000000;fontStyle=1" vertex="1" parent="1">
                    <mxGeometry x="210" y="398.75" width="60" height="30" as="geometry"/>
                </mxCell>
                <mxCell id="36" value="Day 5" style="text;strokeColor=none;align=center;fillColor=none;html=1;verticalAlign=middle;whiteSpace=wrap;rounded=0;sketch=0;fontColor=#000000;fontStyle=1" vertex="1" parent="1">
                    <mxGeometry x="261" y="398.75" width="60" height="30" as="geometry"/>
                </mxCell>
                <mxCell id="37" value="Day 6" style="text;strokeColor=none;align=center;fillColor=none;html=1;verticalAlign=middle;whiteSpace=wrap;rounded=0;sketch=0;fontColor=#000000;fontStyle=1" vertex="1" parent="1">
                    <mxGeometry x="312" y="398.75" width="60" height="30" as="geometry"/>
                </mxCell>
                <mxCell id="38" value="Day 7" style="text;strokeColor=none;align=center;fillColor=none;html=1;verticalAlign=middle;whiteSpace=wrap;rounded=0;sketch=0;fontColor=#000000;fontStyle=1" vertex="1" parent="1">
                    <mxGeometry x="389" y="398.75" width="60" height="30" as="geometry"/>
                </mxCell>
                <mxCell id="39" value="Day 8" style="text;strokeColor=none;align=center;fillColor=none;html=1;verticalAlign=middle;whiteSpace=wrap;rounded=0;sketch=0;fontColor=#000000;fontStyle=1" vertex="1" parent="1">
                    <mxGeometry x="485" y="398.75" width="60" height="30" as="geometry"/>
                </mxCell>
                <mxCell id="40" value="Day 10" style="text;strokeColor=none;align=center;fillColor=none;html=1;verticalAlign=middle;whiteSpace=wrap;rounded=0;sketch=0;fontColor=#000000;fontStyle=1" vertex="1" parent="1">
                    <mxGeometry x="670" y="398.75" width="60" height="30" as="geometry"/>
                </mxCell>
                <mxCell id="41" value="Day 9" style="text;strokeColor=none;align=center;fillColor=none;html=1;verticalAlign=middle;whiteSpace=wrap;rounded=0;sketch=0;fontColor=#000000;fontStyle=1" vertex="1" parent="1">
                    <mxGeometry x="575" y="398.75" width="60" height="30" as="geometry"/>
                </mxCell>
                <mxCell id="55" value="" style="shape=image;verticalLabelPosition=bottom;labelBackgroundColor=default;verticalAlign=top;aspect=fixed;imageAspect=0;image=data:image/jpeg,/9j/4AAQSkZJRgABAQEASABIAAD/4Qm+aHR0cDovL25zLmFkb2JlLmNvbS94YXAvMS4wLwA8P3hwYWNrZXQgYmVnaW49Iu+7vyIgaWQ9Ilc1TTBNcENlaGlIenJlU3pOVGN6a2M5ZCI/PiA8eDp4bXBtZXRhIHhtbG5zOng9ImFkb2JlOm5zOm1ldGEvIiB4OnhtcHRrPSJYTVAgQ29yZSA0LjQuMC1FeGl2MiI+IDxyZGY6UkRGIHhtbG5zOnJkZj0iaHR0cDovL3d3dy53My5vcmcvMTk5OS8wMi8yMi1yZGYtc3ludGF4LW5zIyI+IDxyZGY6RGVzY3JpcHRpb24gcmRmOmFib3V0PSIiIHhtbG5zOmRjPSJodHRwOi8vcHVybC5vcmcvZGMvZWxlbWVudHMvMS4xLyI+IDxkYzpjcmVhdG9yPiA8cmRmOlNlcT4gPHJkZjpsaT5WZWN0b3JTdG9jay5jb20vNDI1MjEyMzY8L3JkZjpsaT4gPC9yZGY6U2VxPiA8L2RjOmNyZWF0b3I+IDwvcmRmOkRlc2NyaXB0aW9uPiA8L3JkZjpSREY+IDwveDp4bXBtZXRhPiAgICAgICAgICAgICAgICAgICAgICAgICAgICAgICAgICAgICAgICAgICAgICAgICAgICAgICAgICAgICAgICAgICAgICAgICAgICAgICAgICAgICAgICAgICAgICAgICAgICAgICAgICAgICAgICAgICAgICAgICAgICAgICAgICAgICAgICAgICAgICAgICAgICAgICAgICAgICAgICAgICAgICAgICAgICAgICAgICAgICAgICAgICAgICAgICAgICAgICAgICAgICAgICAgICAgICAgICAgICAgICAgICAgICAgICAgICAgICAgICAgICAgICAgICAgICAgICAgICAgICAgICAgICAgICAgICAgICAgICAgICAgICAgICAgICAgICAgICAgICAgICAgICAgICAgICAgICAgICAgICAgICAgICAgICAgICAgICAgICAgICAgICAgICAgICAgICAgICAgICAgICAgICAgICAgICAgICAgICAgICAgICAgICAgICAgICAgICAgICAgICAgICAgICAgICAgICAgICAgICAgICAgICAgICAgICAgICAgICAgICAgICAgICAgICAgICAgICAgICAgICAgICAgICAgICAgICAgICAgICAgICAgICAgICAgICAgICAgICAgICAgICAgICAgICAgICAgICAgICAgICAgICAgICAgICAgICAgICAgICAgICAgICAgICAgICAgICAgICAgICAgICAgICAgICAgICAgICAgICAgICAgICAgICAgICAgICAgICAgICAgICAgICAgICAgICAgICAgICAgICAgICAgICAgICAgICAgICAgICAgICAgICAgICAgICAgICAgICAgICAgICAgICAgICAgICAgICAgICAgICAgICAgICAgICAgICAgICAgICAgICAgICAgICAgICAgICAgICAgICAgICAgICAgICAgICAgICAgICAgICAgICAgICAgICAgICAgICAgICAgICAgICAgICAgICAgICAgICAgICAgICAgICAgICAgICAgICAgICAgICAgICAgICAgICAgICAgICAgICAgICAgICAgICAgICAgICAgICAgICAgICAgICAgICAgICAgICAgICAgICAgICAgICAgICAgICAgICAgICAgICAgICAgICAgICAgICAgICAgICAgICAgICAgICAgICAgICAgICAgICAgICAgICAgICAgICAgICAgICAgICAgICAgICAgICAgICAgICAgICAgICAgICAgICAgICAgICAgICAgICAgICAgICAgICAgICAgICAgICAgICAgICAgICAgICAgICAgICAgICAgICAgICAgICAgICAgICAgICAgICAgICAgICAgICAgICAgICAgICAgICAgICAgICAgICAgICAgICAgICAgICAgICAgICAgICAgICAgICAgICAgICAgICAgICAgICAgICAgICAgICAgICAgICAgICAgICAgICAgICAgICAgICAgICAgICAgICAgICAgICAgICAgICAgICAgICAgICAgICAgICAgICAgICAgICAgICAgICAgICAgICAgICAgICAgICAgICAgICAgICAgICAgICAgICAgICAgICAgICAgICAgICAgICAgICAgICAgICAgICAgICAgICAgICAgICAgICAgICAgICAgICAgICAgICAgICAgICAgICAgICAgICAgICAgICAgICAgICAgICAgICAgICAgICAgICAgICAgICAgICAgICAgICAgICAgICAgICAgICAgICAgICAgICAgICAgICAgICAgICAgICAgICAgICAgICAgICAgICAgICAgICAgICAgICAgICAgICAgICAgICAgICAgICAgICAgICAgICAgICAgICAgICAgICAgICAgICAgICAgICAgICAgICAgICAgICAgICAgICAgICAgICAgICAgICAgICAgICAgICAgICAgICAgICAgICAgICAgICAgICAgICAgICAgICAgICAgICAgICAgICAgICAgICAgICAgICAgICAgICAgICAgICAgICAgICAgICAgICAgICAgICAgICAgICAgICAgICAgICAgICAgICAgICAgICAgICAgICAgICAgICAgICAgICAgICAgICAgICAgICAgICAgICAgICAgICAgICAgICAgICAgICAgICAgICAgICAgICAgICAgICAgICAgICAgICAgICAgICAgICAgICAgICAgICAgICAgICAgICAgICAgICAgICAgICAgICAgICAgICAgICAgICAgICAgICAgICAgICAgICAgICAgICAgICAgICAgICAgICAgICAgICAgICAgICAgICAgICAgICAgICAgICAgICAgICAgICAgICAgICAgICAgICAgICAgICAgICAgICAgICAgICAgICAgICAgICAgICAgICAgICAgICAgICAgICAgICAgICAgICAgICAgICAgICAgICAgICAgICAgICAgICAgICAgICAgICAgICAgICAgICAgICAgICAgICAgICAgICAgICAgICAgICAgICAgICAgICAgICAgICAgICAgICAgICAgICAgICAgICAgICAgICAgICAgICAgICAgICAgICAgICAgICAgICAgICAgICAgICAgICAgICAgICAgICAgICAgICAgICAgICAgICAgIDw/eHBhY2tldCBlbmQ9InciPz7/2wBDAAMCAgMCAgMDAwMEAwMEBQgFBQQEBQoHBwYIDAoMDAsKCwsNDhIQDQ4RDgsLEBYQERMUFRUVDA8XGBYUGBIUFRT/2wBDAQMEBAUEBQkFBQkUDQsNFBQUFBQUFBQUFBQUFBQUFBQUFBQUFBQUFBQUFBQUFBQUFBQUFBQUFBQUFBQUFBQUFBT/wAARCAMTA+gDAREAAhEBAxEB/8QAHQABAAICAwEBAAAAAAAAAAAAAAcIBQYBAwQCCf/EAF8QAAEDAgMEBAoFCAUHBg0FAAABAgMEBQYHEQgSITETQVFhFBkiVnGBkZSh1DJCUmJyCRUWI4KSscEkM6Ky0RcYQ1Nz4fAlRLPC0uImNDU5RlRjZHWEk7XDOHejtPH/xAAbAQEAAgMBAQAAAAAAAAAAAAAABQYCAwQBB//EAD4RAQACAQIEAgcIAQIFBQEBAQABAgMEEQUSITFBURMUImFxodEGMoGRscHh8EIVIxYzQ1JiJFNjgvFENHL/2gAMAwEAAhEDEQA/AP1TAAAAAAAAAAAAAAAAAAAAAAAAAAAAAAAAAAAAAAAAAAAAAAAAAAAAAAAAAAAAAAAAAAAAAAAAAAAAAAAAAAAAAAAAAAAAAAAAAAAAAAAAAAAAAAAAAAAAAAAAAAAAAAAAAAAAAAAAAAAAAAAAAAAAAAAAAAAAAAAAAAAAAAAAAAAAAAAAAAAAAAAAAAAAAAAAAAAAAAAAAAAAAAAAAAAAAAAAAAAAAAAAAAAAAAAAAAAAAAAAAAAAAAAAAAAAAAAAAAAAAAAAAAAAAAAAAAAAAAAAAAAAAAAAAAAAAAAAAAAAAAAAAAAAAAAAAAAAAAAAAAAAAAAAAAAAAAAAAAAAAAAAAAAAAAAAAAAAAAAAAAAAAAAAAAAAAAAAAAAAAAAAAAAAAAAAAAAAAAAAAAAAAAAAAAAAAAAAAAAAAAAAAAAAAAAAAAAAAAAAAAAAAAAAAAAAAAAAAAAAAAAAAAAAAAAAAAAAAAAAAAAAAAAAAAAAAAAAAAAAAAAAAAAAAAAAAAAAAAAAAAAAAAAAAAAAAAAAAAAAAAAAAAAAAAAAAAAAAAAAAAAAAAAAAAAAAAAAAAAAAAAAAAAAAAAAAAAAAAAAAAAAAAAAAAAAAAAAAAAAAAAAAAAAAAAAAAAAAAAAAAAAAAAAAAAAAAAAAAAAAAAAAAAAAAAAAAAAAAAAAAAAAAAAAAAAAAAAAAAAAAAAAAAAAAAAAAAAAAAAAAAAAAAAAAAAAAAAAAAAAAAAAAAAAAAAAAAAAAAAAAAAAAAAAAAAAAAAAAAAAAAAAAAAAAAAAAAAAAAAAAAAAAAAAAAAAAAAAAAAAAAAAAAAAAAAAAAAAAAAAAAAAAAAAAAAAAAAAAAAAAAAAAAAAAAAAAAAAAAAAAAAAAAAAAAAAAAAAAAAAAAAAAAAAAAAAAAAAAAAAAAAAAAAAAAAAAAAAAAAAAAAAAAAAAAAAAAAAAAAAAAAAAAAAAAAAAAAAAAAAAAAAAAAAAAAAAAAAAAAAAAAAAAAAAAAAAAAAAAAAAAAAAAAAAAAAAAAAAAAAAAAAAAAAAAAAAAAAAAAAAAAAAAAAAAAAAAAAAAAAAAAAAAAAAAAAAAAAAAAAAAAAAAAAAAAAAAAAAAAAAAAAAAAAAAAAAAAAAAAAAAAAAAAAAAAAAAAAAAAAAAAAAAAAAAAAAAAAAAAAAAAAAAAAAAAAAAAAAAAAAAAAAAAAAAAAAAAAAAAAAAAAAAAAAAAAAAAAAAAAAAAAAAAAAAAAAAAAAAAAAAAAAAAAAAAAAAAAAAAAAAAAAAAAAAAAAAAAAAAAAAAAAAAAAAAAAAAAAAAAAAAAAAAAAAAAAAAAAAAAAAAAAAAAAAAAAAAAAAAAAAAAAAAAAAAAAAAAAAAAAAAAAAAAAAAAAAAAAAAAAAAAAAAAAAAAAAAAAAAAAAAAAAAAAAAAAAAAAAAAAAAAAAAAAAAAAAAAAAAAAAAAAAAAAAAAAAAAAAAAAAAAAAAAAAAAAAAAAAAAAAAAAAAAAAAAAAAAAAAAAAAAAAAAAAAAAAAAAAAAAAAAAAAAAAAAAAAAAAAAAAAAAAAAAAAAAAAAAAAAAAAAAAAAAAAAAAAAAAAAAAAAAAAAAAAAAAAAAAAAAAAAAAAAAAAAAAAAAAAAAAAAAAAAAAAAAAAAAAAAAAAAAAAAAAAAAAcKBBGaG0PWYcxFV2axUdPI+kd0c1VVIrkV+nFrWoqcuWqrz14FL4lx2+nzWwaesdO8z5+6EPqNdbHeaY47NMotpvFtPMjp6e21UfXH0Lma+hUdw9ikTT7Raus72isx8Nv3ckcQzRPWIWKwFjKmx5hikvFNG6BJtWvhcuqxvaujm69fHr600L5otXXW4K5qxtv4eUpzDljNSLw2E7m8AAAAAAAAAAAAAAAAAAAAAAAAAAAAAAAAAAAAAAAAAAAAAAAAAAAAAAAAAAAAAAAAAAAAAAAAAAAAAAAAAAAAAAAAAAAAAAAAAAAAAAAAAAAAAAAAAAAAAAAAAAAAAAAAAAAAAAAAAAABwvFAK1Z55M19Jc7jii1ItZQzuWoq4E/rIHfWcn2m9fanHq5fPuM8JyVvfVYetZ6zHjHnPvj9EBrNLaLTlp1jxRThHB90xxeGW20wdNMqbz3uXSOJnW5y9SfFeorOl0mXWZPRYY3n5R75R2LFbNblouLlzgmLAGFaW0RzLUvYrpJZlTTfkcurlROpOpE7EPq2g0caHBGGJ38598rRgxRhpFIbOSLoAAAAAAAfEkjYWOe9yMY1FVXOXRETtU8mYiN5EZ3XaKwZbKx9O2rqa7dXRZaOnV8evc5dNfSmpXsvHtFjtyxaZ+EdEfbXYaztvuzGHs58H4lkZFTXmGCodyhrEWBy9yb2iL6lOrBxfRaidq5Np8p6fq201WHJ0izdWuRyIqLqi8UUmHW+gAAAAAAAAAAAAAAAAAAAAAAAAAAAAAAAAAAAAAAAAAAAAAAAAAAAAAAAAAAAAAAAAAAAAAAAAAAAAAAAAAAAAAAAAAAAAAAAAAAAAAAAAAAAAAA1/GWPbFgC2LX325Q0EC6oxHrrJKv2WMTi5fQhozZ8eCvNknZozZ8eCvNknZW/GW2fWSzvhwtZYoYE1RKu6Kr3u70jaqInrcpXs3GLTO2Gv5/RXc3GbTO2Gv4z9GvYe2w8YW+vY+70luu1Erk6SKKJYJET7rkVU19KKaMfFs9Z9uImPyc+Pi+es+3ETH5LaYJxnbMfYcpL1aJllo6hvJyaPjcnBzHJ1OReCp/ItGHNTPSMlJ6StWHNTPSMlJ6SzpvbwAAAAAAAAAAAAPLdGo63VSKiKixPRUX8KmvJ9yfgxt2lAWya1P/AAlXRNdKZNf/AKhSfsxH/N/+v7obhv8An+H7rDl6TYAAAAAAABDe03iaptGEaO20znRtuczo5ntXTWNiaq31qqa9yKVT7Rai2LT1xV/znr8I8PxRfEMk1xxWPFV0+bq8KiKmi8UA3bAWbt/wDURtgqXVttRfLt9S9XM0+4vNi+jh2opMaHiuo0UxFZ3r5T+3k68OqyYZ6TvHktzhTE1FjCwUd2oHK6mqWbyI7g5ioujmuTtRUVPUfUdNqKarFXNj7Ss2PJXLSL18WXOpsAAAAAAAAAAAAAAAAAAAAAAAAAAAAAAAAAAAAAAAAAAAAAAAAAAAAAAAAAAAAAAAAAAAAAAAAAAAAAAAAAAAAAAAAAAAAAAAAAAAAAAAAAAAEa55ZxU2UmHGTRxsq7zWq6OipXL5OqJ5Uj9Pqt1T0qqJ16pHa3Vxpabx1tPZHa3WRpKb97T2UVxNim7YyvE10vVdLX10vOSReDU+y1OTWp2JwKVky3zWm953lSMuW+a03yTvLFmpqALT7ElTVupsWU6q5aBklPI1FXgkqo9HaelrW6+hCzcGm2148Oiz8Fm22SPDotCWVZgAAAAAAAAAAAAPLc//ACfU/wCyf/dU15PuT8GNu0oD2TeWJfRTf/kKT9mP+r/9f3Q3Df8AP8P3WGL0mwAAAAAAADQ85cBOx9g6amp2otxpXeE0uv1noiorP2kVU9OhC8W0Xr2mmtfvR1j6fi49Vh9Nj2jvHZTZzHRvcx7VY9qq1zXJoqKnNFTtPk8xMTtKrODwALXbNNJPTZatkmRUZPWTSxa/Y4N1/ea4+m/Z6lq6LefGZmP0WPQRMYevmlgsySAAAAAAAAAAAAAAAAAAAAAAAAAAAAAAAAAAAAAAAAAAAAAAAAAAAAAAAAAAAAAAAAAAAAAAAAAAAAAAAAAAAAAAAAAAAAAAAAAAAAAAAAAAAFLtshKpMzres2vgy2uPoOz+sk3/AI6fAp/F9/Txv22+qncY39PG/bb6oIIRBgHCqjUVV4InFQL87OeAf0Dyyt8c8e5cbh/T6rVOKOeibrP2WI1PTqXnh+D0GCN+89ZXrh+D0GCInvPWUoEkkwAAAAAAAAAAAAPLc/8AydU/7J/91TXk+5PwY27SgPZN5Yl9FN/+QpX2Y/6v/wBf3Q3Df8/w/dYYvKbAAAAAAAAOF5AU6z4t9Lbs0buykRrWypHPI1vJsjmorvbwX9o+U8bpTHrrxTx2n8Zjr9VX1lYrntswuDst8Q47c5bRQLJTsduvqpnJHE1ezeXmvcmqnHpOH6nW/wDJr08+0NWLBkzfchLuGNllGTRy4gu6SsRdXUtA1U3u5ZHcfYiektOm+ze076i/4R9f4SePh3XfJb8k9W63U1ooYKOjhZTUsDEjiijTRrGpyRC648dcVIpSNojsmK1isRWOz0mxkAAAAAAAAAAAAAAAAAAAAAAAAAAAAAAAAAAAAAAAAAAAAAAAAAAAAAAAAAAAAAAAAAAAAAAAAAAAAAAAAAAAAAAAAAAAAAAAAAAAAAAAAAAAIwz2yZizcw/TxwTx0V5oXOfSVEiKrFR2m9G/TjuronFOSoi9qEbrtHGrpG07Wjsjddo41dIiJ2tHZUq87PeYdkmcyTDFVVtTlLQuZO13em6uvtRCrX0GppPWm/w6qpfh+ppPWm/w6tNvOGbxhxyNu1prrYqronhlM+JFXuVyIinHfHfH9+sx8XHfFkx/frMfGHhpZI4qqCSZu/CyRjpGp1tRyKqezUwjaJiZYRMRMTL9OrZXU1zt9NV0cjZqSeNssMjPouY5EVqp3aKh9IraLVi1e0vpVbRasWr2l6jJkAAAAABwoEMY/wBo+lwveau1Wu2OuNTSvWKWeaXo4kenNEREVXacteHEqWu4/TTZLYcVOaY6TM9I3RWfXxjtNKRvMNmygzTXM23Vz5qJKGsontbI2N6vY5HIqtVFVNepUVO7vJHhXEv9RpaZrtNfy6ujS6j1iJ3jaYSETjtAAHlunC21X+yf/dU15PuT8GNu0oC2TF44l/DTf/kKR9mP+r/9f3Q3Df8AL8P3WHL2mwAAAAAAADy3S4Q2m3VVbUu3KenidNI7sa1NV+CGvJeuKk3t2iN2NrRWJtPgoxdK+sxnieoq91ZK651WrI/vPdo1vq1RPUfGsl76vPN/8rz+vZULWtlvM+MyuzhLDsGFMOW+007USOkhbHqifSdp5TvSq6r6z6/pcFdNhrhr4QtuOkY6RSPBmDqbAAAAAAAAAAAAAAAAAAAAAAAAAAAAAAAAAAAAAAAAAAAAAAAAAAAAAAAAAAAAAAAAAAAAAAAAAAAAAAAAAAAAAAAAAAAAAAAAAAAAAAAAAAAAAAAONE7APNcrZS3ehmo62niq6WZqskgnYj2PTsVFMbVi8TW0bwxtWLxy2jeFAs88snZXY7qKGFjktFWi1NA9eP6tV4s17WLw9G6vWUXW6b1bLNY7T1j++5Q9dpvVc01jtPWP77k4bIOaPh1unwXcJf6RRos9vVy/Sh18uNPwquqdzvuk1wnU81ZwW8Oyb4Rquas4Ld47fBZcsSxgAAAAAcLxAgvObIyiqqW8YntU0sFc1r6uelXyo5dE1eretqqiKvWmvUmpTOLcGx2rk1WKdrd5jwnz+CH1WjrMWy079255E2q22/LW0T2+NEdWR9PUSr9KSXXR2voVNETsQl+C4sVNFS2P/LrPx8fo69HWtcNZr4pCJx2gADx3ddLVWL2Qv/uqasv3LfCWNvuygLZMX9ZiRPuUy/8ASFI+zHfL/wDX90Lw3/L8P3WJL4nAAAAAAAACINpXFf5mwVHaon6VF1l6NUTmkTdHP9q7qetSrfaHU+i00Yo73n5R3/aEZr8nJj5I8UV7OmFfz/j1tfKzeprVH06qqcFldq2NP7zv2StcA03p9X6Se1Ov4+H1R2hx8+XmntC2ScD6csjkAAAAAAAAAAAfMkjYmOe9yNa1NVc5dERO08mYjrIhy87T2HrfdXU1JRVlypmO3XVcKta13exHLq5O/hqVTL9o9NjyctKzaPPp8kXfiGOttojeEj4PxvaMdWzw20VSTxtXdkjcm7JE7se3mi/BerUn9LrMOtp6TDO/6x8Xdiy0zV5qSzx2twAAAAAAAAAAAAAAAAAAAAAAAAAAAAAAAAAAAAAAAAAAAAAAAAAAAAAAAAAAAAAAAAAAAAAAAAAAAAAAAAAAAAAAAAAAAAAAAAACM8/8sEzNwHUQU0aOvFDrVUDutz0Tyo/Q9OHp3V6iO12m9ZxTEfejrH996N1+m9ZwzEfejrH996iuG8Q1+EMQ0F4t7lgr6CZJWI7hxTgrXJ2KmrVTsVSlY8lsV4vXvCkY8lsN4vXvD9GMD4vosd4Vt18t7taesiR+4q6ujdycxe9rkVF9Bf8ADlrnxxkr2l9Cw5a58cZK9pZ43t4AAAAAHTV08dXTSwSt34pWqx7V60VNFMbVi9ZrPaXkxvG0oq2eKiSgs19w3Oq9PZblJDoq8mOVdPijitcBtNMWTS2747TH4f3dHaGZrW2Of8ZS2WdJAADwX525ZLg7sp5F/sKac/TFafdP6ML/AHZQDsmP0q8RN/8AY0y/F5SPsxPtZY90fuheG97fgsaX1OgAAAAAAOFXRAKfZ8Yq/SfMOtbG/epLcngcXHhq1dZF/eVU/ZQ+Vcb1PrOstEdq9I/f5qxrMnpMs7do6Jz2esKfo7l/T1UrN2qujvC36poqMXhGn7qIv7Slz4FpvV9JF5jrfr+Hh8v1S+hx+jxRM956pPLEkAAAAAAAAAAAAYDH1NLWYJv8ELlbLJQTtaqc9ejU4tbWb6XLWveaz+jTmiZx2iPKVF2rq1FTkqanxlT2cwfi+44HvkN0tkqslZwkiVfImZ1scnYvwXih2aTV5dHljLinr+seUt2LLbDbmquthfENNivD9BdqTVKeriSVrXc29rV70XVPUfXtNnrqcNc1O0wtmO8ZKRePFlTpbAAAAAAAAAAAAAAAAAAAAAAAAAAAAAAAAAAAAAAAAAAAAAAAAAAAAAAAAAAAAAAAAAAAAAAAAAAAAAAAAAAAAAAAAAAAAAAAAAOFTUClO1Xlf+h+MExBQw7tpvT1c9Gp5MVTzencj08pO/fKdxPTehyekr2t+qm8U03ocvpa9rfr/L37JOaH6O4kkwnXzaW+6v36RXLwjqdPo/tomn4mp2mzhWp9Hf0Nu1u3x/lnwnU+jv6G3a3b4/yuOi6ltW9yAAAAAHC8QIftf/grtE3Ol03KfEFA2oYmvBZWc/7r/aVbH/6bjF6eGSu/4x/+SjK/7ermPC0JhLSkwABicWydFhe8P+zRzO//AI3HNqp2wZJ90/o15PuW+EoA2T5NL1fY+2kgd7HO/wASj/Zmf93JHuj9ULw2fatHuWVPoKeAAAAAAAarmbi9mCMGXG6byJUNZ0dM1frTO4MT1Lx9CKRvEdVGj01svj4fGezn1GX0OObKdYUsUuLcU221o5zn1tQ1kj14ruqur3fuo5T5TpcM6rPTF/3T/wDqrY6TlvFPNeqmgjpaeOGJiRxRtRjGJyaiJoiew+zVrFYisdoXCI2jaHaZPQAAAAAAAAAAAaFm7mPQ4Dw5MyRyTXOsjfHS0qLxVVTRXu7Gprz6+SELxTX49FhmJ62t2j9/hDj1OeuGnXvPZUyy4Pvl/pnS2uz1twhjXcdJTwOe1F7NU4a9x8ww6TPnjfFSbRHlCtUxXvG9azL00uX+Jq2uZRxYfuXhD13Ua+mexE9LlRERO9VNldDqr25IxW3+EsowZZnaKz+S4eXeFnYLwZa7PJIk01NF+se3kr3Krnad2qrofVtBpp0mmphmd5jv8e8rRgx+ixxSfBsh3t4AAAAAAAAAAAAAAAAAAAAAAAAAAAAAAAAAAAAAAAAAAAAAAAAAAAAAAAAAAAAAAAAAAAAAAAAAAAAAAAAAAAABhMR42sGEGxuvd4obV0v9WlXO2NX+hFXVTTkzY8P/ADLRDTkzY8P/ADLRDI2650l4ooqyhqYayklTejnp5Eex6dqKnBTZW1bxzVneGytq3jmrO8PUZMgAAAAAAAABrGZGBqTMXBtxsVXo1KhmsMypqsMqcWPT0Lp6tU6zm1GCuoxTjnxc2owV1GKcdvF+dVxt9dhu81FFUtfR3KgnWN6NXR0cjHc0XuVNUX0KUC1bY7TWekw+fWrbHaaz0mF88h81Ys0sFQ1Mz2peaPSC4RJw8vThIifZeiap37ydReNDqo1OLefvR3/vvXnQ6qNVi3n70d/770kkgkQAAAAAIcz41w9fMGYrY3RKCv6Cdydcb9F09jX+0qnGv9jLp9XH+Ntp+E/2UXrPYtjy+UphY5HNRWqitXiip1oWqOqUfR6AGt5k1SUeX+I5lXTdt8/xYqfzI/iFuTSZZ/8AGf0aM87YrT7pQFsszJHjW6Qqv9Zb9U/Zkb/iUn7Nztqb1/8AH94Q3Dp2yTHuWhPoywAAAAAAcKugFV9ozHiYjxOyyUkm9Q2pVSRWrwfULwd+6nk+lXHzbj+t9Yz+gpPs0/X+O35q7rs3pL8kdo/V37MNgSvxlXXR7dWW+m3WL2SSLon9lrvaZfZzBz6m2Wf8Y+c/xu94fTmyTbyWiPo6wgAAAAAAAAAAA07MzMqgy5sq1NRpPXTIraWjR2jpXdq9jU619XNSK4hxDHoMXNbrae0ef8OXUZ64K7z38Fd8F4NveeWLqi6XWeRKFHp4XWImiInVDEnJF0/dTivFeNE0mkz8Z1E5c0+z4z+0f3og8WK+syTa89PH6QtZZ7PR2G209voKdlLR07EZHExNEan+Pf1n0vFipgpGPHG0QslaxSIrWOj2aG1k5AAAAAAAAAAAAAAAAAAAAAAAAAAAAAAAAAAAAAAAAAAAAAAAAAAAAAAAAAAAAAAAAAAAAAAAAAAAAAAAAAAAAAAR9nVmvTZTYSdXqxtRc6lVhoaVy8Hyaaq533WpxX1J1nBrNVGlx83jPZwazVRpcfN4z2UIv+ILjiq8VN1u1XJXXCodvSTSrx7kROpqdSJwQo+TJbLab3neZUTJktltN7zvMrBbFV3rW3/EVqSZ623wWOq6FV8lsu/u7yJ1KqLx7dE7Ce4Pe3PenhtusHBr25708Nt1ti0rUAAAAAAAAAOAKi7YmXiWy+UOLqSLSC4aUtZupwSZqeQ5fxMRU/YTtKpxbT8t4zR49J+Kp8X0/LeM9fHpPxRDlVmTW5WYvprxSo6amX9VWUqLok8KrxT8Sc2r2p2KpFaXUW02SLx28fgidLqbaXLF47ePwfoPh3ENBiqyUd2tlQ2qoKuNJIpW9aL1L2Ki6oqdSoqF8x5K5axek9JX7HkrlpF6TvEskbGwAAAAEf57WZL1lfem7u8+nY2qb3bjkVf7O8QfGsPptDkjy6/l/Di1lOfBb3dXuyhxF+k2Xlmq3OR0zIUp5u3fj8hdfToi+s3cLz+s6PHee+20/GOjPS39JhrLciWdQBHufdxbb8rL1quj6hsdO3vVz2ovw1IPjeT0egye/aPzlxay3LgsgTZ5uKUOaVAxzt1tVBNB693eT4sKTwHJya6secTH7/shtDbbPHvW8Q+pLM5AAAAACO86My2YAw25lNI1bzWo6OlZzVn2pVTsbrw7V07yC4vxCNDh2rPt27fX8P1cOr1HoadO89lPnOc9yuc5XOcuqucuqqvWqqfKp69ZVhZ/ZdtSUuCa6uVNH1la5Ne1rGo1PjvH0b7OYuXS2yf90/osHDq7Y5t5ymYtiVAAAAAAAAAADVMxcw7dl3Y3VtYvS1Mmraakauj5n9ncida9Xp0Qjdfr8egxc9+/hHn/AHxlzZ89cFeaVbsMYav+fOM56+4TvZStcnhNUieRCzmkUSL16ck6ua9/z/T6fUcb1M5Mk9PGfKPKP775QWPHk1mTmt28fotXYbDQ4atNNbbdTtpqSBu6yNvxVV61XmqrzPpeDDj0+OMWKNohY6UrjrFax0ZE3swAAAAAAAAAAAAAAAAAAAAAAAAAAAAAAAAAAAAAAAAAAAAAAAAAAAAAAAAAAAAAAAAAAAAAAAAAAAAAAAAAAAAAAAqhtqWG5OuWHr0jHvs8cD6Vz04thmV+95XZvJoiL93Qq/GKW5q38O34qtxnHfmpk/x7firK1Ue7db5Tvst4r7CuK2mDZlzMteXGNaxt5f4PQ3OFtOtUqeTA9rtWq/sauqoq9XDXhqS3DtTTT5Z5+0/JLcN1NNPln0naenwXmhmZPEySN7ZI3ojmvauqOReSopdInfrC7RO/WH2evQAAAAAAAABqOa2Co8wMAXmyOaizTwq6ncqfRmb5Ua/vInqVTl1WH0+G2P8Au7l1WGNRhtj8/wBX5yuY6NzmParHtVWuYvNqpwVPafP3zxLmQGeU2Vl2W33J8k2GauTWZiauWlevDpWJ2faanNOKcU4ymh1s6a3Lb7s/L3/VLaDXTpbct/uz8vevJb7hTXSigq6SeOppZ2JJFNE5HMe1U1RUVOaF0raLRFqz0XWtotEWrO8S9BkyAAADw3ugS6Weuo3Jq2ogkhVO5zVT+ZpzU9JjtSfGJhheOas180BbLeKkpqm54aqH6LJ/S6dFXm5ERsiJ6kavqUpP2b1PLa+ltPfrH6T+yG4dk2mcc/FYsvicAK/bU2KGdDacPRP1e561s7U6kRFbGnrVXL6ij/aTUxtTTxPvn9I/dC8RydK44+KDMOXp+HMQW26xpq+jqGT7qfWRF4p601T1lM0+adPmpmj/ABmJQ+O/o7xePBeygrYblRQVdNIktPPG2WN7eTmqmqL7FPtFL1yVi9Z6T1XGJi0RMPQZvQAAA1rHuPLbl/Y33C4P3nrq2CmYvlzv+y3+a8kQj9brcWhxekyfhHjMtGbNXBXmsptizFVfjS/VN2uUm/UTLojG/QjYn0WNTqRP8V5qfJ9Vqcmryzmyz1n5e6FWy5LZbTezDnI1LiZB0zabKmx6JxlbLKvpWVx9X4JXl0GP37z85WjRRtgqkInHaAAAAAAAAANZx/j625fWJ9wr3b8jtW09K1fLnf8AZTu7V5InqI/Xa3FocXpMn4R5y0Zs1cFeays9ls2Ic/sbzVVXKsdO1U6eoRP1VJFrwjYi9a9SdfFVPnmHFqeOaqb3np4z4RHlH998oClMmtybz/8Ai1WGsN2/Cdnp7ZbIEp6SBNGonFXL1ucvWq81U+lafT49LjjFijaIWLHjrjrFa9mUOlsAAAAAAAAAAAAAAAAAAAAAAAAAAAAAAAAAAAAAAAAAAAAAAAAAAAAAAAAAAAAAAAAAAAAAAAAAAAAAAAAAAAAAAAAB0VlFT3GmkpqqCOpp5E3XwzMR7HJ2Ki8FPJiLRtMdHkxFo2mOjw2nCtlsKqtttNDb9efgtMyPX91ENdcWOn3axH4NdcWOn3KxH4Ivzx2ebfmXSvuVrbFbcSxt8mZE3Y6pE+pLp19j+adeqEbrdBXUxz06W/X4/VG63h9dTHPTpb9fihTKPPC95K3l+E8X01T+aIJOjdDKirNQL2s+1GvPdTq4t7Fh9Jrcmjt6HNHT9P4/sIbSa3Jo7ehzx7MfnH8f2FxbVdaO926nr6CpirKOoYkkU8Lkcx7V5Kiltrat6xas7xK3VtW9YtWd4l6zJkAAAAAAAAcLxQD8/doTCyYTzcv1PGzcpqqRK6FETRN2VN5yJ6H76FE1+L0WotEdp6/moXEMXotTaI7T1/NHRHo9LGSWf1yyqqW0FY2S5Yakfq+kRfLp1Xm+LX2q3kvcvOU0WutpZ5Z61/T4JXRa+2lnlt1r+nwXXwri60Y1s0N0stdFX0UvJ8a8Wr1tcnNrk60XiXLFlpmrz453hc8WWmavPjneGZNraAcaoB47rd6OzUklTW1EVNCxFcrpXo1OCd5qyZaYqza87QxtaKRvaVFrPfquw3ynu9BJ0NXBN00a9XPkqdaKiqip2Kp8ZxZ74MsZsc7TE7qfS80tF691hf8AOpszaGF35mr31asRZY0cxGNd1ojlXVU79C9f8S4OWJ9HO/4Jv/UabfdndiavaukdqlLhpqJ2zVn+DDlt9pp/wxfnP8Nc8S8qfNCmJ8R1mLb/AFt3r3I6pqX7ytT6LG8mtTuREREKhqdRfVZbZsnef7sicmSct5vbxYs5mtKOAs/rtgeww2haCC500Dl6F0srmPY1eO5wRdURddPToWTRcczaPFGHli0R267fgkMOtvhrybbt1pNq+JdEqsNyt7XQVaO+CtQl6faaP88X5T/DrjiUeNfm2K3bTuE6vdSphuNA5eayQI9qetiqvwO/H9otHb70TH4b/o314hinvvDcLPmzhC+uRtJiCiV68o5pOhd7H6Eri4no83SmWPx6fq6q6nDftaGLzGzmsuAqVY2yMuV2e3WKjgei6a8nPcn0W/FepDn1/FsGirtE81/CI/fya8+qphjzlVTFmLrpja8SXK61CzTu8ljE4Mib1NYnUn8ea6nzTVarLrMk5c07z8o90K5ly2zW5rywxxtTlOZ6LlZHOR+VWHVTqp3J7HuQ+s8G66DF8P3ladJ/yKt7Jl2AAAAAAAAGt47x3bcAWOS43B+q/Rgp2L+snf1Nb/NeSJxODW63FocU5Mn4R4zLRmzVw15rKw0VJiPP7HLpJX7jE06SREVYaKHXg1qda9ic3LxXhy+dUrqeOaref4rH9/NX4jJrcvX/APIWpwnhS3YMskFrtkPRU8Saq5eL5HLze5etV/44H0rS6bHpMUYsUbRHz98rFjx1xVitWZOptAAAAAAAAAAAAAAAAAAAAAAAAAAAAAAAAAAAAAAAAAAAAAAAAAAAAAAAAAAAAAAAAAAAAAAAAAAAAAAAAAAAAAAAAAAAAAEcZxZK2jNm0okyNor1A1UpLixurm/cen1mKvV1c00I/V6Omqr16W8J/vgj9ZoqauvXpaO0/wB8FZcFY/xZs0YumsN8pJZrU5+/PQK7VrmqunT07l4cfYvJdF4pXMOfNw7JOPJHTy/eFbw583Dcno8kdPL94XJwni21Y2sdPd7NVsrKGdPJe3m1etrk5tcnWi8S3YstM1IvSd4W/FlpmpF8c7xLMG1tAAAAAAAAKmba9kSK9YYu7U4zQTUj1T7jmvb/AH3FW4zTa1L/ABhVeNU2tS/xhWorquOFUDestr1iDA11bdbXcJbc52m/AnFk7eyRi8FT49ioc3+o30tt8E9fl/KR0s5cNues7fv8VqcEbSllvEbIL+z8y1mnGZNX0719PNvoX2lo0f2gwZY5dRHJPn4fx/eqz4dfS/TJ0n5OvFO09ZLcr4rLRz3iVNUSZ/6mH08U3l9iGOp+0WDH0wVm0+faPr8jJxClelI3RTiLP3GV/VzY69lpgX/R0DNxU/bXV3sVCs5+Oa3P0i3LHu+vdG5Nbmv2nb4NAra2puc6zVlRNVzLxWSokWR3tVVIO97ZJ5rzvPv6uKbTad5nd0GDwAAAAAAAAKiOTRU1TvAIiJyTQAAAAW12cLj4blhSRa6rSVE0C93lb6fB6H1DgGTn0NY8pmPnv+6y6G2+CI8koljSAAAAAAADW8dY7tmALI+4XGTVV8mGnYv6yd/2Wp/FeSIcGt1uLQ4pyZJ+EeMy0Zs1cNeayrW9iTPnHKIqosjurj0FFBr/AA+Ll+Hzb/1PGtV/dqx/fzlXf9zWZf70hanBOCrdgSxQ2y3R6Mb5Uszk8uZ/W9y9v8E4IfS9HpMeixRixx8Z8581jxYq4a8tWwHa3AAAAAAAAAAAAAAAAAAAAAAAAAAAAAAAAAAAAAAAAAAAAAAAAAAAAAAAAAAAAAAAAAAAAAAAAAAAAAAAAAAAAAAAAAAAAAAAA1DMvLCy5o2B1uu0OkjNXU1ZGidLTv8AtNXs7WrwXrOXU6bHqact/wAJ8nJqdNj1VOS/4T5KixT412V8crG5Ont9Suqt4+C3CNOtPsvRPW3vReNUic/DMu3hP5T/ACqkTn4Xl28J/Kf5W9y4zLsuZ9hbc7RPqrdG1FLJoktO/wCy9P4KnBeoten1OPU056T/AAtmn1OPU056T/DbDqdQAAAAAACvW2lRJJgCy1WnlQ3RGa9zopP8EIHjFd8NZ9/7SgOM13w1n3/tKnrGOle1jGq97l0Rqc1KjMxWN5VGImekNotFgZR7ss6JJPzROaM/xXvIfPqZyezXpDvx4Yr1t3Zk4HSAAAAAAAAAAAAAAAAAAABMmz7mfasFrcbZeah1LT1crJYZ1aqxsfpuuRypy10bx5cF1LZwLiOLSc2LPO0TO8T4fj8kpotRTFvW891nKWrhraeOenlZPBIm8yWJyOa5O1FTmfRa2reItWd4lYImJjeHcZPQAAAAatmBmHa8vLOtZXv3536tp6Ri/rJ3didiJ1u5J7EI7Xa/FoMfPk7+EeM/3zc+bPTBXmsqlX3DEWdGNYmqnhFbULuRQtVUhpo9eOnY1OarzX0qiHzO99TxfUxHe09o8Ij6eauTbJq8nv8A0Wsy7y/t+XlhZQUadLO/R9TVOTR0z+3uROSJ1J36n0vQaHHoMXo6d/GfOf72WPBgrgryw2oknQAAAAAAAAAAAAAAAAAAAAAAAAAAAAAAAAAAAAAAAAAAAAAAAAAAAAAAAAAAAAAAAAAAAAAAAAAAAAAAAAAAAAAAAAAAAAAAAAAAwWM8F2jHthqLReqRtVRy8U6nxu6nsdza5OpU/gac2Gmek0yRvDRmw0z0mmSN4Uxxbg3F2zNjSG6Wure+gkduU1wa39VUM59DM3lr3dfNqp1VDLizcOy89J6eE+fulT8uHPw3LF6T08J8/dP9+C0WTud1nzZtmkStob3A3Wptr3auT77F+szv5pyXTrsuk1tNVXp0t4ws2k1tNXXp0t4wkkkEiAAAAABBO2LG6fLK3Qxt35ZLvCjWp/s5SB4zaK6aJtPj9UJxeJnBER5x+6r1os8dtj1XR87k8p/Z3IfNc+ecs+5X8eOKR72RORuAAAAAAaoehrqeAAAAAAAAAAAAAADacEZlX3L+pR9sqldSq7WSin1dC/1fVXvbovpJPR8Q1Ghtvinp5T2/vwdGHUZME+zPTyWcy4znsuYDGU6O/N1301dQzuTV3asbvrp8e1D6JoOLYNd7P3b+U/t5/qsGDVUz9O0+SQOZOO1yBxroBH+Z+cNry7pnQIra69PbrFRMd9HXk6Rfqt+K9XaQfEeK4tBXl738I+vlDi1GqpgjbvPkqrd7xeswcSJPVPkuN0q3pFFExO1fJYxvUnd6161PmuXLn12bmv7Vp6R9IVy1r577z1mVrcpMr6bLqx6SIya8VKI6rqE46dkbfup8V49mn0zhfDq6DF163nvP7R7oWTTaeMFffPdvxNOwAAAAAAAAAAAAAAAAAAAAAAAAAAAAAAAAAAAAAAAAAAAAAAAAAAAAAAAAAAAAAAAAAAAAAAAAAAAAAAAAAAAAAAAAAAAAAAAAAAAAY6/4ft+KLRU2y60kdbQVLNyWCVNUcn8lTmipxReKGvJjrlrNLxvEteTHXLWaXjeJUnzbydvmRmIYL5ZKqpdZ0mR1Hcol0lpXryjkVOvqR3JycF48CnavSZNFeMmOenhPl8f71U3V6PJobxkxz7PhPl8f71TnkdtLUWPEp7LiF0VtxEqIyOT6MNYv3fsv+51/V7EmtFxGufbHl6W+UpvRcSrn2x5elvlP8p1RdSbTbkAAAwuLcYWrBNnlud3q20tMxd1qLxfI9eTGN5ucvYn8DRnz49PScmWdohpy5aYa8152hVLNTN6uzKnjgSBKG0QSdJDTLo57naKm+93boq8E4Jr18z5hxPit+IW5Yjakdo8fjKu6jVW1HTbaGgEE4gAAAAAMLdsQto3rDAiSSpwc5fotXs71O/DppvHNbpDmyZuWdq93gat7q032rK1q8uKMT2HT/wCmp0nb9Wn/AHrdRLtc7Y9EqmOexeqROfocg9DgzR/tz/fg99Jkx/ebBQV8VwgSSJeHJWrzavYpGZMdsVuWzrpeLxvD0mpmAAAAAAAAAAAAB9RvdFI2SNzmPYqOa5q6K1U5KipyU9iZid4Oyesq9ol8Cw2rFkqyR8GxXVebe6VOtPvp6+0u3DePTG2LWT8LfX6/mmdNrtvYy/n9UuX7NfCeHYldWX2jV+mqRU8nTSL6Gs1UtGbiejwRvfJH4dZ+STvqcVO9kL482mK25RyUmGad1uhdwWuqERZlT7reKN9K6r6Cpa37Q3yRNNLHLHnPf8I8EVm4ha3TFG3vQlUVElTNJPPK+aaRyvfJI5XOcq81VV5qU+1ptM2tO8yiJmZneVltnjK5LLb2YmuUP/KNWz+iRvTjBCv1u5zk9jdO1T6FwLhvoaetZY9qe3uj6z+if0On5I9LbvPZNpb0sAAAHGoGNr8TWi1zpDWXSipJl5Rz1DGO9iqc99Rhxzy3vET75hrtkpWdrTEPfDPHURNkie2SNyatexUVFTuVDfExaN4ZxO/WHYevQAAAAAAAAAAAAAAAAAAAAAAAAAAAAAAAAAAAAAAAAAAAAAAAAAAAAAAAAAAAAAAAAAAAAAAAAAAAAAAAAAAAAAAAAAAAAAA8l0tdJerfUUNdTx1dHUMWOWCZu817V5oqGNq1vWa2jeJY2rW9ZraN4lSDPrIWqyur1udsSSqwzPJ5Eq6ufSPVeEb17Psu6+S8edM12hnTTzV61n5KVrtDOlnnp1rPybVkxtVVeHmwWfGLpbhbW6MiuiIr54E6kkTnI1O36SfeOnR8Ttj2pn6x5+P8urR8UnHtTP1jz8f5Wys96oMQW6CvttZDXUUzd6OeB6PY5PSn8C00vXJXmpO8LVS9clYtSd4e4zZtLzRzVs2VVhW4XORZaiTVtLQxKnS1D06k7ETrcvBPToi8ep1VNLTmv38I83HqdVj0tOa/fwjzU9xLjK95h3lb1fptZlRUpqNmqRUka/VYnavW5eK/A+Y8R1+TWZPanpCr3y5M9vSZe/hHkx5DPAAAAAAPHd6xaKgllbwfput9Km/BT0mSKy15LctZlhbHSw01M+41K8EVUZrx9feupIai9r2jDRy4qxWPSWddVieplevQI2FnVqm84yppKRHtdXls9p+70dceIZ3NWOqYyphdwc1W6KZTpax1xztLyM09rdYLXUtobuxInq6nm0bx56Ly170UZqzkxe1HWDHPJfp2ltyEIkAAAAAAAADGV2IaWjcrEVZpE5pHyT0qdmPTXyRv2hotmrXp3eJmLo1dxpnInaj0VTfOit4Wa41EeMMtQ3KnuDVWF+qpzYvByeo4smK+Kfahvret+z1GlsAABERvJERO4ABvOTeB0x1jampp2b9upU8JqkXk5qL5LP2naJ6NSa4To/XdTFbR7MdZ+n4uvS4fTZYie0dZXLa1GNREREROCInUfWVqfQAAAAhjaIzLrsJ0lFZrTO6lra5rpZahi6PjiRdERq9SuXXj1Ii6cyp8e4hk0ta4cM7Wt1mfKPd8UVrtRbFEUp3lWGRVmkdJIqySOXVz3rqrl7VVeZ85md53lX+/dueW2aV1y6uUawyPqbU936+gc7yXJ1qz7Lu9OC9ZLcP4ll0F45Z3r4x9PKXVg1F8E9O3kuFYL5R4ltFLc7fMk9HUsR8b07OxU6lRdUVOpUPquHNTUY4y453iVopeuSsWr2lkDezAAAAAAAAAAAAAAAAAAAAAAAAAAAAAAAAAAAAAAAAAAAAAAAAAAAAAAAAAAAAAAAAAAAAAAAAAAAAAAAGOu2IrVYWsdc7lR25r/orV1DIkd6N5U1Nd8lMf35iPi13yUx/fmI+Lut13orxT9PQVlPWw66dJTStkb7UVTKt63jes7sq3reN6zu9ZkyAAAAAAAAAAAB5Lpa6S9W+ooa6njqqOoYscsMrd5r2rzRUMbVreJraN4ljatb1mto3iVEc98l6jKfECPpukqMO1rlWjqHcVjXmsL1+0icl+sneilI12jnS36fdnt9FH12jnS33j7s9vo1XA+ZGI8ua5amw3OSkR66y07vLgl/ExeC+lNF7zmw6jLp53xzt+jlwanLp53xzt+iwFj21o0tkrbzht/wCcWxqsb6GZOhkfpwRyO8pia9abxO04x7Pt06+5PU4zHL/uU6+5B1yxBdsycTVGIb9P4RK5dGMThHGicmMb1Nb8V4rqupUeIay+S0809Z+UIjnvqck5cr3EA6A8AAAAAAMRidiutiqnJsjVX+H8zt0k7ZNvc588ewwdbU79st8LV8lGuc5O/VU/49JI46bZb2lyWt7FYeA6moA7aJivrKdreayN09pryTtSZnyZVje0Q30raWAAAAAAAYXElydSwtgiXdkkTVVTmjf95IaXFF7c1u0ObNfljljxYGkq4KREXwVs8n2pV4J6E/xJG9L3/wAto9zkraK+G7KU97o6pUiq6SONq8N5GorU/mhx20+SntY7S3xlpbpaHTdLc6zyx1dI9Uj14cdd1f5opnhyxniceTv/AH5sclJxzzVbFQVba6kjmamm8nFOxetCMyU9Heay7K256xL0GpmAAAFndl2xNpMIV90c39bXVSsRVT6kaaJ/aV59G+zmGKae2XxtPyj+d1g4dTbHNvOU0ltSoAAAAKpbTM6y5jxM11SK3xJp2auep80+0Vt9ZEeVY/WVc4hO+b8ETFXRoBMuzjmC6yX9cOVcq+AXFyup1cvCOfTknc9E09KJ2lt4Brpw5fVrz7Nu3un+f1Sugz8lvRz2n9VoE4n0ZYHIAAAAAAAAAAAAAAAAAAAAAAAAAAAAAAAAAAAAAAAAAAAAAAAAAAAAAAAAAAAAAAAAAAAAAAAAAAAAAEf52ZpQ5U4MmuKNZNc53eD0NO/k+VU13l+61NVX0InWcOs1MaXFzeM9nBrdVGlxc3jPZQW/Xy4Ypus9yu9XLcK+d28+edd5fQnUiJ1InBCjXvbLabXneVEyXtltN7zvL1YQxfdsB3qC62SrfR1UTkVWtVUZKnWx7eTmryVF9XEyxZb4LRfHO0s8Oa+C8XxztL9FME4pp8a4TtV8pU3Ya+nZMjNddxVTym+pdU9Rf8OWM2OuSPF9Bw5YzY65I8WcNzcAAAAAAAAAAADAY5wZb8f4XrrHc496mqmaI9E8qJ6cWvb2K1dFT/eaM2GufHOO/aWjPhrnxzjv2l+dWKMN1uD8RXGy3Bu7WUMzoX6Jwdpycnc5FRU7lKBlx2xXnHbvD57lx2w3nHbvDw0dK+tqY4WcFcvFexOtTmyXjHWbSxrWbztDeKeBlNCyKNNGMTREK9a03mbT4pSIisbQ7DBkAAAAAAA6qmnZVQSRP4sem6pnS00tFo8GNoi0bS0ito5aGdYZU5cWr1KnahYMd65I5qou1ZpO0uk2sXGoGfw3a3LIlZK3RqJ+rRevvI3V5o29HX8XXgx9eeWyES7QAAAAAAGoYlVVurteSMboTmk29F+Mo7P99jDsaADO0c/hGG6uORdehTRqr2cFQjb15dTWY8XXWd8UxPg9mFlVbc7Xkkq6exDRrP8Amfg2YPuMzqcDpcI9rl0RUX0Lqe7bPHJ49AJQyTzafgS5pbrlK51gqn+Uq8fBnr/pE+6v1k9fUutk4PxSdFf0WWf9uflPn8PP80hpNT6G3Lb7s/JbOKVs0bXscj2ORFa5q6oqdSop9OiYmN4WXu+z0AAHmuFwprXRTVdXPHTU0Td6SaVyNa1O1VUwveuKs3vO0QxtaKxvM9FLc0sWxY2xzcrrTa+COVsUG8mirGxNEXTq14r6z5FxLVRrNVfLXt2j4QqupyxmyzeOzVCMcwB2U9XLQVEVVA9Y5oHpLG5OaOauqL7UMq2mkxeveOpEzWd4X4tdX4fbqWpVu700TJNOzVqL/M+247c9K284XOs80RL1GxkAAAAAAAAAAAAAAAAAAAAAAAAAAAAAAAAAAAAAAAAAAAAAAAAAAAAAAAAAAAAAAAAAAAAAAAAAAABwvBAKN7VWNnYpzPnt0Um9Q2RngjGovBZV0dK7067rf2Cl8TzelzzWO1en1Unimb0uo5Y7V6fVDhEIgAuPsc4tZc8BVtikk1qbVVOcxirx6GXykVE7N7fT2Fu4Rl5sU457xPylb+EZebDOOe9Z+UrAk6ngAAAAAAAAAAAdVVUxUdNLPPIyGGJivkkeujWtRNVVV6kRDyZiI3l5MxEby/PjO/H9JmVmJX3igpmwUSMbTQv0VHzsZqiSP7114J1NRqFD1ueuozTesdFB1uorqc03rHTsxeGrf0FMtQ9P1kvLub/v5lY1eXmtyR2h7gptHNPizRwOkA+HzRxro97Wr95yIZRWZ7Q8mYju+kcjk1RdU7UPNthyePQAAAAdNVRw1ke5NGj29WvV6FNlL2xzvWWNqxaNpYmTCkDnasmlYnYuinZGsvHeIc86evhL0UuHKSmcjnI6Zyf6xeHsNd9VkvG0dGVcNK+9lETQ5HQHgAAAAAAAwGKKB0jGVTE13E3XonZ1KSWjyREzSfFyZ6b+1DXCWcQB62VCpQJSRIr5Z3o56J8G/wAznmv+56S3aGyJ9nkjxbXb6ZtsoGRuVE3EVz3d/NSGy3nLkmY8UhSvJXaWtV14dcJ16R8kdKn0Y49EVU7yWx4IxV6d/e4rZeeevZ20dFQ1rt2lnmpqrm1JFTj60MMmTLj63iJq9rWl+lZ2llbPcZnTyUVX/wCMR8nfaQ48+KsVjLj7S6Md53mlu7LnC6ACwezrmmrujwndJtVRF/N8z15onFYVXu4q3u1TqQvXAeJb7aPLP/8Az9Pp+Sb0Oo/6Nvw+iwXMvKaFXQDRsxM37Jl7E6KeTw26K3VlBA5N/uV68mJ3rx7EUhtfxXBoY2tO9vKP38nHn1VMHSes+SruO8yr5mFV9JcqjcpWO1ioodUhj9X1l+8vH0HzjW8Qz662+WenhEdo/vmr2bUXzzvaenk+sG5XYkx1G6a10OtI1dFqqh/RxKvYir9JfQinuk4bqdbHNir0856Q9xafJm61jo9mIclcY4bidNPaH1VO3istC5J0T0onlJ7Dbn4RrdPHNam8e7r/AD8mV9Jmx9Zr+TR3eS9zXeS5vBWrwVPShD9ujkbllhltXZi3yKKOJ7LTE9Fq6vTyWt62IvW5eWnVrqpLcO4fk1+WIiPYjvP7fF1afT2z22jt4roxRNhjbGxqNY1ERrU5Iicj63EREbQtfZ9noAAAAAAAAAAAAAAAAAAAAAAAAAAAAAAAAAAAAAAAAAAAAAAAAAAAAAAAAAAAAAAAAAAAAAAAAAAAB8yORjFcvJE14AfmJeLjLd7xX187ldNVVEk71XrVz1cv8T5ve03tNp8XzS9pvabT4y8hgxAM7gnHF4y9v0d3sdV4NVtarHNcm9HKxebHt604J6FRFTRTfhzXwX58c9W/Dnvp78+Oeqy+Cds22VnRwYptMttlXgtXQazQ+lWL5TfVvFiw8XpPTNXb3wseHjFLdM1dvfCd8L44sONaTwmx3akucWmq+DyIrm/ibzb60Qm8WbHmjfHbdO4s2PNG+O27OIupvbnIAAAAAAAACsO1xm4tNCmB7XNpLM1stzkYv0WLxZD+19J3don1lK3xXVbf+np+P0Vri2r2j1en4/RV23Ua19bFD9VV1cvY1OZU8uT0dJsrVK89ohvLWo1qIiaInBE7Cuz1Srk8GAu12nlqvAqLXpNdHPbz17E7O9SSw4axX0uXs5MmSZtyUeCqtdLQIi1lS+SocmvRxIir61U6aZr5P+XXaPe1WpWn356vFBWPopt+lfJG3scqLr6U5KdFscZI2vDVFprO9W32q4tuVMkiJuvRdHt7F/wITNinFbZIY7xeN3sOdtAAAAAAAAAAAAAAAABURU0VNT0YStwvFM9X07+gVfqqmrf9x349XasbXjdy2wRPWvR42YUnV3lTxonaiKqnROtr4RLX6vPmy9tssFu8puskun9Y7q9CdRw5c98vSezopirT4uy8I5bXVI3n0a/7zDBt6Wu/myyfcnZpJYUWNesbke1dHNXVFTqU8mImNpN9urZJndJiWjVqaP6NFfp1cFIqvTTWifN2z1ywzyciOdYeDsgnlpZ45oZHRTRuR7JGLo5rkXVFRe1FMq2msxas7TBEzE7wuDlrmrQ4qwOt2uNVBRVFCiR3B0jkY1jkTg/0OTinfqnUfVeH8Tx6nS+myzETX731/FaNPqa5MXPadtu6MMydpCeu6W34U3qaDi11ykbpI9P/AGbV+in3l49iIVziH2gtffHpOkf93j+Hl8UfqNfM+zi/NCdNTVt8uTYYI57hX1L+DWoskkjl5r2qvepUK1yZr8tYm1p/GZRMRa87R1mU/wCWuzbHT9FcMWbs8v0mWyN2rG/7RyfS/CnDtVS8cP8As/Fdsmr6z/2+H4+fwTWn0ER7WX8k8U9NFSwshhjZDExEayONqNa1E5IiJyQulaxWOWsbQmIiIjaHZohk9Ym54Qsd6l6W4WehrZft1FMx7vaqanLk0uDNO+SkTPviGq2Kl+tqxLIUdDT2+nZBSwR00DODYoWIxrfQicDfSlccctI2hsiIrG0Q7zN6AAAAABxyAhPN7PqpwdfX2SyU1PPVQtRamoqUVzWOVNUY1qKmq6Kiqqr16aFQ4rxu2ky+gwREzHeZ/RE6rWzityUjq+8os+5sYXhllvkFPTV0yL4NUU6K1kqomqsVqqujtNVTRdF009PvC+Nzq8noM8RFp7THj7jS62ctuS8dU0luSzkAAAAAAAAAAAAAAAAAAAAAAAAAAAAAAAAAAAAAAAAAAAAAAAAAAAAAAAAAAAAAAAAAA4VNUA/PfOnK24ZYYvrIpYHrZ6qZ8tBWaeQ9jl1Rir1Pbroqd2qcFKHrNNbTZJiY6T2lQdbpbabJMTHsz2lH68NO/gnecDgThlXss37G0cVwvr5MO2hyI5jHx61UydqMX6Cd7uPcTWl4Zkze1k9mPmmtLwvJm9rJ7MfNLF52M8JVNv6O23K6W+sROE8sjZ2r+JionwVCUvwjDMbUmYn80rfg+GY2pMxP5oSxrswY4wj0k1PRsxBRN49NbVV0iJ3xL5Xs3iGzcN1GLrEc0e76IXNwzUYesRzR7voi2CorbJcekhkqLdcIHfSY50M0a+rRyEZE2pbeOkoyJtS28dJTBgravxnhjo4bm6HElG3RFSsTcnRO6Vqcf2kUlsPFM+Lpf2o9/f8ANLYeK58XS/tR7+/5p6wZtWYIxOkcVdUy4erHaIsdxb+rVe6VurfboTmHimnydLTyz7/qncPFNPl6Wnln3/VLtBcqS60zKiiqYaunf9GWnkSRi+hU4ErW1bRvWd4S1bVtG9Z3h6EVFMmTkAAAAapmdjyly3wXcb7U7r3QM3YIVXTppncGM9a8+5FXqOXU540+Kck/2XLqc8abFOSfD9X52XW61d8udXcq+Zaitq5XTTSu5ue5dVX/AHdSaFBvab2m1u8vn17WvabWnrLN4Wo9yCSocnlSLut9Cf7/AOBDay+9opHg68Fdo5mdI11vmV/Rxud9lFX4GURvOzyekNcwyjUbWVb/ACntT+SqpKavfeuOP74OPB42lhJZn1Er5ZF1e9dVUkK1isRWPByzM2neXyZPGYwtIra+RmvkvjVV9KL/ALzg1lYmkT73Tp59qYbUQzvAAAAAAAAAAAAAAAAAAAAAcOajmqipqi8FRT2BqVzsM1JK50DHSwKuqbqaq3uVP5k1h1NbxtadpR18M1neOzw09PM6Zu7TvlVF13N1dF9J0XvWI622aq1nfs2i0WySCSSqqnI+ql5/dTsIjNmraIpT7sO/HSYnmt3ZQ428AAc7yo1W7yo1VRVbrwVU5cPWp7v4Dd8u8or3mHK2WBngNqR2j6+dq7vejE+uvo4dqkxoOF59fO9elfOf283Xg0t887x0jzWiwJlpZMvqPo7bT71S9uk1bNo6aX0r1J3Joh9H0XD8Ghrtijr4z4z/AHyWHDp6YI2rHXzbYSbpAAAAAAAAAADhXIgGmYtzcwxhGnm8JukFRVsaqto6Z6SSud9nRNd30roROq4ppdLE814mfKOs/wB+Lly6nFijrPXyU6vN2nv13rblVLrUVcz536ckVy66J3Jy9R8ozZbZ8lstu8zuq17Te02nxdVvuM1ouFNX0zlZUUsrZ43J1OaqKn8DHHktivGSveJ3/J5W01mLR4L6WqvZdLbS1kX9XURMmb6HNRU/ifa8d4yUreO0xv8AmuVZ5oi0eL1GxkAAAAAAAAAAAAAAAAAAAAAAAAAAAAAAAAAAAAAAAAAAAAAAAAAAAAAAAAAAAAAAAAAAHkudqo71RSUdfSw1tJImj4KiNHscnei8DG1a3jltG8MbVreOW0bw1qw5Q4MwxX+HWzDVtpKtF1bM2BFcxfuquu76tDmppMGOealIiXNj0mDFPNSkRLb0TQ63W5A4VNQNaxhlthnHkPR32zUte7TRsz2bszPwyJo5Pac2XT4s8f7ld3Nm02LPG2Su6A8a7GEbuknwpenRLzSiuibzfQkrU1T1tX0kHm4P44bfhP1QWbg0d8Nvwn6q/wCM8tMT5fTKy/Weeij10bUom/A/0SN1b6l0XuILNp8uCf8Acrt+iBzabLp5/wByu36fmxFkxBdMNVCT2i5Vdrm579HM6JV9Oi8fWaqZL453pMx8GmmS+Od6TMfBJlg2p8wrGjGTXGmu8Tfq3Cmarl/aZur7SRx8T1NO87/GEnj4pqad53+MN7te2zcI0RLlhWmmXrdSVjo/g5q/xO6vGbf5U+burxq3+dPylnYdtm0Kn63C1xYvYyoid/HQ3RxmnjSW6ONU8aT8nxUbbVsan6jCldIvZLVRsT4Ip5PGaeFJ/N5PGqeFJ/NrV421L9UI5LZh230WvJ9VM+dU9SbiHPfjGSfuUiPn9HPfjOSfuUiPn9ESY+zcxTmYkEd+uDZ6aB6yRU0ETYo2OVNNdE4quiqmqqvNSKz6vNqdvST0ROfV5tTtGSejUGsWR7WNTVzl0RO845mIjeXJ36N8pYG0tPHC3kxqNK3e3PabT4pascsRDtMGQ5EVFReKKejV7e9tnuNRR1K7sMqbu8vLuX2KS+WJz44yU7w4aT6O00t2liqulfRVDoXpxTkvU5OpUO3HeMleaHPas1naXUZsWwYVo3J0tS5NEVNxnf2qResyR0pDs09e9mxEW7AAAAAAAAAAAAAAAAAAAAAHVPVw0yIssrIkXlvu01M60tf7sbsZtFe8vqKaOdiPje17V+s1dUPJrNZ2mHsTE9YfZi9AAAAAAtTs443/AEhwktnqH61tp0jTXm6BfoL6tFb6k7T6XwDWen0/obfep+nh9Fi0Obnx8k94/RLpaEmAAAAAAA4A66ipipYXSzSMiiamrnyORrU9KqY2tFY3tO0PJmI6y0HEefGDsPK9n5z/ADlO3h0Nvb0v9r6PxITUca0WDpz80+7r8+3zceTWYaeO/wAEXYj2prjUb0dltMFE1eCTVr+lf6mpoie1Suaj7SZbdMFIj3z1+SOycRtPSldmteA5oZqLrIlznpJOOsq+C02no8lF9ikfycV4l35pif8A6x+37tHLqtR57flDbcObK070a+93lkCc1gt8e8v77uH9kk9P9mrT1z5NvdH1n6OnHw6f87fkxOYmzncMOU7q7D8s14o2JrJTPanhDE7U04PT0Ii9ynNr+AZNPHpNPM2jy8f5/Vqz6G2OObH1j5owsWFLtii5st1toZqiqe7dVNxUbH3vVeDUTr1K5g0ubU39HirMz+nx8kfTFfJblrHVeGwWz8yWO32/f6RKSnjg3/tbrUbr8D7Fgx+hxVx+URH5LdSvJWK+TIG9mAAAAAAAAAAAAAAAAAAAAAAAAAAAAAAAAAAAAAAAAAAAAAAAAAAAAAAAAAAAAAAAAAAAAAAAAAADpqqSGtp5IJ4mTwSJuvilajmuTsVF4KeTEWjaXkxExtKCsyNkrD2JUlq8OPTDlxXV3QtRXUki97ObPS3h3KQmo4Viye1i9mfkhNTwrFl9rF7M/JVbHOXWIMuLl4Ffre+lVyr0VQ3y4Zk7WPTgvo4KnWhWM2nyae3LkjZVs+ny6e3Lkjb9GtnO5wAAAAZHD9P4RdI1VNWxosi+rl8VOTVW5cU+/o3Ya73bihBJIAAeO42uG5Ro2RFRyfRe3mhvxZrYp3hrvSLx1YSbDVZojG1DJIm/RRyqmn+BIV1ePvNdpcs4L9t3dR4V0ejqmVHon1I+v0qYX1m8bUhlXT+NpbAyNsbGta1GtamiInJEIyZmZ3l19ukOTx6AAAAAAAAAAAAAAAAAAABw5d1qr2cT2BozrjM+ofOqsdI9ddXsR2idnHqLDGKsVisdkVzzM8zLW2pb09JURMSFZpFgmiZwaq6ao5E6jiy0nltS3XaN4n9nTS3WLR49JbInIi3YHgAAAADcMpsYLgnHVvrnv3KOV3g1V2dE9URVX8K7rvUS3C9V6nqq5JnpPSfhP07urTZfQ5Yt4eK6rV1Q+urW5AAAONQMXesU2jDkSyXS5UtA3TX+kTNaq+hF4r6jmzanDp43y3ivxlrvkpTradkb4g2mMLWveZb2VV5lTksLOijX9p+i+xFIDP8AaHSYumOJvPu6R+c/RwX1+Kv3eqNL7tKYqvUvQWmmprUj10akLFnmX0K5NPY0r2b7Q6vNPLhiK/Of7+Dgvr8t+lI2+bHU2WmY2ZErZ7kysWJ3FJrxOsbUTujXj7GmivD+JcQnmy77edp2+X8MI0+pzzvb5pAw5ssUMCMkvl3mq3dcFE3omejeXVV9WhN6f7NY46577+6Onz7u3Hw6sf8AMtv8EpYcy0wzhTddbLNSwSp/p3s6SX992qlk0/D9Lpf+VjiJ8+8/nKQx6fFj+7Vs2hIuhyBwqagcIxEVdE58+8D6AAAAAAAAAAAAAAAAAAAAAAAAAAAAAAAAAAAAAAAAAAAAAAAAAAAAAAAAAAAAAAAAAAAAAAAAAAAAAAAY6/4dtuKbXPbbtRQ3ChmTR8E7d5q9/cvYqcUNeTHTLXkvG8NeTHTLWaXjeFPM7tmetwG2e9Yd6a52Bur5YF8qekTtX7bE+1zTr15lT1vDrYN74utfnCo63htsG+TF1r84/hBSLqmqEIhHIAABsWE4NI6iZetyMT1cV/iRWtt1irt08dJlsBGOsAAAAGMr7nJHK+GDcRY270s0uu6xF5JonNe468eKJiLW8e0R4tF7zE7V8HhocSOdUtin3XxuXRJWt3dF7015HTk0m1eavfy7tVc/XazYSLdgAAAAAAAAAAAAAAAAAAABQNZuGGZemc+lVro3LruOXRW/7iWxauu21+7ivgnfer22eyyUrmSVDmqseqsY3iiKvNVXrXqNGfPF94p4tmPFNetmZOB0gAAAAAFTVFReSgT3gzabitdooqC9WmonfTxNiWrpZWuWTdTTeVrtOPDjxLtpPtFGPHXHnpM7RtvHj+EpnFxCK1it69m3s2nMHuZqrLmxfsrSoq/BxLR9otHPhb8v5dX+oYfe8VftS4dhavglsudU777WRJ/eVfgaL/aTTR9ylp/KP3YW4jjjtEtSvG1Rdp95LZZKSjReCPqZXTOT1JuoRmX7S5rf8rHEfGd/o5rcRvP3a7NEvGcGNMSydDJeqmNJODaegakOvcm4m8vtUhcvFddqJ5ZyT18I6fp1cdtVmydJt+T3YdyNxliyVKiWiW3xv4rVXR6scvfu8Xr7Ddg4NrdVPNNeWPO393ZU0ebJ1mNvilbDWy9ZqLckvVwqLpKnFYof1EXo4auX2oWbT/ZzBTrntNp93SPqksfDqR1vO6U8P4NsmFokZabXS0CaaK6GNEevpdzX1qWTBpMGmjbDSI/vmkaYqY/uRszOiHW2uQAAAAAAAAAAAAAAAAAAAAAAAAAAAAAAAAAAAAAAAAAAAAAAAAAAAAAAAAAAAAAAAAAAAAAAAAAAAAAAAAAAAAAADhzUcioqap3gVJ2kdnllibU4twvTbtv1WS4W6JvCDtljT7H2m/V5pw10qvEdByb5sUdPGPL3qpxHh/Jvmwx08Y8vfCtvMryuuQAG4Yei6K1Q9r9Xr61ILVW3yyksMbUhkjkbgAAAKejW7zGsLq2N3kpUObLG9eTlRNFbr2kpgnm5Zjw3ifq4ssbbx5sNR0z62pZFGmqqvFU6k7TvyXjHWbS5q1m07Q31CuJYPAAAAAAAAAAAAAAAAAAAAAAAAAAAAAAAAAGQseH7liavbRWqimrqlfqQt13U7XLyaneuh0YcGXUX5MVZmWdKWyTy0jeU24O2XpJEjnxNcOj61oqBdV9DpF/6qesuGk+zkz7Wqt+EfX6fmlsXDvHLP4QmnDOArBg+JG2i109I7TRZkbvSu9L11cvtLbp9Fp9JG2GkR+v590tjw48X3I2Z/Q7m5yAAAAAAAAAAAAAAAAAAAAAAAAAAAAAAAAAAAAAAAAAAAAAAAAAAAAAAAAAAAAAAAAAAAAAAAAAAAAAAAAAAAAAAAAAAAB8SRtlY5j2o9jk0Vrk1RU7FHc7qMbRuTn+TPEra+2wq3DtzeqwIicKaXm6H0c1b3ap9UpXENJ6tfmr92fl7vopHEdH6tfmp92fl7voiEiUS4Xgih43yhj6KjgZ9mNqfAreSea8z70vWNqxDvNbIAAAAHzJG2Vqte1HtXmjk1QyiZid4eTG/d8xU8cCKkcbY0XqY1EPbWm33p3eRER2dhgyAAAAAAAAAAAAAAAAAAAAAAAAAB8Tzx08TpJHoxjeblM61m07RHVjMxWN5YObFTVeraendL3uXT4Id9dHO297bOac//bDmnxUxX7tRA6L7zV109XMW0c7b0ncjPHa0M5FKyeNr43I9jk1RyLwUj5iaztLqiYmN4fRi9AJEynyfrcxqpamdz6Kxwu3ZKlE8qVyc2R69fa7knepPcM4VfX25rdKR4+fuj6+Du02ltnneelVq8NYUtWEbayhtNHHR07eKoxPKev2nO5uXvU+l6fTYtLT0eGu0f3v5rHjx0xV5aRsy51NgAAAAAAAAAAAAAAAAAAAAAAAAAAAAAAAAAAAAAAAAAAAAAAAAAAAAAAAAAAAAAAAAAAAAAAAAAAAAAAAAAAAAAAAAAAAAAAAIF2x7wyiyypKDgstfcY2oionBrEc9VT1o1PWQfF77YIr5yg+L35cEV85UxKgpwibzkTtVEPJ6QJBamiadnArKYcngAAAAAAAAAAAAAAAAAAAAAAAAAAAAAAAAAoGpYhrlqa5YdVWGFdN1F01XrX+RN6XHy05vGUfmvvbbwh0wXyppURsDYoWJ9Vsf8V5qZ209L9bbz+LCMtq9mUpK+nv7Vp6uJrJ9PJc3r9C9S9xx3x303t456Oit65vZtHV1WWWS23SSgkdqxyru+nTVFT0oZ54jLijLDHFM0vNJbIRTtcO13V056cA8XowEtG/BdjfQQx09I+iifHFGmjWorUVU9up9m0XJOmxzjjaNo/RcMO3o68vbZnztbgAAAAAAAAAAAAAAAAAAAAAAAAAAAAAAAAAAAAAAAAAAAAAAAAAAAAAAAAAAAAAAAAAAAAAAAAAAAAAAAAAAAAAAA1rMLH9ry1wzPe7u6TwaNzY2RQtR0kr3fRa1FVE15rxVNERVOfUZ6aanpL9nPqM9NNjnJfsxeVeb1kzatlTVWtJqeelejKijqURJI9fou4KqK1dF0VOxUNWl1ePVVmad48GrS6vHq6zNPDwbxvJ2na7TVO0BqA1AagNUAqHtl4sorvfbBZ6OrhqX0DJ5alkL0d0UjlYjWu05Lo1eHeVTi+Wt71pWe2+6p8Yy1vetKzvtvuroV9Xn3TpvVESdr2/xMb/dl7HeG/8AaVlLgDU9HCOR3JUVO5Rts8cnj0AAAAAD6ijfPKyONjpJHro1jGq5zl7EROZ7ETado7nfpDe7JkZjS+RtlZaFooncn10iQr+7xd8Caw8G12aN4ptHv6fy7KaPNfry7fFsC7MOLej3vCrVvfZ6d/8AHcO7/hzWbfer+c/Rv/0/L5w12+ZIYzsMbpZbO6rhbxWShek39lPK+BwZuD63BG849493X+Wi+kzU6zXf4NGex0b3Me1WPaujmuTRUXsVOohpiYnaXG+TwAAAAB2U9PLVzshgifPM9dGRxNVznL3InFTKtZvMVrG8kRMztDfbNkNjW8xtk/NTaCN3J1dMka/u8XfAm8PBNdljfk5fjO38u2miz367bfFnH7MWLWx7yVVqc77KTvT/AKh2T9nNZt3r+c/Ru/0/L5w1i/5MYxw7G6Wos0lRA3istE5J0RO1Ub5XwI7PwjW4I3tj3j3df5+TnvpM2PrNfyaUqKiqioqKi6Ki80UiHI4PAAAAABQNFuTFjuNS13PpHfxLHhnfHWY8kVfpaXnNrB9wSOiqIntXRzXIqe0wvEWrMS9rO0xMM5VaTYrhRnNit3tO5FVSOp7OlnfxdduuaNmxpyIx2B4LhZBXH84ZWWbVdXU6SU6/syORPhofVuCZOfQY/dvH5StGitzYKpEJ12gAAAAAAAAAAAAAAAAAAAAAAAAAAAAAAAAAAAAAAAAAAAAAAAAAAAAAAAAAAAAAAAAAAAAAAAAAAAAAAAAAAAAAABBu15YLje8tKWSgp5aptFcGTzxwsV7kj3Ht3tE46Irk19OpC8Vpa+CJrHaULxbHa+CJrG+0oayDyPxZihlTfaO+VuDKVEWGGrhY5Jan7SI3eb5Cdq815clUiNDos2XfJW00jz80PoNFmy75K2mkefn/AAmFclMy6b/xbN2vf2dPSb38XqS3qeqjtnn8kv6lqo7Z5/Jx/k1znpf6jM2km7OnoW/9hR6tro7Zvk89W18ds0fk4fhTPymT9VjOwVXc+mRq/wDQj0XEY7ZIn8P4PRcRjtkifw/h4Kim2iaXXcq7BWf7NI0Vf3mtMJjiceMT+TCY4nHaYlr93xHtGWxiq+1seifWoqWmmX2I5V+Bz3ycTr3j8oiXPfJxSvev5REoixvmpmbUPfQ4ju94t2/q11K6JaNHd2jWt1+JFZtVqp9nLaY+SJzarVz7OW0x8kdac+/iR6PcgdlNwqYfxt/iYX+7L2veG/dpWkuLwPRgLjUJVS1azOelHS6NWNi6LI9epV7CRxV5Iry/et4+UOS880zv2hg2Vj4J0lp0bTqnJI9dPXqvEkZxxavLfq5eaYnevRulDUpWUkUyJpvt107F6yAyU5LzXySVbc1Yl3mtmAAAG05fZd3PMW8eB0DUip49HVNXImrIWr/Fy9TevuTiSWh0GXX5OTH2jvPl/PudGDBbPbaq1+Bcr7FgCla230qPrFbpJXTojpn9vH6qdyaIfTdFw7T6Gu2OvXznv/fgsmHT48EezHXzbZqiEo6WPTEdqdU+DpcqNZ9dOiSoZva+jXU83hjzV7bshqnoPWTTse5U2HH9M5aynSnr0bpHXwIiStXq1+0ncvwInW8M0+ur7cbW847/AM/i5c2mx549qOvmqfjrAd0y+vK0FxYjmO1dBUxovRzN7U7FTrReKexT5lrdFl0OT0eT8J8JVvNhtgty2a4R7QAANxy1yxuWZF0WKnXwW3wqnhNa9urWfdan1nL2ete+W4fw7LxC+1elY7z/AHxdWn09s9to7ea12C8urHgOjSG10bWSqmklXJ5U0v4nfyTRO4+maTQYNFXbFXr5+M/iseLBjwxtSGyq5rUVV4InFV7CRdDwRYitU9R4PHcqSSfXTom1DFd7NdTzeGPNWem738F7lPWTRcwsnrFj+CSSWFtDddPIr6dqI/X76cnp6ePYqELr+FafXRMzG1vOP383Hn0uPNG89J81UcY4NueBb3JbLpDuStTejlZxjmZ1PavWnxReCnzPV6TLoss4ssdflMecK3lxWw25bMGcTUAAAADBYgs76hfCYG70iJo9ic3J2p3kjps8U9i/Zy5sU29qrWuSqi8FTqUl3C+4HrHPG5rd96Lq1umuq9XAwvG9ZiZexO07tnsdqkplfU1Oq1EnUvNEXnr3qRGozRbalO0O7FjmvtW7swcLpALO7Ll1hmwZXUHSsWogrXydFvJvIxzWaO07NdeJ9G+zmWs6a2PfrEz+U7LBw60TjmvvTSW1KgAAAAAAAAAAA4VUQBqByAAAAAAAAAAAAAAAAAAAAAAAAAAAAAAAAAAAAAAAAAAAAAAAAAAAAAAAAAAAAAAAAAAAAAAAAAcKmoDQDkAAAAcaJ2AeC9WG3YioJaK6UVPcKSRNHQ1MaPavqX+Jhelckct43hhelckct43hQHPDCdswPmjerNZ43xW+BYnRxver1ZvxterUVeOiK7hrx0KLrcVMOe1KdlD1uKmDUWx07NFOFwuY3bsjF7HIvxPLdYkjukHtKwmBT0a9d6V1O6rRWuWmqVR++1NejenanYpJ4bxbl86/OHHkrtv5SwVPTS1cqRwsV7l7OSelSRvetI3tLlrWbTtDd6GmSjpIoUXXcbpr29pXsl+e0280nWvLWId5rZgAD2We01N/u1HbaJnSVVVK2KNvVqq817k5r3Ipuw4r58lcVI6zOzKlZvaK17yuzgXBtFgTDlNaqJqKkab0sypo6aRfpPX0/BNE6j6/otJj0WGMOP8AGfOfNbcOKuGkUqiXal2s7Ds42aKn6Ft6xdXRq+htDZN1Gt5dNM5OLI0XgmnFyoqJyVU6MmSKR73Jq9ZXSxt3tPg/MPNPaRzGzkrZZcSYnrH0b3attdFI6mo406kSJioi+l6uXvOG17W7yqebVZs8+3b8PBGPRs3t5GN3vtacfaa3I/TD8nxlDjq14UosaX7GV6p7BcI1fbsMLP0sEsS8GzSJIjlZvc2tj3V00VV46HdhrbbeZWvhuHLFIyXtO09oXVOpOtYzDwNR4/w1UWypRGSqm/TVGnGGVPouTu6lTrRVI7X6Omuwzit38J8pc+fDXPSaypRcbfUWm4VNDVxrDVU0jopY1+q5q6Kh8hyY7YrzjvG0x0lU7VmszWe8POa3jKYYw7VYsxBQ2iiT+kVUiMRypqjE5ucvciIq+o6dNgvqs1cNO8/3f8GzHjnLeKV8V2sKYYocH2GltVvj6Ongbpqv0nu+s9y9aqvFT7BptNj0mKuHHHSP7utmPHXFWKVQPtX7Y9n2eKRlotsEV9xtVRdJFb3PVIaSNeUs6pxRF+qxPKdovFE4meTLFOkd3BrNdXSxyx1t/e78zMzM/cwM3q2SfFGKa+uhc5VbQxSrBSRp2NhYqN9a6r2qpw2va3eVUy6nLnne9voj1GMjdvo1rHJx30TRU79TBzP1R2DsnsdYRwPQ4mxVjK9SUd1p0mocLTTdLBBC5EVkj1kRzmvcmjkaxWoiKm9qvBJDDW0RvMrfw7BlpSL5LT18FtDoTLTM1MvafMPDEtGrWsuEKLLRzqnFkmnJV+y7kvqXqIniWhrr8E0/yjrE+/6T4uXU4Iz028fBS+eCSlnkhmjdFNE5WPjdza5F0VF70VD5Jas1ma27wqkxMTtL4MQAAAAHRPQU9UussEci9rm8fabK5L0+7OzCa1t3hzBQwUv9VCyNe1rdF9otktf707vYrWvaHca2QAA9VsudZZa6KtoKmWjq4l1ZNC5WuT19ndyNuPJfDaL452mPGGVbTSeas7SnXAu06rGx0uKqVXacPzhRs4r3vj/m32F00X2i22pq4/GP3j6fkmMPEPDLH4pxw/iu0YppUqLTcaevi6+heiub+JvNPWhccGpw6mvNhtFo9yXpkpkjek7srqh0tjkAAAAAAADF4lxFRYUslXdbhL0VLTMV7lTm5epqJ1qq6IidqnPqM9NNitlyT0hryXrjrN7doU4x3mVesfXSSorKmWCjRy9BQxSKkcTergn0ndrl+CHyjW8Rz6282vO0eEeEf3zVfNqL5rbzPTyePDGO79g+tZU2u5TxbqoroHvV8UidjmKuip8exTTptbqNLaLYrzHu8PyYY82TFO9ZXGwHi+nxzhahvEDej6dukkWuqxyIujm+pU9mh9X0WqrrMFc1fH5T4rThyxmpF4bCdzcAAAAAAAAAAAAAAAAAAAAAAAAAAAAAAAAAAAAAAAAAAAAAAAAAAAAAAAAAAAAAAAAAAAAAAAAAAAAAAANbxzmDYsu7O+43yuZSQ8UjjTypZnfZYzm5fgnWqHPmz49PXmyTs58+ox6evNknZQLM3GiZh47u2IW0q0TKx7dyBz95WtaxrE1XtVG6rpw4lF1Ob1jLbJttuoepzesZrZdtt2sHM5nC8lAkCnf0kMb/ALTUX4FZtG0zCXid4iX2YvTQ9HCNROSaDccngAAAE0bL+HG3DFVxu8rN5tvgSOJV6pJNU19TWu/eLd9nNPF89s0/4x85/hK8Ox815vPh+6weNcV0OBcI3nENyfuUFqo5a2dUXjuRtVyoneumid6ofRJnaN05kvGOk3t2h+HeZGYV3zVxxeMV3yVZblc51mc1V1bCzkyJvY1jdGond3qRVrTad5UDLltmvOS3eXZlhl5dM2Mf2PCNm6NtxutR0LJJtejiaiK58jtOOjWtc5dOK6aJzFazadoe4cVs2SMde8raZy/k1JsDZX3XEGHMXVF8utspJKqooaukZCydjGq5/RK1yq1yIiqiO11001RTotg2rvEpnPwqceOb0tvML2ZE3224lyZwRcbRIyS3TWak6Ho+TUbE1qs7larVaqdSop10mJrEwsOntW+Gk17bQ3pV0M3QcwKr7TGHW2rHFPcombsdzp95+iaIsjNGqvrarD5t9otPGLVRlj/OPnHT6K7xDHy5YtHiiIqqMTxssYcZPcLzfJGoroGtpIVVOSu8p6p6kYnrUuv2a08Wvkzz4dI/Wf2THDqbza8/BMGbOYNHlTlviLFtc3pKe00UlT0WunSvRNGR69rnq1vrL5a3LEyl82WMOO2SfB+IGLcV3XHWJ7piG+VTqy73KodU1Mzl5vd1J2NRNGonUiInURUzMzvKgXvbJab27y2HJfKe6Z35k2nB9omipamtV75KqdFVlPCxu9JIqJxXROSdaqiaprqZVrN52htwYbajJGOvisttBfk7nZTZZXHF2H8T1GIEtEPhNwoK2lZE6SFPpviVi/VTjuu11RF0XVNF33w8td4lK6nhnocc5KW327v0cwVerfiPCNlulpkZLbK2ihnpnxr5KxuYit09SnbE7xvCz47RakWr2lmT1sOaAVH2h8OMsWY09RE1Gw3KFtWiJy3+LX/FqL+0fLuPaeMOsm0drRv+PaVa12Pkzbx49UZFdR4AAAAAAAAAAAAHbSVc9BUNqKWeWmnb9GWF6scnrTiZ1vak81J2n3PYmazvDf7Fn7jSxo1jriy5xN+pXxI9f3k0d7VUnMHHNbh6Tbmj3xv8+ku2mtzU8d/i3m17VkzWo244ea9et9JU6f2XJ/MmMf2mmP8AmYvyn6uuvEp/yq2Sj2o8MStTwigulM7uiY9Pg8kKfaTSz96to/CPq6I4jinvEsjFtJ4LenlVFbH+Kjf/AC1OiPtBoZ8Z/KWca/B5z+Tt/wA47BP/AK7Ve5yf4GX+v6H/ALp/KXvr2Dz+T5XaQwUn/O6tf/k5P8Dz/X9D/wB0/lJ6/g8/k+V2ksFJ/wA5rF/+Teef8QaHzn8peev4PP5Ph+0rgxrVVJa96p1NpHar7VPJ+0Oh85/I9fw+/wDJCObOblXmTWRwQxPorNTu3oqZztXPdy336cNdOSdWq81KdxTil+IWitY2pHaP3lEanVTqJ2jpEI9IJxAFlNlW4Plw5e6JV1ZBWNkanZvs4/Fh9B+zV5nDkp5T+sfwnuHW3pavvTkXJLgAAAAAAAAAAAAAAAAAAAAAAAAAAAAAAAAAAAAAAAAAAAAAAAAAAAAAAAAAAAAAeK8XiisFsqbhcaqKioqdiySzzO3WMb2qphe9cdZtadohhe9cdZtadohGVr2osvrre47bHdpYVkfuMqqmmfHA5VXRPLVOGvaqIhHV4lprW5eb5dEbXiemtfki3y6JZRUVNU4kolXIAAAAAcagNU7QGoHTVV1PRM36ieOBn2pXo1PiYzaK95YzaK95avd83cF2JqrW4ptMKpzYlWx7v3WqqnPfV4KfevH5ua+rwU+9ePzaLftrbANpRyUlTW3mRE4JR0rkaq/ik3UOG/FdNT7szPwj6uLJxXTU+7Mz8I+qJsX7ZV+ubHw4dtNPZmLwSpqneETJ3o3RGp694i83F8lumKu3zRWbjGS3TFXb5oIv2ILnii5SXC8V9Rcq1/BZql6udp2J1IncmiEJfJfLbmvO8oPJkvltzXneXgNbWAAN1ssvTWumdzXc3V9XAr+eOXLaEninekPac7aAAAAAAAstsqwtbhe9yp9N1cjV9CRt0/ip9C+zUR6DJP8A5ftCe4dHsWn3sXt73Ca37K2Neh1RZ0pad6p1MfVRI72pqnrLXm+5LbxGdtNbb3fq/IAjVJbVlZmNcspMw7Fi+0MjlrrVP0rYZtdyVitVr43acURzHOTVOKa69RlW01neG7DlnDkjJXvC7WK9vS6Z+4e/yd5b4Gr4cX4mhfb+kramJ0dOx7FSVzFTnozeXfduo1PKVF00Oqc3PHLWOsp+/EbamvocNPat0aPZMQ53/k9aGipbzbrZfcFXSZyRUqVTpYIZ9N5zY5EajoXqiKuitVrtFVOKKpjE3w9+znrbU8NiItETWf7+D7zE/Kd4xxLY5bfhfDVFhSonZuOuMlUtZNHrzWNFY1rV7FcjtOwWzzMdIMvFsl42pXb5rkbF94rL9sxYBrrhUS1VXJRyNkmner3ybs8jUc5y8VVUanFTpxTvSE5obTbTUmXh2romra8OyfXbUTNT0KxFX+CFP+00f7eKffP6OXiX3ayrmUFBrT7METWZdzvRPKfcJVcvoaxE/gfSvs5ERo5n/wAp/ZYuHx/sz8UcflIrjPQ7M9ZFC5Wsq7rQwS6dbOkV+i+tjSw5/uNfFJmNPt74flER6nN6yRzbuWR2ZloxjbKeOtlolfHNSSuVraiF7d2RiuT6KqnFF0XRURdF5GdLTSd4dGnz20+SMlfBcPHu2XedqvD8mVmWWC62mveI4HQVlVcqqJGU9OiazbqtVURFbwV7tNEXg1XKh02yzkjlrCcya62sr6DDXrZqlozMzq/J/wAVuw3ii127EeEa5ZJKCLwpzoo3IqLIyGZG70a6u1WNzFTiqt6zGLXw9J7NNcup4btS8b1ns8Gav5SvGuN7DUWnDFjpcGJUsWOW4MqnVVW1qpovRuVrWsXT62iqnVovE8tnmY2joxzcVyZK8tI5f1Xy2Y7rU3vZ6y6rax7pKmSw0m+96qrnKkSN1VV5qunM68c71hYdJabYKTPlDQ9q+BiVuGpkTy1jqGL6EWNf5lH+00RzYrfH9kdxKOtZ+KAykIYAAAAAAAAAAAAAAA5Yiyv3GIr3/Zamq+xD2I36QMzRYJxFckRaSw3OoRetlJJp7dDrpo9Tk+5jtP4S2xhyW7Vn8mVhyhxpOmrcNVyfja1v8VQ6Y4VrrdsUtkaXNP8AjL0Jknjhf/R2o9csX/aNn+j6/wD9qfl9WXqmf/tfSZH45X/0em/+tF/2z3/Rtf8A+1P5x9T1PP8A9v6PpMjMdL/6PyeueL/tnv8Ao2v/APa+cfV76nn/AO39HLsi8dNarvzBIunHRJ4lX++P9F1//t/OPqep5/8At/Rplwt1XaK2WjrqaWkqol0fDMxWuaveikRkx3xWmmSNpjwlyWrNZ2tG0vMa3gBYnZQjVKDEr/qrNA1F70a5f5oX37Mx7GWffH7pzhva/wCCfS7JkAAAAAAAAAAAAAAAAAAAAAAAAAAAAAAAAAAAAAAAAAAAAAAAAAAAAAAAAAAAAACt22teailwvh22RvVtPWVkksrU+t0bE3UXu1fr6UQr3GLzFKUjxn9Fd4zeYx0pHaZ/RUdU1TQqqqLEZL7VCYNsUdjxVT1dwpKVu7SVtNo+VjE5RvRypvInU7XXTgvLUn9HxP0NPR5omYjtKwaPinoaejzRMxHaW+1W2jhSPXwey3mf8TImf9dTunjGHwrPy+runjOGO1Z+X1Ymo226Bqr0GEqyTs6WsYz+DVNU8Zr4Un82qeNV8Mc/mxNXttVztfBsJU7Ozpq9zv4Roap4zbwp8/4ap41bwx/P+GHqdtXFDtUhsllg/wBo6V+n9pDVPGM3hWPm0zxnN4Vj5sPVbYGPKpVSF9np9f8AVUiuX+09TTPFtRPbb8mqeL6me235fy8Eu0nmjcfJiuz2ovVS22P/ALCmE8R1du1vk1zxLWW7W+TySZj5vXdfJuWJn6/+rUr2f3I0MPWNbfxt+X8MJ1Guv42/L+HjqLfmxfNengxlWIv20qlRTCa6y/eLT+bGa6y/eLT+bHSZRY/rV3psJX2dV65qV7l/tGudLqJ70n8mqdJqZ745/JwmTGO404YNvCfhpF/kPU9RH/Tn8j1PUf8Atz+TyVeWOMaFquqMKXqJqc1WglVPg0xnTZ696T+UsZ02evek/lLX6ykqLfJuVdPNSP8As1Ebo19jkQ55ia942c8xNfvRs6jx4AAAG0YVm36F8arxjevsXj/iQ2srteJ84d+Cd67M0cDpAAAAAAAWD2U7szcxBbHO0k3oqpje1NFY7+DfaXr7M5Y2y4vhP7JvhtvvVbxtJ5fT5p5F40wzSN366tt71pWafSnjVJIk9b2NT1l2vHNWYSGqxTmw2pHeYfiOqKiqjmqxycFa5NFavWi95FKCAb3kbmzW5H5o2XGdDRx3B9A57ZaOV24k0UjFY9qO0XdXRdUXRdFROCpqZ0tyTu6dPmnT5IyRHZMm1ptpf5x2G7Thy2YemsVopKpK6d9ZM2WaaZrHNYibqaNaiPcvNVVdOWnHbky88bRDu1uv9arFK12jurHDDLUTRwwROnnkcjI4mJq571XRrUTtVVRPWc6Jjr2fuLkXgJ2V+T+EMLSadPa7bDBPouqdNu6y6ftq4laRy1iF/wBPj9Dirj8oRbtV3Zklww/bGr5cUctS9PxKjW/3XFF+02WJvixR4bz+fT6oviVutaoGKShllNle7tmw5ebYqpv09Wk6J17r2In8WKfQvs1licOTF5Tv+cfwnuHW3pavvd22Vl3UZm7OmL7XQwrPcaeBtxpY283yQPSXdROtXNa5qd6lsy15qTDo12KcuntWO/f8n4ztcjkRUXVFTVFIxRnIEmbOud1Xs/ZoUeLKe3tusCQSUlXROf0aywv3Vduu0XdcitaqLppw0XmbKX5J3del1E6bJGSI3SDtdbXX+cslit9BYZLFZbVI+oRKqZsk88zm7uq7vkta1uqIiKuquVV6kM8mT0jp1ut9a2iI2iFfLTaK3EN1orVboXVFwrp2UtNCxNVfK9yNYietUNMRv0RtazaYrHeX7sZe4UiwJgTD2HIVR0dpt8FCjmp9Lo42s19emvrJWI2iIfQsdPR0rSPCEBbUl2bVYutVvY7e8EpFkenY6R3L2MT2nzz7SZYtqKY48I/Wf4QfEbb5Ir5QhcqKKAAAAAAAAAAAB30NBU3SrjpaOnlq6mRdGQwMV73ehENlKXyWilI3mfCHsVm07VjeUt4T2Z79d2smvNTFZYHceiROlnVPQi7rfWq+gtGl+z2oy+1mnkj85+iTxcPyW63nZLFg2esHWVrVmoZLrMn+kr5Fcmv4E0b8CzYOBaLD96vNPv8Ap2SVNDhp3jf4t9ttit1nYjKCgpqJiJpu08LY/wCCE3jw4sUbY6xHwjZ2VpWv3Y2e7Q3MzdTsAaJ2ANAGgDRAI3zpytjx/Y1qKONrb7RtV1O/ksreaxOXsXq7F7lUgOL8NjXYuake3Xt7/d9Pe4NXp4z13j70KiSRPglfFIx0cjHK1zHpo5qouioqdSop8smJrO091Z226S+VXRNVPBbjZ7wpNhnAEUtVGsVVcZVq3McmjmsVERiL+yiL+0fUuBaa2n0kTeNptO/0+Sy6LHOPFvPeeqTiwpAAAAAAAAAAAAAAAAAAAAAAAAAAAAAAAAAAAAAAAAAAAAAAAAAAAAAAAAAAAAAACuW2pZ5anCOH7kxqujo650Uip9VJGcF9rET1lf4xSZx1v5T+qvcZpM4qX8p/VUQqippsyA2em5oU895vc1RR2KN6xQtp1RslS9PpaOVF0a3lrpxXVOGikzodB6zE3ydK/qmtBw/1qJyZJ2r+qdqXZKy8p9N+irqn/a18n/VVCbjhWmjwn803HCtLHhP5svT7NGW1MiaYYhlXtmqJn/xebY4dpY/w/Vujhulj/D9WUpci8v6NUWPCFp1T7dMj/wC9qbY0WmjtjhsjQ6aO2OGYpsuMKUaIkGGbPDp9igiRf7ptjT4Y7Uj8obo0+GO1I/KGUp7DbaTToKClh0/1cDW/wQ2xSkdobYpSO0Pa1jWpo1N1OxOBmzc6en2gNAGiANEAaAeeuttJc4FgrKaGrhXnHPGj2r6lQxtWLRtaN2Nq1tG1o3RPjjZbwVi2OSSipFw7Xu1VJ7cmkev3ol8lU9Gi95F5uGYMvWscs+76IrPwzT5etY5Z930VPzTygvmUtyhgunRVFHUq7wWtp18iXd01RWrxa5NU1RfUqlX1OkyaW21+09pVbVaTJpLbX7T2lpBxOIAzGF6jo658SrwkZw9Kcf4anBrK70i3k6cE7W2bUQzvAAAAAAAbblZjL9BcbUFykcqUblWCqRP9U7mv7Kojv2SU4Zq/UtTXLPbtPwn6d3TpsvockWnt4rqxSsqImPjcj2PRHNc1dUVF5Kin16JiY3ha+/V+bG3XsfXDDOILlmPgy3vrMP1z3VN2oKViufQzLxfM1qcVicurnafQcqr9FfJ4s2KYnmhV+IaGaWnNjjpPf3fwpMio5EVFRUXkqdZyoByBwqo1FVV0ROaqBe3YO2PbjV323ZmY2t8lFQUipUWS2VTFbJPL9WpkavFrG82IvFy6O4Iia9eHF/lZYeHaKZtGbLHSO0fu/RGpqIqKmlnmkbFDExXvkeuiNaiaqqr6DrtaKRNrTtELNMxEbypJmNi52OMZXG7JqlPI9I6dq82xN4M9vNe9ynx/iGq9c1Ns3hPb4R2+qpZ8vpsk3a0RzQ3zJbGzMEY5pp6h/R2+sTwWpcvJqKqbr1/C7T1KpN8I1kaPVRa33bdJ/afwl2aTL6HLEz2nouQmj29p9YWl+W22zse3DK3ENwxthOgfVYIrpHVFTBTs1W0yuXVyOan+hVVVWu5N13V0TdVeDLi5Z5o7Kjr9FOG05ccezPy/hUdF1RF7TmQoA/x09YH6GbBWx9cMP3GlzNxxQOo6xjFdZLTUs0li3k0Wplav0XbqqjGrxTVXLou7p24ce3tWWbh2hms+myx8I/dey6XKms1uqa2rlbBS08bpZZHcmtRNVU35MlcVJyXnaI6rBa0UibT2hR3GWJZsYYouV4mRWrVSq5jF+oxODG+pqJ8T45q9RbV575reM/Lw+So5ck5bzefFhjjagAAAAAAAAAAkvLHI+649bFX1TltlkcuqVDm6yTJ/7Nq9X3l4dmpYeHcGy63bJf2aefjPw+rv0+jvm9qelVm8I4EsmB6Lwa0ULKfVP1ky+VLL3uevFfRy7j6JpdFg0deXDXb3+M/GVgxYaYY2pDP6aHc3OQAAAAAAAAHHMCPMc5HYcxzXOr5mz2+4P/rKijcjel73NVFRV7+ZBa3g2m1tvSW3rbzjx+LhzaPHmnmnpLxYY2d8K4crYquVlRdp41RzErnosbVTku41ERfXqadNwHSae0Xne0x59vyY49DixzvPX4pQRNCxpByAAAAAAAAAAAAAAAAAAAAAAAAAAAAAAAAAAAAAAAAAAAAAAAAAAAAAAAAAAAAAADE4qwvbsZ2Css11g8IoKtm5IzXRU60ci9SoqIqL1Khqy4q5qTS8dJasuKuak47x0lX6PYmtaXNsj8UVr7cj9Vp0pWJKrdeXSa6evd9RBf6NTm3552+CB/0WnNvzzt8P7+ixFisdDhu0UlrttOykoaSNIoYWcmtT+Pp61J+lK46xSsbRCwUpXHWKUjaIe8zZgAAAAAAAAAAAAAIE2xrF4flpR3FrNX264RuVdOTJEVi/FWEHxenNgi3lKD4vTmwRbylTIqCnAHbSVC0lVDMn1HIq+jrMMlees182VbctolvjVRzUVF1ReSlbSzk8AAAAAAAE8ZFZ0xWuGDDV/nSOmau5RVsi8I06o3r1J9l3VyXhoXXgvF4xxGl1E9PCf2n9p/BMaPVxWPRZO3hKxiKkjepUX2KX5Oq75q7BuVOaNbPcfzVPhi6zKr5KuwyJA2Ry/WdEqLGq9qo1FXtNNsNbdUZm4dgzTvttPuQ+38lVh3wreXMC8rT6/wBWlDAj9PxcvgavV483F/o9N/vz+UJoym2Gcqspq6C5Q2iXEV4hVHR199kSoWJ32mRoiRtXsXd1TtNtcVa9Xdh4fgwzzRG8+9P73tiY5znI1rU1VyroiIbZmI6yklas9c548Qskw7YZt+3IulXWMXhOqL9Bn3Nea9fJOHP59xri8Z4nTaefZ8Z8/dHu/X4IDWauL/7ePt4oRKciQAqaoBYfIvOuF1NT4bxBUJHNGiR0VbK7yXt5JG9V5KnJFXmnDnzvnBuL1msabUT1jtP7T+yc0erjaMeSfhKfJImTxujkaj2ORWua5NUVF5oqF3TKtmZ/5PzKfMWtnr6W31WEbjMqufJYZWxQucq81gc1zE/ZRpothrZFZeG4Ms7xG0+76Irg/JVYcbVI6bH96fT68Y2UMDX6fi4p8DX6vHm5P9Hpv1vP5QnXKDYuyuyarYblbbK+73uFUdHdL1J4TNG7tjbojGL3tai95urirXskMGhwYJ3rG8+cpwmmjpYXyyvbFExque97tGtROaqq8kM5tFY3mejvmYjrKrueGcjcZSLZLNIv5lifrNOnDwp6Lw0+4i8U7V48kQ+ccZ4t63PoME+xHefP+P1V7War0vsU7fqiAqqMAAAAAAAAAAAqKqaNTVy8ETtXqHwF78JWlLFhi02/d3VpaWKFU72tRF+Op9p0uL0OCmPyiI+S44q8lK18oZc6mwAAAAAAAAAAAAAAAAAAAAAAAAAAAAAAAAAAAAAAAAAAAAAAAAAAAAAAAAAAAAAAAAAAAAAAAAAAAAAAAAAAAAAAAAAAAAAAAACJtp3ENrs2Ud4pLg7emuTUpaSFq+U+XVHI70N3d5V7tOtCL4lkpTT2rbx6QiuJZKU01q28ekKIFIUcAAbfh6r8KtzGqur4vIX+XwILVU5Mk+9I4bc1PgyZyN4AAAAAABpqBIWAs7sQ4FjjpN9t0tbOCUlU5dWJ2Mfzb6OKdxPaLjGp0cRT71fKf2nwduHV5MPTvCZ7HtMYVuLGpXsrLTKv0kli6ViehzNfiiFtw/aHSZI/3N6z8N/0StOIYrfe6NgXPXAqM3v0hg07Oik19m6d3+s6Dv6WPyn6N/rmD/ua7fdpvC9vjclvirLtMn0UZH0Ma+lz+PsRTgzfaLSY4/24m0/lHz+jRfiGKv3eqFce50Yhx6x9NLK23Wt3OipVVEen33c3ejgncVDXcX1Ot9mZ5a+UfvPj+iJzavJm6T0jyaEQjjAAAAqapxAkrAefWIcGRR0lQqXq2s0RsNS5UkjTsZJxXTuXVPQWHRcb1OkiKW9uvlPf8J+rvw63Ji6T1hMdk2lcI3FjfDXVdqlVPKbPAsjUXuczX+CFsw/aDR5I9ves++N/03SlNfht97ozjs9cCtZvfpDAvckUir7N07P9Z0Hf0sflP0bvXMH/AHNYv+07hugjc210tZdpvqqrOhj9au4+xpHZ/tFpqR/tRNp/KPn9HPfiGOv3Y3QljzNzEGYGsNZO2kt2uqUNLq2NfxLzevp4dxT9bxTUa72bztXyjt+PmiM2pyZ+lu3k0oh3KAAAAAAAAAAADZctbF+kmPbFb1bvxvqmySJ9xnlu+DfiSPDsPrGrx4/f8o6t+np6TLWq8Ccj7EtzkAAAAAAAAAAAAAAAAAAAAAAAAAAAAAAAAAAAAAAAAAAAAAAAAAAAAAAAAAAAAAAAAAAAAAAAAAAAAAAAAAAAAAAAAAAAAAAAAPBfL3RYctNXc7lUspKGljWWaaRdEa1P+OXWvAwveuOs3tO0QwveuOs3vO0Q/P8AzizSq818Xy3KRHwW6BFhoKVy/wBVHrzX7zua+pOoomr1NtVk5p7eCh6zVW1WTmntHZoxxOEAAZPDtb4LXpG5dGTJur6er/jvOPVY+em8d4b8NuW23m28g0iAAAAAAAAAAHDnI1qq5Ua1E1VV5InaeiCK/anp4a2eOkw++ppmvVscz6vcV7UXg7d3V0156alqpwG01ibZNp+H8uac0eTMZf7Q1NjLHWH7BWWtLPTXSvhon3B9V0jafpHI1Hq3dTVEVU60Nlfs/vO3pfl/LZjyRkvFJ6byvB/mnv8AOdPcf++dX/DH/wA3y/lP/wCm/wDn8v5P809/nOnuP/fH/DH/AM3y/k/03/z+X8n+ae/znT3H/vj/AIY/+b5fyf6b/wCfy/k/zT3+c6e4/wDfH/DH/wA3y/k/03/z+X8viXZU6CN0kmKWsjaiuc51FoiInNVXpB/wx/8AN8v5P9N2/wA/l/KhVftSw09fVRU1g8Kpo5nsin8M3elYjlRr9NzhqiIunecn+gf/AC/L+VdnNET0h7MM7TFLer/Q2+ssjqCGqlbD4S2p6RGOcujVVN1OGqoi8eGpoz8Etix2vW+8x122/kjNEztsmzinBeorDoAAAAAAAAAAAAAAANpyyxm3AWMaO7SQJUU7UdDM1E1ekbtEVW/eTTXv4p1knw7VxotTXNMbx2n4T5OjT5fQ5IvK6VqutJe7dT11DUMqqSdiPjljXVHJ/wAdXUfW8WWmakZMc7xK11tF4i1Z6PWbWQAAAAAAAAAAAAAAAAAAAAAAAAAAAAAAAAAAAAAAAAAAAAAAAAAAAAAAAAAAAAAAAAAAAAAAAAAAAAAAAAAAAAAAAAAAAAAAeG83qhw9a6m43KqioqGnYsks8zt1rE/46uswveuOs2vO0QwveuOs2vO0Qo9nvntV5q3HwCg6Skw1TP3ooXcH1Dk5SSJ/db1c148qZrtbOqty16Vj5+9Stdrp1VuWvSsfP3yiYikUAAADinFF0VOtAN2tNclwomSL9NPJen3k/wCNSvZsforzXwSmO/PXd7DQ2AAAAAAAAADzXOB9XbauCNdJJYJI2+lWqifFTZjmK3iZ8Jh5PWFC0jdEm49FR7PJci9SpwU+r779YRpqqcUVWqnFFauip3ooH617FW1JSZ5YIgsl5q2Mx1Z4Wx1kUjtHVsTeDalidevBHon0XdzkJHFk542nuueg1kainLafaj5+9Zg3pUA4VdAKabf+1JS4FwrWZc4crWyYou8PRXGWB3G30jk8pFVOUkjfJROaNVXcNW682bJtHLHdB8S1cY6zhpPWe/uh+ZCJomicE7jgVN78PUktwxBa6aFFWWarhYxE56q9DTmtFMVrT2iJ/R7HWV73fTcvaqnypJOAAAAAAAAAAAAAAAAG5Zd5qXnLmrXwR6VVukdvTUEyruOXrc1fqu7059aKS+g4nn0FvY61nvE/3pLqwam+CenbyWewJm7h7HsbI6SqSluCp5VBUqjZUX7vU9O9PgfRdFxTTa2NqTtbynv/AD+CwYdTjzdp6+TdddSXdbkAAAAAAAAAAAAAAAAAAAAAAAAAAAAAAAAAAAAAAAAAAAAAAAAAAAAAAAAAAAAAAAAAAAAAAAAAAAAAAAAAAAAAAAAAAHGugGkZl5w4cyuoVku1Wj617dYbdTqjp5f2fqp952iHFqdXi00e3PXy8XFqdXi0sb3nr5eKlma2c9+zZuCOrn+B2qJ29T2yBy9Gzsc5frv715dSIU/VazJqre10jyU3VazJqre10jwhoRwuEAAAAADI2K4eAVm69dIZdGu7l6lOTU4vSU3jvDdivyW69pbiQaSDwAAAAAAAAHo5gVNz5wG7CWMJK+nj0td1c6eJUTgyXnIz2rvJ3L3H0DhOrjUYIpafar0/Dwn9nFkryzujQm2lkMP4gueFL1R3iy19Ra7rRyJLT1lLIrJIndqKnsVOSpwXVD2JmJ3hlW1qTFqztK8GUv5UCtt1FBQ5i4bfdJGIjVu9kVkcj07XwOVG697HIn3UOquo/wC6Fgw8WmI2zV398fRMMn5TDKBlN0rY8SSSaa9AlrRHejVX7vxNvp6O7/VdPt4/kgbOb8pliDE1DUWzL6yrheCVFY67V72zVmi9cbE1ZGveqvVOrQ02zzPSqNz8VveOXFG3v8VLa2tqbnW1FZWVEtXV1EjpZqid6vkkeq6q5zl4qqrzVTlQUzMzvLpDxMuzfgR92vz8SVUapRW5VZT6p/WTqnNPwIuvpVOwrfGtXGPH6vWetu/w/l0Yq7zzLMJwKQ6wAAAAYy7XuO2qjEb0syprua6Iid514dPOXr2hoyZYp08WJjxRVLIiLDE5FXTdTVF9p2zo6bd5c8Z7b9met1yjuMSuZq1zV0ex3NqkdlxWxTtLrpeLxvD1mhsAAAABs+W+C5MfYupLSjnxU7kdLUTMTjHG1OKprw1VVRE71JHh+knXaiuHw7zPlDowYvTZIosDHsw4SaxEdPdHu+14S1PgjNC8x9nNHt1m35/wmv8AT8PnLD3bZVtkjXLbb5WUzuptVGyVvw3VOXL9msU/8rJMfHafo1W4dX/GyPsQbO+MLCqy0kMN3jZ5SPopN2RO/cdouvoVSCz8B1uDrSIt8O/5S4r6HNTrHX4O/DWeWL8A1LbfeYZbhDHwWmubXR1DU+69U1/eRTZp+M6zRW9HnjmiPC3Sfz+u73HrM2GeW/X4902YOz0wti7o4fDPzXXO4eDV+jNV7Gv+i7269xb9JxnSaraOblt5T0+fZLYtZiy9N9p96QkcjkRUXgvInXc+gAAAAAAAAAAAAAAAAAAAAAAAAAAAAAAAAAAAAAAAAAAAAAAAAAAAAAAAAAAAAAAAAAAAAAAAAAAAAAAAAAAAAAHGugGsY0zMw1l9SrNfbtBROVNWQa780n4Y01cvs0ObNqcWCN8ltnNm1OLTxvktsrRmRtgXS8NlosI0i2elXVv5wqkR9S5O1reLWeveX0Fc1HFr39nDG0efirep4ve/s4I2jz8VfK6tqbnWTVdZUS1dXM7eknner3vXtVy8VIK1ptO9p3lAWtNp5rTvLpMXgAAAAAADheIG14dufhUHQSL+ujTgq/Wb2+ohtVh5Lc0dpd+HJzRtPeGYOB0gAAAAAAAADB4zwjQ43w/U2mvavRS+UyVqeVDIn0Xt70+Kap1nVptRfS5Yy08PnHkxtWLRtKnOMMH3LA17ltlzi3JG+VHK3+rmZ1PYvWnxReCn0fTanHqscZMc/wAe6XBas1naWEOpiAAAADacvMvbhmJfG0dIiw0kao6qrFbq2Fn83L1N6/QcGs1lNHj57d/CPP8AjzZ0pN5XFsFiosNWeltlvhSCjpmbkbete1VXrVV1VV61U+c5ct895yXneZd8RERtD3ml6AAAADQ66R01bO9/0lev8SyY4itIiETed7TMuheKcOZsYNmgatNiGJqcHTQIsqfe05/AiLTz6eZ8p6O+PZyx74Z0j3UHgAAAFpdm7A/5hwtJe6mPdrLro6PeTi2BPofvLq70bp9J+z+j9BgnPeOt/wBPD8+/5LDoMPJTnnvP6JhLUlADhU1Ax95w/bcQ0q01zoaevgX6lRGj0T0a8vUaMuDFnry5axMe9helbxtaN0T4r2YrHc0fLZaqazzLxSF/66Be7RV3k9q+grGq+zuDJvOC01ny7x9fmjcnD8dutJ2aOlrzSydVVpXS3C0x8d2HWqp9PwL5bPVoQ/o+K8K+57VI/wDtH5d4cfLqtL26x+cNywjtPWqv3Ib/AEUlqm13VqINZYde9PpN9iktpftHhv7Ooryz5x1j6x83Xi4hS3TJGyX7Nf7diGjbVW2tgrqdf9JTyI9E9OnL0KWnFnx568+K0THuSdb1vG9Z3e83s3IAAAAAAAAAAAAAAAAAAAAAAAAAAAAAAAAAAAAAAAAAAAAAAAAAAAAAAAAAAAAAAAAAAAAAAAAAAAalj/NHDmWdCyovtelO+TXoaaNu/NNpz3WJx9a6InacufU4tNG+Sfq5c+pxaaN8k/VGtm2xMF3K4JT1dNc7VC52jaqoha+NO9245VT2KR1OLYLTtaJhG04vp7W2tEwmy13ajvdBDW0FVDW0c7d+OeB6PY9O1FQma2reItWd4TVbVvEWrO8PWZMnRWV1Pb6Z9RUzx09PGmr5ZnoxjU7VVeCHkzFY3mXkzFY3mUO422rsF4X6SG3zS4jrG8NygTSJF75XcP3d4iM3FMGLpX2p931RGbimDF0r7U+76oCxttUY2xX0kNDPFhyidw3KBNZlTvldx/dRpB5uJ58vSs8se76oHNxTUZelZ5Y931RG99Tda9XOdPXV068VVXSyyL8XKRXW0+conrefOUjYW2b8f4qRkjLKtrpnf6a6PSDh27nF/wDZJDFw/U5evLtHv6fykcXDtTl68u0e/p/KVsP7E6q1r75idd760VuptE/feq/3STx8G/8Acv8AlCUx8F/9y/5N8teyNl/QbvT09wuKpzWprXIi+pm6d1eFaavfefx+jurwnTV7xM/j9Gfi2bst4W6JhWld3ySyuX4vN8cP0sf4fq6P9O0sf4fq+Z9mvLeoaqLhenZr1xTysVPY8Tw7Sz/h+ryeHaWf8P1azd9j7A1e160b7pa3ryWGq6RqeqRHfxOa/CdPb7u8fj9XNfhGnt93ePx+qN8S7Ft4pGvksN/pbgiJqkNdEsD17kc3eRfYhH5OD3jrjtv8eiOycGvHXHbf49Ferjbqm0XGqoK2F1PWUsroZonpxY9q6Ki+sgLVmkzW3eEBas0tNbd4ecxYgH3BO+lnZNGu69i6opjesXrNZexM1neG7W+vjuFM2VnDqc37K9hX8uOcVuWUpS0XjeHpNLMAAAAAAAAAYPF+C7Tji1OoLtTJNGiq6ORq7skLvtMd1L8F60U69Pqculvz4p+k/FjasWjaVbsbbP2IsNSSTWyNb7bk4o+nbpOxPvR9fpbr6ELnpeL4M8bZPZt7+35/VyWxTHZGM0b6aV0UzHQytXRY5Gq1yelF4k5ExaN46w0vk9HbR0s9wnbBSQyVU7l0SKBivcvqTiY2tFI3tO0HdLOBtnO9XySOov6uslBwVYeC1MidiN5M9LuPcV/VcZw4omuD2p+X8t9cUz3WNw9hu3YVtUVutdKykpI+KMbxVy9bnLzc5etVKbmzZNRecmSd5dURERtDJGhkAAAAAoGsXuzujqnVDGPfA9d56R/SavXw7CX0+eJryTPWHDlx7TzR2eejlt9I9JGsqKudPoscxGoi/E23jNeNpmIhhWcdZ3jeZZm00M7qiWuq03Z5E0az7KHBmyV5YxY+0OnHW283t3ZY4nQAAAG3ZWYFkzAxfTW9Wr4BH+urJE+rEi8U17XL5KelV6iV4bop12ojH/jHWfh/PZ06bDOfJFfDxXUghZTwsijY2ONjUa1jU0RqJwREPrsRFY2ha4jbpDsPXoAAAAONANRxblRhjGe8+4WyNtU7/ndN+qmTv3k5+vUi9VwzS6vrkp1846T/AH4ubLpsWX70dURXjZ3xFhWsdcMHXt8kjeKRuk8Hn9G8nku9ehVsvAdTprek0WT9p/PtPyRltDkxzzYbfs67bn1i7A9WygxjZn1GnDpHx+Dzqnai6bj/AFaekxx8b1mjt6PW49/lP0l5XW5sM8uav7JYwnnJhXF6NZTXJlLVKnGlrf1Mnq14O9SqWfS8W0mq6VvtPlPSf78Elj1WLL2nafexWOc/MOYPlWmge69VyL5UNE9u4z8T+SL3Jqpzazjem0k8tfbt5R+8tebW48XSOss3lxmha8yaGaWibJTVVOqJPST6bzNeSoqcHNXRePd1HZw/iOLiFJmnSY7xLbg1FNRG9e8NyJV1AAAAAAAAAAAAAAAAAAAAAAAAAAAAAAAAAAAAAAAAAAAAAAAAAAAAAAAAAAAAAAAAAAAAAAOFA/NzMfF9XjrG93vNZI57pqh7ImKuqRxNcqMYnYiIntVV6z57qMts+W17PnWozWz5bXt/Ya2cznbdl9mtiXLGsdLY69WU8jt6WhnTfp5e9W9S/ebop14NVl00745/Dwden1WXTTvjnp5eCU7ttm4orLd0NDZrbbqtyaLVK582ne1i6InrVSTvxfNNdq1iJSd+MZprtWsRKGsWY7xBjeoWe/3iquSouqMmk0iZ+FiaNb6kIjLnyZp3yW3Q+XPlzTvktuymDMocXY/c11mslRLTO/55OnQwJ+27RF/Z1NmHSZs/3K9PPwbcOkz5/uV6efgnzBOxjSQbk+Kry+rfzWitqdHH6Fkd5S+pGk5h4PEdc1t/dH1T2Hg9Y65rb+6PqnnCeXmG8DU6RWKzUlu4aLJFHrI78T11cvrUnMWnxYI2x12TmLT4sEbY6xDYtDodDkAAAAAOAKtbXGUi6pji1w66I2K6RsTq5Mm/g137K9SlZ4rpf/6Kfj9VY4tpP/6Kfj9VXStKyAAPVbLi+21CPb5Ua8Hs7U/xNGbFGWu092zHeaTu3SnqGVMLJY3I5jk1RUIG1ZpM1nukomLRvDsMGQAAAAAAAAAaAeK5WS3Xlu7cKClrk/8AeYGyfxQ20y5Mf3LTHwl5MRPdhkyxwi2TfTDNq3u3wVp0+varbb0k/mx5K+TOW+10Vpj6OhpKeiZ9mmibGn9lEOW+S+Sd7zM/FlERHZ6tNDW9AAAAAAAAAHCNRF16+093HPI8AAAAATbs95k4fwpHPaLlElvqaybf/OT3axycNGsf9hE46Ly4rroXDgXENPponDljlm0/e8PhPl+iW0Oox496W6b+Ky7HtkajmqjmqmqKi6oqH0KJ36wn30egAAAAAAAB5LlaaK8Uj6WupYaymf8ASinjR7V9SmrJiplryZKxMe9jatbxtaN0KZn7PFmZY7hdLA2ShqqaJ0/ge9vwyI1NVREXi1dEXTRdO4qPEeA4IxWy6fpMRvt4T9ETqNDTlm+PpMeCtzdNE05dWh8/QKfNlWzTLWX66qitp0ZHSNXqc7VXu9ibv7xd/s1inmyZvDpH7prhtJ3tf8Fiy+JwAAAAAAAAAAAAAAAAAAAAAAAAAAAAAAAAAAAAAAAAAAAAAAAAAAAAAAAAAAAAAAAAAAAAABwvID81ceWGTC+N79aZE0dSV00ad7d5VavraqL6z53np6LLak+Ey+c58fostqT4TLBGhoAN6yfymrs3MSvt9PN4HQ0zElrKxWb3RtVdEa1OtztF0TuVeo7tJpbaq/LHSI7y7tJpLau/LHSI7yt9gjZywPglY5orWl1rmcfC7mqTORe1rVTdb6kLXh4fp8PWI3nzlbcPDtPg6xXefOeqTmsRjURERERNEROSEkkn0AAAAAAAAAAea40tNXUNRT1kcctJLG6OaOVNWOYqaORderTUxtEWiYt2Y2iLRMW7PzSxPFbIMS3WOyPkks7KqRtG+VdXOiRyo1VXr4cl7ND51kikXtGP7u/R84yxSMlox/d36Maa2sAAe+0XZ9sl0XV8Dl8pnZ3p3nNnwRlj3tuPJNJ9zcIJ2VETZI3I9jk1RyEHas1nae6SiYmN4fZg9AAAAAAAAAAAAAAAAAAAAAAAAAAAAAJZy2yEqcc4XqbrVVb7YsyaW/Vm8kmnN7057q8k04817NbRw/gltZgnNe3Lv936z7v/ANSWn0U5qTeZ28mg4twZd8EXRaC70joJF1WOROMcre1jutPinWiEHqtJm0d/R5o2/Sfg4suK+G3LeG25ZZ3XXATo6Op37nZEXTwZ7vLhTtjcvL8K8PQSnDuMZtFtS/tU8vGPh9O3wdWn1d8Psz1qtJhXF9qxna2V9pq21UC8HInB8bvsvbzavpPpGm1WHV09JhtvH6fFYceWmWvNSWaOttAAAAAAAAPiWNs0bmPajmuRUVF5Kh5MRMbSd1abxsu3pt5kbbLhQutb5FWN9Q5zZIma8EVqIu8qcuCprp1Hz3L9m8/pJ9FaOX377xCAvw6/N7MxsnrA+D6PAuG6W0USq9kKK58rk0dK9eLnr6V9iaJ1F20ekposNcNPD5z5pnDijDSKVZ87W4AAAAAAAAAAAAAAAAAAAAAAAAAAAAAAAAAAAAAAAAAAAAAAAAAAAAAAAAAAAAAAAAAAAAAAAp/ti4DfbMT0GK6eNfBbixKWpcicGzsTyVX8TOH7BU+L4OXJGaO09J+KpcXwcuSM0dp6T8VdyAV8AutshYXSzZYOub492e71T597rWNn6tnq8ly/tFx4Ti5MHP8A90/wufCcXJp+ef8AKU5E0mgAAAAAAAAAA4VdAK27UWeUdroqnBliqN+41Ddy41MTv/F41TjEip9dyc+xq9q8K9xPWxWJwY56z3+iu8T10UicGOes9/d7lSUTTgVVVDVNdNeIHIAAB7bXdZbZLw8uFy+VHr8U7zmzYK5Y97bjyTSfc2+kq4q2FJYno5q+1F7FIS9LY55bJGtotG8O41sgAAAAAAAAAAAAAAAAAAAAAAAAAAJKyZynlzAuqVldG5lgpX/rncunenHomr/eXqThzXhYeEcMnXZOfJH+3Hf3+76u/Saac9ua33YW4ggjpoWRRMbHExqNaxiaI1ETREROpD6jERWNo7LLEbdIY7EeGLZiy1yW+60kdZSv47r04tXqc1ebV70OfUafFqqTjy13hhkx1y15bxvCsGZ+RNzwSs1wtvSXSyJqqvRNZoE++ic0+8nrRD51xHguXR75MXtU+cfH6q9qNHbD7VesNCwxiq6YPujLhaKt9LUJwdpxZI37Lm8nJ/wmhCafU5dLf0mG20/r8fNx48l8VuakrQZbZ8WfGcTKW4vis93RNFilfpFL3xuX+6vH0n0bh/GsOrjkyezf5T8J/ZYcGspl6W6S3e74zsVhp1muF3oqRiJr+snair6E11X1Exl1enwRzZLxH4uu2XHSN7WiEb3vadwzQSujoKauuqov9ZGxImL6FeqL8CAzfaLS452xxNvlHz+jgvxDFX7sTLN4Cz0w/jqtbQNSa2XF/wDV09XppL3Mci6KvdwU69FxnT623o49m3lPj8JbsOsx5p5e0pGRdSfdzkAAAAAAAAAAAAAAAAAAAAAAAAAAAAAAAAAAAAAAAAAAAAAAAAAAAAAAAAAAAAAAAAAAAAAAAAAAAAAABgccYNt2PsMV1jukavpapmm836Ubk4te1epyLoqGjNhrnxzjv2lozYa58c479pUcxxs+41wTc5YPzPU3ii1/VV1uhWVj29Sq1urmL2oqehVKZm0GfDbbl3jzhSs+gz4bbcu8ecPTgTZyxpjS5QR1FqqLFbVcnTVtwZ0atb17jF8pzuzhprzUywcPz5rda7R5yywcOz5rRE15Y85XosFkpMN2WhtVDH0VHRwsgiZ2Namia9ql1x0rjrFK9oXelK46xSvaGQM2YAAAAAAAAA4VdAK6Z+7S8WHm1OHMJVDZ7vxjqbjGqOZSdrWdTpO/k3vXglf13EYx74sM9fGfL+Ve1/Eox74sM+14z5fyr1l7lDirNasdJa6V3givVZrpWOVsKOVeK7y6q92q8UbqvboQOn0mbVT7EdPOUBp9Jm1U70jp5ys1gnZEwlYoo5b4+fEdZpq5JXLDTovcxq6r+0qljw8Kw065Pan5LJh4Thx9cntT8myY+2eMJ4swnJa7faqKxVcfl0tZR07WOY/ThvacXtXkqL6U4odGfQYcuPkrWKz4TDpz8Pw5cfJWsVnwmFIcWYTumB79U2e80zqWugXinNr29T2L9Zq9S/zRUKblxXw3ml42mFKy4r4LzS8bTDEGlqAAHdR1s1BL0kLtF62rycnehryY65I2syreaTvDbbZeYbi3dRejm641/l2kJmwWxe+EhTJF/i95zNwAAAAAAAAAAAAAAAAAAAAAAAAbPlthCPHWMqCzy1K0sMu8+R7U1crWpvK1veqJz6uZJcP0sa3U1w2naJ/Z0afF6bJFJldKzWejsFsprfQU7Kajp2IyOJicET+a9evWp9cxYqYKRjxxtELXWsUrFax0e02sgDhURUAhXNDZ5pL901yw2kdvuS6vkpF8mCde77DvgvWicyo8S4FTPvl03s28vCfpPyRWo0MX9rH0lWqvoJ7bWT0dZA6nqYHrHLDImitcnNFQ+e3pbHaaXjaY7oC1ZrO093QjGouqNRF7UQwYuQ9fUb3RSMkje6ORio5r2LorVTiiovUqHsTMTvB27Ls5W4knxbgKzXSqVFqpYd2ZyfWe1yscvrVuvrPsHDdRbVaTHlt3mOvxjotunyTlxVtPdtZJOgAAAAAAAAAAAAAAAAAAAAAAAAAAAAAAAAAAAAAAAAAAAAAAAAAAAAAAAAAAAAAAAAAAAAAAAAAAAAAAAcaANEA5AAAAAAAAAAOitrae3UstTVTR01PC1XyTSuRrGNTmqqvBEPJmKxvPZ5MxWN5noqbnNtLV2Mql+GMC+EJSTu6B9dAx3hFYq8NyFE4tavb9Je5OdW1nEbZp9Fp+3n4z8FV1nErZp9Dp+0+PjPwZXJ/ZJa1sF1xw1HLwfHZYneSn+2cnP8DeHaq8jbpOFdr6j8vq26ThXa+o/L6rO0dFT2+lipqWCOmp4moyOGFiNYxE6kROCIWSIisbRHRZYiKxtEdHeevQDRM2cobPmxY/Ba5vg1fCirSXCNqLJA5er7zV62rz7l0U4tVpKaqm1u/hLh1Wkpqqctu/hKimPMAXrLe/SWm903Qypq6KdmqxVDPtsd1p3c05KhSc+C+nvyZI/lSM+nyaa/Jkj+WunO5wAARVa5FaqtVOKKi8UExv0GdtuJnR6R1aK9vJJWpxT0p1kbl0kT1x/k66Z9ul2xQzx1EaPje17F5OaupGWrNZ2mHZExMbw+zB6AAAAAAAAAAAAAAAAAAAAAx9xvVPb0Vqr0kv+ravH19h1YtPfL1jpDTfLWnxezKfGM1szYwtXzy9FTtrmRPai6Na2TWNVXt+mWPh9KabPS0eff49GOmz2jU0tPbf9ej9CU5H0ZfXIAABwBVLaXt0dFmOyaNqNdV0UUr9OtyK5mvsansPmf2hxxTWc0eMRP6wrnEKxGbfzhE5WEaAfTGOke1jGq97lRrWt4q5V5Ih7ETM7QLwZdYcdhLBNntUn9dT06JL/tF8p/8AaVT7HoNPOl02PDPeI6/HvK3YMfosdaT4NkO9vAAAAAAAAAAAAAAAAAAAAAAAAAAAAAAAAAAAAAAAAAAAAAAAAAAAAAAAAAAAAAAAAAAAAAAAAAAAAAAAAAAAAAAAAAAAa9jfHtly8skl0vlY2lp28GMTjJM7qYxvNy/8LohozZ8enrz5J2c+bPj09OfJO0Km4gxdjjakxEtnstK6hw9C9FdArlSGJNeElQ9PpO60Ymvci8yrZMuo4nfkxxtX+91WyZtRxO/Jjjavy/H6LFZSZF2HKmlbLAz84Xt7dJrnO1N/vbGn1G9ycV61UsGl0WPSxvHW3msGk0OPSxvHW3mkjTQkEi5AAAAGu44wFZcxLHJa73Rtqqd3lMenCSF/U9jubXf/AOLqhz5sGPUU5MkOfPgx6inJkjopNm9kLfcqah9SqOueH3O0juMTf6vsbK1PoL3/AEV7U5FO1ehyaWd+9fP6qZq9Dk0s796+f1RkRqNAAADtpquajk34JFjXr05L6U6zC+OuSNrQyraazvDPUOKWO0bVM6Nfts4t9ac0IzJo5jrSd3XXPE/eZuGojqGb8b2yN7WrqcFqzWdrQ6omJjeHYYPQAAAAAAAAAAAAAAAB4a280tDqj5N5/wBhnFf9x0Y8F8naOjVbJWneWv12Iqmr1bH/AEeNepq+Uvr/AMCTx6WlOtusuS+a1ukdGKO1zuUc5io5jlY9q6tcnUqcl9oPg/SHLTFseOcCWS9sciuq6ZrpUT6sqeTInqcjkPoWmy+nxVyecPommyxnw1yecNnOl0gAABWHangc3GVomVFRj6DcRe9sjtf7yHzv7S1mNTS3/j+6v8Rj/crPuQuVBFAE1bO2WT71dGYnuEX/ACfRv/ojHpwmmT6/4WfF34S38B4dOa/rWSPZr298+fwj9fgldDp+e3pbdo7LNomh9EWByAAAAAAAAAAAAAAAAAAAAAAAAAAAAAAAAAAAAAAAAAAAAAAAAAAAAAAAAAAAAAAAAAAAAAAAAAAAAAAAAAAAAAAAAAHGugEW5x5/WXKqmfSt3bniB7NYrfG/RI9eTpXfUb3c16k6yM1eux6WNu9vL6ozWa/HpY2728vqgzBmVOMNom+sxRjGsno7I5f1TtNx0jNfoU7F4MZ99ef3l4kLh0ubiF/TZ52r/e31QmHS5+IX9Nnnav8Ae31WvwvhS1YMs0Fqs1FFQUMKeTHGnNetzl5ucvWq8VLRixUw15KRtC04sVMNYpjjaGXNraAAAAAAA6qimiq4JIZo2TQyNVj45Go5rkXmiovNDyYiY2l5MRMbSqntEbOVowvYa/FuHXrQU9OrXVNsVN6PRz0bvRrzborkVW8U05aciscQ4fTHSc2Lpt3j6KvxDh1MdJzYum3ePorQVxWwAAAAfUM0lO/fikdG7tauhjatbRtaN3sTNesMtS4nqItEmY2dO1PJd/gcV9HSfuzs6K57R36stT4jo59Ec90LuyROHtQ4raXJXtG7ojNSfcyMU8c7dY3tena1dTlms17w3RMT2fep49DwAAAAAAHoageWoulLS/1k7Gr9lF1X2Iba4cl/uw1zete8sXU4qjbqkELpF+0/yU9nM7KaO0/fnZotqI/xhk8F4JxdmvcFpbLSvfA127NUrrHTQ/jf1r3JqvcS+l4dOW22Ku/vllixZ9XPLSOnyTRX7E0iWiFaLFCLdEZ+tbUUukDnfdVq7zU9Ov8AIsluDTy+zfr8OiWtwX2fZv1+HRDOOck8Y5eI+W62h8lC3/n9EvTQadqqnFv7SIQ+fR59P1vXp5x2Q+fRZ9P1vXp5x1hoqKipqnFDicTkCz2xtmEkU1ywdVyab6rXUO8vNeCSsT4O0/EWThGfaZwW+MfusvB9Rtvgt8Y/daos60AAABo2bGWUGZVkjgSZKS40rlfS1Dk1aiqnFrk+yuicuWiL3ENxPh1eIYorvtaO0/t8HJqdPGort2mOysV4yhxjZKt0EtgrKjRdElo2LNG7vRW/z0PneXhWtw25ZxzPw6x8lftpc1J2mrccu9na73yrjqsRxPtNsaqOWnc5EqJu7RPoJ2qvHsTrJXQcBzZrRfUxy18vGfp+rqwaG953ydI+aztvoKe10UFJSQsp6aBiRxxRpo1jU4IiIfRaUrjrFKRtEJ+tYrG0dnoM2QAAAAAAAAAAAAAAAAAAAAAAAAAAAAAAAAAAAAAAAAAAAAAAAAAAAAAAAAAAAAAAAAAAAAAAAAAAAAAAAAAAAAAAAcagfMkrImOe9yNa1FVznLoiJ2qOx2Vrzg2oJJat2GsvkdX3CZ/QOucLOk8peG7Tt+u773JOrXmld1fEpmfRabrPn9Fc1fE5mfRabrPn9Hbk7svdBUsxHjz/AJRucj+nbbZX9I1rl4707uPSP+7xROvXq90nDdp9LqOs+X183uj4ZtPpdT1ny+vmsgxjY2o1qI1ETRETkhYVifQAAAAAAAAABHO0Puf5F8W7/LwNdPTvN0+JH6//APy3+CP4h/8A5cnwfn6vMoihAAAAAAAABqqxdWqrV7UXQ8mN+52euK8VsP0al6p2O8pPiabYMVu9WyMt48XrjxPWN+k2J/pbp/A0To8c9t2yM9/F3sxZJp5VMxfwvVDXOijwsz9Ynxh2Ji1vXSu9Un+4x9Sn/u+T31iPJz+ljP8A1Z/76f4HnqU/93ye+sR5Pl2LV+rS+2T/AHHvqX/l8nnrHudL8VVDvowRN9KqpsjRU8ZljOot4Q80mIa6TlK2NPuMRDbGlxR4btc5rz4vHNWVFRr0s8j+5zl0N9cdK/dhrm1p7yzWD8AYhx7WeDWC01Fwci6PlY3dij/FIujW+3U68WDJnnbHXdtw6fLnnbHXdZTLjY8oKBYq3GNYlznTR35uo3KyBO57+Dn+hN1PSWLT8JrX2s87+6Oyx6fhFa+1nnf3R2WKtdpo7LQw0VBSw0VJCm7HBAxGMYncicCwVrWkctY2hYa1rSOWsbQ9ZkyfLmI5FRURUXgqL1gQrmlsuYcxsyatszWYevTtXb8DP6PM778actftN0XtRSG1PDMWb2sfs2+SG1XDMWf2sfs2+SoWNcCXzLy8utl9oXUk/F0b08qOZv2mO5OT4p1ohVM2DJp7cmSNpVLNgyae3JkjZ4MPX6twtfaC8W6Xoq2imbNE7q1TqXuVNUXuVTDHe2K8Xr3hhjyWxXi9e8P0Vy/xtQ5hYSt99t7v1VSzy4lXV0MicHxu70XVPYvWX/BmrqMcZK+L6DgzV1GOMlfFsZ0OgAAAONAGmgHIAAAAAAAAAAAAAAAAAAAAAAAAAAAAAAAAAAAAAAAAAAAAAAAAAAAAAAAAAAAAAAAAAAAAAAAAAAAAAAAAAAAAAAAA4XkB+eOYmaGJ8T42uVfU3Wuo5IamSKCmp6h8TaZrXq1GtRqpoqacV5qupQdRqcuXLNptMdfyfP8AUanNlyzabTHX8hmYmO8fNosKTYjrq6G4Tx0raeaVESRznIiI9yJvObqqaoqry6x6xqM+2GbzO/Q9Y1GfbDN5nfouDk/kPZMqaRtQxEuN+ezdmuUrdFbrzbEn1G/Feteotmk0OPSxv3t5/RbtJoceljfvbz+iTdNCSSTkAAAAAAAAAAAQvtaX5tpyhqqTeRJLnVQ0rW9aojukd8GfEh+K35NNNfOYj90PxXJyaaa+cxH7qPFMUpvOV2T9+zXuTobZGlPQQuRKm4zovRRdyfad91PWqIdum0mTVW2p283bpdJk1VtqdvGVtcJbMGBcN2l9LV2xt+qZmbs1XcOLl/AiaJH+zx71LTi4bp8ddrRzT5z/AHoteLhmnx12tHNPnP8AejSMZ7GVprVfPhm7zWuReKUtanTw69iO4Panp3jjzcHpbritt8erizcHpbritt8eqCceZD4yy7pJq2521k1shVN+vo5UkibqqIiqnBzdVVE4p1kJn0OfTxzXjp5wg8+hz6eOa8dPOEfnA4AAAAAAAAAA5Jr1AcI5HJqioqdqB45D0SN0zmxx8ZHqjW+leCfFR3Nt+kP0xwlh+DC2GbZaadjY4qOmjgRGJoiq1qIq+lV4qvefRsWOMVIpHg+kYscYqVpHhDLm1tAAAABgMa4Gs2YFjltV7o21dM/i13J8Tup7Hc2uTt9uqGjNgpnryZI3hozYMeopyZI3hRjOHJi7ZSXdGzb1bZahypSXFrdEd17j0+q9E6uS8060SlavR30tuvWs9pUnWaO+kt161ntLNbOmcS5ZYmWiuMyphy5Pa2oVeKU8nJs3o6nd2i/VN3D9X6tflt92fl727h2s9Wyctvuz8vf9V6Y5Gysa9jkexyao5q6oqdqF27rv3fYAAAAAAAAAAAAAAAAAAAAAAAAAAAAAAAAAAAAAAAAAAAAAAAAAAAAAAAAAAAAAAAAAAAAAAAAAAAAAAAAAAAAAAAAAAAAABwvECou1DkdVW28VOMbFSvnt9W7pLjTwt3nQS9cqIn1Hc17F1XkvCq8S0U1tOfHHSe/u96p8T0U1tOfHHSe/u96L8h8P1+I81sNrb6d88dHWx1dRKxNWQxsXeVXLyTlonaqkZocdsmopyx2ndGaHHbJqKcsdp3foUnIvq/uQAAAAAAAAAABwBTnbGxkl3xpbsPQv3obTAssyJ/rpdF09TEb++VLi+bnyxjj/AB/WVQ4xm58sYo/x/WUcZPZU12bOKm2+FX09tp9Ja6san9VHrwa377tFRE9K8kI/SaW2qycsdo7yj9HpbavJyx2jvK/WGsNW7CVlpbVaqVlHQ0zNyOJie1VXrVV4qq8VUvGPHXFWKUjaIXvHjripFKRtEMobWwA1fNC2Q3jLnE1JM1HMlttQnHqVI1VF9SoinNqaxfBes+UubU1i+C9Z8pfnlhLDVfjW/wBus1sjSWurnoxiL9FvDVzndjWoiqvchQsWO2a8Ur3l8/xY7Zrxjp3lcel2R8CNsdJR1MNZNXRs0luEVU6N8rutd3i1E7E04J2ltjhWn5IrO+/nuuEcJ0/JFZ33892uXTYpsczlW3YkuVInU2ohjmRPZuqc9uDY5+7eYc1uDY5+7eY+f0Rpmhst3nLzDdRe6W6RXukplRaiOOnWKSOPrk03lRUThr2Jx6lI7U8Mvp6Tki28QjdTwy+npOSLbxCEyGQwAA4VdEAtPlhsiW25YZorji2e4RXGpb0q0FNI2JsLV4ta5d1V3tOfFNNdOos2m4VW1Itmmd58Fn03CaWxxbNM7z4JbsOzxl9h5zHwYapamVv+krldUr/bVU+BK00Gmx9qfn1S2Ph+mx9qfn1/Vg85NnSy5g2xai009PZr/BHpBNDGjIpkTlHI1qcupHJxTvTgaNXw/HnrvSNrR/erRrOH49RXekbWj+9VJbtaayw3Sqt1xp30ldSyLFNBInlMcnV/PXkqKioU69bUtNbRtMKXelsdpraNph2Ye3f0itG/9Dw2DX0dI3U9x/fr8Ye4/v1+MP04TkfR30pyAAAAAADGYkw3bsWWWqtV1pWVlBUs3JInpz7FRepUXiipxRTXkx1y1ml43iWvJjrlrNLxvEqF5z5P1+UuIeger6qzVSq6irVT6SdbH9SPb19qcU60Sj6zSW0t9u9Z7Sous0ltJfbvWe0pg2XM9dzwXBN/qOH0LXVyr7IHL/cX9nsJbhut7YMk/D6fRL8M13bT5J+E/t9FpkXUsyzuQAAAAAAAAAAAAAAAAAAAAAAAAAAAAAAAAAAAAAAAAAAAAAAAAAAAAAAAAAAAAAAAAAAAAAAAAAAAAAAAAAAAAAAAAAAAAADhU1A6KWgpqFrkpoIqdHLvOSJiNRV7V0MYrFe0MYrFe0PQZMgAAAAAAAAAAAYzE2IKTCuH7hd65+5SUUD55F61Rqa6J3ryTvU15MlcVJvbtDXkyVxUm9u0PzkrKm65i4zmnbE6qvF5rFc2FvXI93BqdiImidyN7j59M31GXfvNpfPJm+oy797WlfrKbLaiyuwdS2in3Zalf1tZUonGeZU8p3oTkidSIhedLp66bFFI7+PxXvS6aulxRSO/j8W6HY7AABqGbt0bZ8sMVVbl03LZUInpcxWp8VQ5NXbkwXn3S5NXbk097e6UD7F+Bmoy8YrqI9XIqW6kcqckREdK5P7DfUpCcHw/ezT8I/dB8GwfezT8I/dacsyzgHXUQR1MMkUrGyxSNVj2PTVrkVNFRU60PJiJjaXkxExtL8+88ss3ZXY8qaCFjvzTVJ4TQPXj+rVeLNe1i+T6N1esomt03q2Wax2nrH99yha7Teq5prHaesf33I/OBwAEzbLuWLcc44W610KSWiyq2ZzXJq2WdeMbO9E0V6+hvaTHDNN6fLz27V/XwTHDNN6fLz27V/XwXhRNC5rq5AAV02tMpmXqx/pjbYE/ONuYja1rE4zU/wBte1Wc/wAKr2IQHFNLz09PWOsd/h/Cv8V0vPT09O8d/h/CobJnUz2zN+nE5JE9KLqn8Cqb7dVS326v07s9wZdrVR10fGOphZM1U7HNRU/ifR6W56xaPF9KpbnrFo8XsM2YAAAAAADAY3wVbMf4bq7LdoelpahvByfTien0XsXqci8UX1clU0ZsNM9Jx37S0ZsNNRScd46S/P3MbL665YYpms9yRd5i9JTVbEVrZ49fJkavUvDinNFT0KUTUYL6bJNLf/qhajT302SaW/D3rV7NueqY9t7cP3udP0jpI9WSvXTw2JPrfjT6ydf0u3Sz8O1vp6+iyT7UfP8AlaeHa709fRZJ9qPn/KdibTYAAAAAAAAAAAAAAAAAAAAAAAAAAAAAAAAAAAAAAAAAAAAAAAAAAAAAAAAAAAAAAAAAAAAAAAAAAAAAAAAAAAAAAAAAAAAAAAAAAAAAAAAAAAAVl2x8w/BbbQYOpJf1tWqVlcjV5RNX9WxfxORXfsJ2lc4vqNqxgr49ZVvjGo2rGCvj1n9nn2Qcq0ZFLje4w+XIjqe2NenJvKSVPTxai9iO7THhOl//AKLfh+8seEaXp6xb8PqtEWVZgAAAhja0vv5nyerafXR1wqYaVE61Te6R3wjX2kRxW/JppjzmI/dD8VvyaaY85iP3bhkrhX9Dcr8PW1zUbO2lbNPw0XpZPLfr6Fdp6jr0eL0OClPd+rr0eL0OClPd+rdzsdoAAhranwGmLstKivhj37hZVWtiVE1VY9NJW/u+V6WIRHE8HpcE2jvXr9URxTB6bBNo716/VRwpakuFVGoqryTiHj9BMgsDJgLLG00ckaMrqlnhtX29LIiLov4W7rf2S96HD6DBWs956z+K/aDB6DT1rPees/ikUkEgAAOqqpoqynlgnjbLDK1WPjemqOaqaKip2Kh5MRMbS8mImNpfnRmtgV+XOPbrY1RVpopOkpXu+vA/ixfUnkr3tU+f6rBOnzWx+Hh8Hz3VYJ0+a2Pw8Pguhs44i/SPJ7D0jn781LEtDJ3LE5Wp/ZRq+suHD8npNNSfLp+S48Oyek01J8un5JMJFJAAAAAAAAGi5vZVW/NfC77dU7sFdDrJRVu7q6CTTr7WrycnWneiHFq9LXVY+We/hLi1elrqsfLPfwlQu4W+95c4tfTzpLar5a50cjmL5THpxa9q9bVTii8lRfSUe1cmnybT0tCi2rk0+TaeloXgyNzmo818Op0ro6a/0jUbW0aLpr2SsTrY74LwXqVbnotZXVU6/ejvH7rrotZXVU6/ejvH7pN1JJJGoHIAAAAAAAAAAAAAAAAAAAAAAAAAAAAAAAAAAAAAAAAAAAAAAAAAAAAAAAAAAAAAAAAAAAAAAAAAAAAAAAAAAAAAAAAAAAAAAAAAAAAAAAAPDfLzSYes9bc66VIaOkhdPNIvU1qaqYXvGOs3t2hhe9cdZvbtChNqobptC5xPWTfidc6hZp3px8FpW6cE/CxGtT7yp2lHrW+v1PXx+UKLSt+Ianr4/KF+bTa6WyWyloKKFtPR0sTYYYmcmMamiJ7ELzWsUrFa9oXutYpWK17Q9ZkyAAACuu0fH+mOZmXODG6ujnqlq6lqf6veRNf3WSkBxH/ez4sHv3/vzV/iMemz4cHv3n+/msS1NE4cifWByAAAdNXTRVtNLTzMSSGVisex3JzVTRUX1HkxExtLyYi0bS/NLFlgfhTFN3ssmu9QVctOir1ta5UavrbovrPnWXH6LJak+EvnGXH6LJbHPhLJZX4bTF+YuHbQ5qvhqa2PpUT/AFbV33/2WqbNNj9LmpTzls0uP02elPOX6QNTRD6E+iOQAAABW7bKwN4fh+2Yqp49ZrfJ4LUqicVhkXyVX8L+H7ale4vg5qRmjw6T8P8A9V3jGDmpGaPDpPwY7YqxRvU+I8OyPXVj2XCFvc5NyT4tZ7TXwfL0vin4tfBsvS+KfitEWVZgAAAAAAAABC20xlJSY4whVX2nYkV9tFO+ZkqJ/XQtRXPid28NVavUvcqkPxHS1zY5yR96v6eSH4lpK58U5I+9X9PJSWjrJ6CojqaSolpZ2cWTQSKx7fQqKioU2Jms71naVLraazvWdpZyfMXFlUxGTYovMjE4brrhLp/eN86jNPe8/nLfOozT3vP5yyGFc4MYYOuUVZQX+ulRjkV1NVzvmhlTra5rlXgvamip1KZ4tXnw23rafx7M8Wrz4bc1bT+PWF88vMbUmYeD7bfqNqxx1cer4VXVYpEXR7F9DkVNevgvWXjT5q6jHGSvivWnzV1GKMlfFsh0OgAAAAAAAAAAAAAAAAAAAAAAAAAAAAAAAAAAAAAAAAAAAAAAAAAAAAAAAAAAAAAAAAAAAAAAAAAAAAAAAAAAAAAAAAAAAAAAAAAAAAAAFZdsXMnwS3UeDaOXSWq0q69Wr9GJF/VsX8Tk3l7mJ2lc4tqNqxgr49ZVvi+p2rGCvj1ls2yllj+iGDFv1bDuXW9NbI1HJ5UVMnGNvdva76+lvYdPC9N6LF6S3e36f3q6eF6b0OL0lu9v0ToTSbAAADheCAV9wk1Ma7V+Jrour6bDtElFEvNEkVEavxWYgcX+9xC9/Csbf35oHF/vcQvfwrG39+awZPJ4AAAOAKK7VdlS05yXCZrdxlfTQVaada7qsd8YylcTpyamZ89pUjilOTVTPnES9+yFaEuObTqpU1Sgt80yL2OcrY0+DnGfCac2o5vKJbOE05tTzeUT9F3C5LmAAAADDYww3TYwwvdLLVonQV1O+Byr9XVODvSi6L6jVlxxmx2xz4tWXHGbHbHbxUfyLvNRl1nbbaev1gctTJaaxqroiK5dzj6JEYpS9FedPqoi3ntP9+KlaG86fVRFvPaf78V+E5F5XpyAAAAAAAAA0TPK/Nw3lNiisVU3lon07Net8n6tvxccWtyej097e79eji1uT0envb3fr0fniibqIick4FBfPnIeuAL1bK1hq7Fk/b3VbXRurp5a2Njk0VI3qm57UbvftF14ZSaaaN/Hqu/C8c000c3j1S+SyWAAAAAAAAAAAAAAAAAAAAAAAAAAAAAAAAAAAAAAAAAAAAAAAAAAAAAAAAAAAAAAAAAAAAAAAAAAAAAAAAAAAAAAAAAAAAAAAAAAAAADF4mxDR4UsFfd7hJ0VHRQumld16InJO9eSd6oa8mSuKk3t2hryZK4qTe3aFJMu7BXbQec81ddWK6kkmWvuCa6tZC1URkKL36NYncjlKbp8dtfqea/bvPw8v2UvT47cQ1U2v27z8PL9l7Y2NjY1rWo1qJojWpoiIXbsvD6AAAAHludfFardVVs67sFNE6aRexrUVV+CGNrRWs2nwY2tFazafBCGyRQy1eFsQYoqkXwq/XSWZVXra1V/wCs55DcKrM47ZZ72lC8KrM475p72lPJNpwAAAAFQ9tah6PFuGqzT+toZYVX8EiKn99SqcYr/uUt7lT4zX/cpb3O/YmokffsV1enGOmp4kX8T3qv91DLg0e3efdDLgse3e3uhbUtK1AAAAA4VNUApFtXYQfhXNFLvSosMN4ibVse1NEbOzRr/XwY79opnFMXotRzx/l1/FS+K4Zxajnj/Lr+K3mXmKWY1wRZb4xUXw2lZK9E+q/TR6epyOT1Fr0+WM2KuTzhbNPljNirkjxhsR0OgAAAAAAAAhrayoaqtycrnUzHPZT1VPPOjeqNH8V9CKqKvoIjilZnTTt4TCI4rWbaWdvCYUcKWpLjXQCcsgdneqx7VU9+xBA+mwzG5HxwvRWvr1TqTsj7XfW5J1qTWh0E55jJkjav6/wm9Bw+c8xkyRtX9f4XUiiZBG2ONjWMaiNa1qaIiJyRELhEbdIXGI26Q+z16AAAAAAAAAAAAAAAAAAAAAAAAAAAAAAAAAAAAAAAAAAAAAAAAAAAAAAAAAAAAAAAAAAAAAAAAAAAAAAAAAAAAAAAAAAAAAAAAAAAAAFV9sXMrV1Hguil4Ju1lxVq+uKNf76p+ArPF9T2wV+M/srHF9T2wV+M/tH7pQ2bss/8nmX8ElXF0d4uu7V1e8nlMRU/Vx/stXj3ucSXDtN6vh3t96espPh2m9Xwxzfet1lLBKJQAAAAEV7S+K48L5QXxOmSKqr40ooGb2jn76oj9E69GbykZxHLGLTW69Z6IziWWMWmt16z0bFk7h39FMsMNWxU3ZIqKN8iaf6R6b7/AO05To0mP0WClPc6NJj9FgpT3NyOt1gAAAAq3tuwp0eDpevfq2fCJStcZj/lz8f2VnjUdMc/H9nOxCxOixi7r36RPhKODf8AU/D9zgvbJ+H7rRllWYAAAAACFNrPB36R5XyXKJm9VWWZKtFTn0S+TKnsVHfsEPxTD6TBzR3r1+qG4rh9Jp+aO9ev1a/sZ4u8PwndsOyv1lttR08KKvHopdVVE9D2u/eOfhGXmx2xT4fu0cHy82O2KfD91iywLAAAAAAAAAdVVTRVtPLBPEyaCVqskjkajmvaqaKiovNFTqPJiJjaXkxExtKt2MtjKhuFzkqcN3pbTTSO18CqoFmZH3McjkXTsRdfSV7Nwetrb4rbR5K7m4PW1t8Vto8mey92SMN4Wq466+VL8SVcao5kUsaR0zV7Vj1VX/tLp3G/BwrFinmyTzT8m/T8JxYp5sk80/JOzI2xsRrWo1rU0RETREQm04+gAAAAAAAAAAAAAAAAAAAAAAAAAAAAAAAAAAAAAAAAAAAAAAAAAAAAAAAAAAAAAAAAAAAAAAAAAAAAAAAAAAAAAAAAAAAAAAAAAAAAABgsb4to8DYVuV8r1/o9FCsitReL3cmsTvc5URPSac2WuDHOS3g05stcGOclu0KdZG4SrM6c3am/XpvhFJTTfnKvcqasfIrv1UXo1Tl9lmhUtFitrNTOTJ2jrP7QqGhxW1upnJk7R1n9oXhTkXNdXIAAAA6qpZUppegRqzbq7iO5b2nDX1nk77dHk77dH5r45rcQ1WI6v9LJax15a9zZW16rvNXXijUXgjezd4aaaHzzNbJN59Nvze985z2yzefTb83vXE2UsYXfFmWysuiOlZbqjwOmrHc5omtaqIq9at13de5OtFLZwvNfLg2v4dIlb+F5r5cHt+HSJTSTCYAAAABWLbcbrbsIL2VFSn9hhW+M/dx/irXGvu4/xdOxCv6nGKffpF+Ep5wb/qfh+7zgvbJ+H7rRllWYAAAAADyXW2wXi2VdBVM6Smqonwys7WORUVPYqmNqxes1ntLG1YvWaz2lSTI+4T5UZ+Ns1a9WMfUS2aoVeTtXfq3etzWL6HFN0Vp0ur5LfCVL0Vp0us9Hb4fReVORdF2cgAAAAAAAAAAAAAAAAAAAAAAAAAAAAAAAAAAAAAAAAAAAAAAAAAAAAAAAAAAAAAAAAAAAAAAAAAAAAAAAAAAAAAAAAAAAAAAAAAAAAAAAAAAAAAAAAAOAKjbX2ZDrvfKTBlA9ZIKJzZ6xI+O/O5P1cffuouuna9OwqvFtRz3jBXw7/FVOL6nnvGCvh3+PgnbInLZuWeX9FQTMRLpU/wBKr3Jz6VyJ5OvY1NG+pV6yb0On9WwxWe89ZTeh03q2GKz3nrKRDvSAAAAAAGPulgtl8Y1lxt1JcGN5NqoGyon7yKYWx0v9+IlhbHS/3oiXpoqGnt1NHTUsEVNTxpoyKFiMY1OxETgh7FYrG0RtDKKxWNqxtDvMnoAAAAKybbaf8k4SXsqqhP7DSucZ+7T4yrfGvu4/jLybETuOMW99Iv8A0phwb/qfh+7Dgv8A1Pw/daYsyzgAAAAAAKY7XeFZcOZj0OIaRFibdIWvSRvDdqIVRNfTu9GvqUqHFcU488ZK+P6x/YU/i2KceeMtfH9Y/sLXYAxTFjXBdmvkSppXUrJXIn1X6aPb6nIqeotGDLGbFXJHjC04MsZsVckeMNgN7eAAAAAAAAAAAAAAAAAAAAAAAAAAAAAAAAAAAAAAAAAAAAAAAAAAAAAAAAAAAAAAAAAAAAAAAAAAAAAAAAAAAAAAAAAAAAAAAAAAAAAAAAAAAAAAAA41A0zNDNC05a4ZrbhV1MDq5sa+C0KyJ0k8unktRvPTXmvUmpx6nU001JtM9fCHHqdTTTY5taevhCr2zRgapzKzKqsU3hVqqe3TeGTSyJqk9W9VcxPVxf3aN7St8OwTqM85r9Yjr+P96qzw3BOpzzmv1iOv4/3quonBC4Lk5AAAAAAAAAAAAAAArPttJ/yFhRf/AHyb/o0K7xn7lPjKt8a+5T4yxuxEv9Jxgn3aRfjKauDd8n4fu18F75Pw/daos60AAAAAAAIe2qMH/pRlTW1UUe/V2iRtfHomq7ieTIn7jlX9lCJ4ni9Lp5mO9ev1RPFMPpdPMx3r1+rVNjPGHh+FbthyaTWW21HhEKKvHopddUTuR7XfvIcvCMvNjtinw/dycHzc2O2KfD91jCwLCAAAAAAAAAAAAAAAAAAAAAAAAAAAAAAAAAAAAAAAAAAAAAAAAAAAAAAAAAAAAAAAAAAAAAAAAAAAAAAAAAAAAAAAAAAAAAAAAAAAAAAAAAAAAAABwvBAKObRWbF+v+YV5s8FxqqKzWydaRlJTyujbI5vB737qpvKrtdNeCIid5S+IarJkzWpE7RHRSuIarJkzWpE7Vjpshtyq96vcquevNzl1VfWRCHW02LsVUs2Hb1hxd1ldT1PhzU65I3ta1V/Zc3T9pC08HyxNLYvGJ3Wvg2WJpbF4xO6yhYliAAAAAAAAAAAAAAea43KltFDPWVtRFSUkDVfLPM9GsY1Oaqq8jG1opHNadoY2tFIm1p2hR/aOzkps07/AElLaUd+Y7Yr+hme3ddUSO0R0mnNG6IiIi8earz0KZxDVxqrxFPux81K4jrI1V4rT7sfNiciM2/8kuLZKmphfUWiujbBWMjTV7ERdWyNTrVuq8OtFXr0NWh1XquTee092rQ6v1TJvP3Z7r2YdxJbMWWmC52itiuFDMmrJoXap3ovWip1ovFC7Y8lMtYvSd4XjHkplrF6TvDJmxsAAAAAA89fRQ3GiqKSoYklPPG6KRi8nNcmip7FMbVi0TWfFjasWiaz4qRZOVs2UO0Elmq3qyF1VLZ51XgjmuX9U795I19ZTdJM6TWclvPb6fspmjtOk1no7ee30/ZeRF1Qui6uQAAAAAAAAAAAAAAAAAAAAAAAAAAAAAAAAAAAAAAAAAAAAAAAAAAAAAAAAAAAAAAAAAAAAAAAAAAAAAAAAAAAAAAAAAAAAAAAAAAAAAAAAAAAAAA4XigFYtojZvuF8vFVirCsSVVRUeXW2xFRHueiaLJFrwVVRE1b28U110K3r+H2vac2Hrv3j6K1xDh1r2nNh6zPePoqzV0s9BVSUtVDJTVMS7r4ZmKx7F7FavFCszE1nae6sTE1naY2lNGyNZLlXZqtuNKx6W6hpZW1kqfR8tujGa9qu0dp2N1JjhVLW1HNHaI6pnhNL21HPHaI6ruFyXMAAAAAAAAAAAADheQFFNovNq5Y8xlcLQyd8NgtdS6nhpWLo2WRiq10r+1dUXTXkneqqUniGqtnyzTf2Yn+ypHENXfPlmm/sxP9lEZFIkA3bKbNO6ZV4mgrqSZ77dLI1tdRKvkTR66KunU9E4o7nw05KqHbpdTfS5ItXt4w7dJqr6XJFq9vGH6HxSNlja9q6tciKi9qF9jr1fQO77PQAAAAACmu2FhV9izAtuIaXWJLpAmsidVRCqJvfuqz90qPFsXJmjJHj+sKhxfFyZoyx4/rCzGVuY9tzIwnQ3Ckq4paxYWeGUzXJ0kEuib7XN5omuui8lTQsem1FdRji0T18Vk0uopqMcWrPXxbjrqdbrcgAAAAAAAAAAAAAAAAAAAAAAAAAAAAAAAAAAAAAAAAAAAAAAAAAAAAAAAAAAAAAAAAAAAAAAAAAAAAAAAAAAAAAAAAAAAAAAAAAAAAAAAAAAAAABwqagYPEWBsPYtRv56stBdFbwa+qp2vc30OVNUNGTBiy/8AMrEtGTBiy/8AMrEvbY8P2zDVA2itNBTW6kauqQUsSRs1610Tr7zOmOmOOWkbQzpjpjjlpG0MgbGwAAAAAAAAAAAADheQH5/Z/YFrMD5mXdJoXNobjUSVtHPp5EjXrvOai9rXKqKnoXrKJrsFsOe2/aesKFr8FsGe2/aesI5I9HgGy5c4Gr8xcX0FloIXyJJI11TKiatghRU33uXq4a6dqqiIdOnwW1GSKV/sOnT4LajJGOv4/B+kEbEjY1rU0a1NETsQ+g9n0R9noAAAADhV0QCiO0hmqzMrGqU9A/esto34KZ6cpnqqdJL6FVqInc3XrKTxDVesZdq/dr2+qj8R1UanLtX7tf7MorpKuot9SyopKiWlqGfRmgkVj2+hyKikZEzWd4naUXEzWd6ztK3Gylm7e8ZvumH77VvuU1FC2ppqubjKrFduua931tFVqoq8eK66lp4Xqsmbmx5J328Vs4Xq8mbmxZJ3267rFlgWAAAAAAAAAAAAAAAAAAAAAAAAAAAAAAAAAAAAAAAAAAAAAAAAAAAAAAAAAAAAAAAAAAAAAAAAAAAAAAAAAAAAAAAAAAAAAAAAAAAAAAAAAAAAAAAAAAAAAAAAAAAAAAAAAYzEGGrViq3PoLvb6a5Ub+Kw1MaPbr2pryXvTia8mOmWvLeN4a8mOmWvLeN4RhcNlDLutlV8dtqqNF+pTVsiNT0IqqRtuF6a09pj8UZbhWltO+234uKHZOy7pJUfJbqyrRPqT10itX1IqCOF6aPCZ/ErwrSxPaZ/GUl4ZwfZcG0PgdktlLbKZV1cymjRu8va5ebl71JHHix4Y5cddoSOPDjwxy467QzBtbgAAAAAPLc6P84W+ppekdF00To99vNu8ipqno1MbRzRMMbRzRMPzXxZhO5YDvlTZrxTupaqmcrNXpo2VqcnsX6zVTiip2nzvLitgvNLxtMPnOXFfBeaXjaYerCuX2JMb1DYbHZay4arosrI1bE38UjtGp7TPFgy5p2x1mWWLT5c87Y6zK4+z5ka7Ki31dbcp46m/V7Wsl6FVWOCNOKRtVfpLquqr3Jpy1W26DReqxNrz7Urfw/Req1m159qfkmElkuAAAAAAAAAAAAAAAAAAAAAAAAAAAAAAAAAAAAAAAAAAAAAAAAAAAAAAAAAAAAAAAAAAAAAAAAAAAAAAAAAAAAAAAAAAAAAAAAAAAAAAAAAAAAAAAAAAAAAAAAAAAAAAAAAAAAAAAAAAAAAeeqoKatRqVFPFOjV1akrEdp6NTGaxbvDGaxbvDuZG2NqNa1GtTgjUTREMmT6AAAAAAAAAAAAAAAAAAAAAAAAAAAAAAAAAAAAAAAAAAAAAAAAAAAAAAAAAAAAAAAAAAAAAAAAAAAAAAAAAAAAAAAAAAAAAAAAAAAAAAAAAAAAAAAAAAAAAAAAAAAAAAAAAAAAAAAAAAAAAAAAAAAAAAAAAAAAAAAAAAAAAAAAAAAAAAAAAAAAAAAAAAAAAAAAAAAAAAAAAAAAAAAAAAAAAAAAAAAAAAAAAAAAAAAAAAAAAAAAAAAAAAAAAAAAAAAAAAAAAAAAAAAAAAAAAAAAAAAAAAAAAAAAAAAAAAAAAAAAAAAAAAAAAAAAAAAAAAAAAAAAAAAAAAAAAAAAAAAAAAAAAAAAAAAAAAAAAAAAAAAAAAAAAAAAAAAAAAAAAAAAAAAAAAAAAAAAAAAAAAAAAAAAAAAAAAAAAAAAAAAAAAAAAAAAAAAAAAAAAAAAAAAAAAAAAAAAAAAAAAAAAAAAAAAAAAAAAAAAAAAAAAAAAAAAAAAAAAAAAAAAAAAAAAAAAAAAAAAAAAAAAAAAAAAAAAAAAAAAAAAAAAAAAAAAAAAAAAAAAAAAAAAAAAAAAAAAAAAAAAAAAAAAAAAAAAAAAAAAAAAAAAAAAAAAAAAAAAAAAAAAAAAAAAAAAAAAAAAAAAAAAAAAAAAAAAAAAAAAAAAAAAAAAAAAAAAAAAAAAAAAAAAAAAAAAAAAAAAAAAAAAAAAAAAAAAAAAAAAAAAAAAAAAAAAAAAAAAAAAAAAAAAAAAAAAAAAAAAAAAAAAAAAAAAAAAAAAAAAAAAAAAAAAAAAAAAAAAAAAAAAAAAAAAAAAAAAAAAAAAAAAAAAAAAAAAAAAAAAAAAAAAAAAAAAAAAAAAAAAAAAAAAAAAAAAAAAAAAAAAAAAAAAAAAAAAAAAAAAAAAAAAAAAAAAAAAAAAAAAAAAAAAAAAAAAAAAAAAAAAAAAAAAAAAAAAAAAAAAAAAAAAAAAAAAAAAAAAAAAAAAAAAAAAAAAAAAAAAAAAAAAAAAAAAAAAAAAAAAAAAAAAAAAAAAAAAAAAAAAAAAAAAAAAAAAAAAAAAAAAAAAAAAAAAAAAAAAAAAAAAAAAAAAAAAAAAAAAAAAAAAAAAAAAAAAAAAAAAAAAAAAAAAAAAAAAAAAAAAAAAAAAAAAAAAAAAAAAAAAAAAAAAAAAAAAAAAAAAAAAAAAAAAAAAAAAAAAAAAAAAAAAAAAAAAAAAAAAAAAAAAAAAAAAAAAAAAAAAAAAAAAAAAAAAAAAAAAAAAAAAAAAAAAAAAAAAAAAAAAAAAAAAAAAAAAAAAAAAAAAAAAAAAAAAAAAAAAAAAAAAAAAAAAAAAAAAAAAAAAAAAAAAAAAAAAAAAAAAAAAAAAAAAAAAAAAAAAAAAAAAAAAAAAAAAAAAAAAAAAAAAAAAAAAAAAAAAAAAAAAAAAAAAAAAAAAAAAAAAAAAAAAAAAAAAAAAAAAAAAAAAAAAAAAAAAAAAAAAAAAAAAAAAAAAAAAAAAAAAAAAAAAAAAAAAAAAAH47+OKzm82cCe4VvzZ3+r1Yc0njis5vNnAnuFb82PV6nNJ44rObzZwJ7hW/Nj1epzSeOKzm82cCe4VvzY9Xqc0njis5vNnAnuFb82PV6nNJ44rObzZwJ7hW/Nj1epzSeOKzm82cCe4VvzY9Xqc0njis5vNnAnuFb82PV6nNJ44rObzZwJ7hW/Nj1epzSeOKzm82cCe4VvzY9Xqc0njis5vNnAnuFb82PV6nNJ44rObzZwJ7hW/Nj1epzSeOKzm82cCe4VvzY9Xqc0njis5vNnAnuFb82PV6nNJ44rObzZwJ7hW/Nj1epzSeOKzm82cCe4VvzY9Xqc0njis5vNnAnuFb82PV6nNJ44rObzZwJ7hW/Nj1epzSeOKzm82cCe4VvzY9Xqc0njis5vNnAnuFb82PV6nNJ44rObzZwJ7hW/Nj1epzSeOKzm82cCe4VvzY9Xqc0njis5vNnAnuFb82PV6nNJ44rObzZwJ7hW/Nj1epzSeOKzm82cCe4VvzY9Xqc0njis5vNnAnuFb82PV6nNJ44rObzZwJ7hW/Nj1epzSeOKzm82cCe4VvzY9Xqc0njis5vNnAnuFb82PV6nNJ44rObzZwJ7hW/Nj1epzSeOKzm82cCe4VvzY9Xqc0njis5vNnAnuFb82PV6nNJ44rObzZwJ7hW/Nj1epzSeOKzm82cCe4VvzY9Xqc0njis5vNnAnuFb82PV6nNJ44rObzZwJ7hW/Nj1epzSeOKzm82cCe4VvzY9Xqc0njis5vNnAnuFb82PV6nNJ44rObzZwJ7hW/Nj1epzSeOKzm82cCe4VvzY9Xqc0njis5vNnAnuFb82PV6nNJ44rObzZwJ7hW/Nj1epzSeOKzm82cCe4VvzY9Xqc0njis5vNnAnuFb82PV6nNJ44rObzZwJ7hW/Nj1epzSeOKzm82cCe4VvzY9Xqc0njis5vNnAnuFb82PV6nNJ44rObzZwJ7hW/Nj1epzSeOKzm82cCe4VvzY9Xqc0njis5vNnAnuFb82PV6nNJ44rObzZwJ7hW/Nj1epzSeOKzm82cCe4VvzY9Xqc0njis5vNnAnuFb82PV6nNJ44rObzZwJ7hW/Nj1epzSeOKzm82cCe4VvzY9Xqc0njis5vNnAnuFb82PV6nNJ44rObzZwJ7hW/Nj1epzSeOKzm82cCe4VvzY9Xqc0njis5vNnAnuFb82PV6nNJ44rObzZwJ7hW/Nj1epzSeOKzm82cCe4VvzY9Xqc0njis5vNnAnuFb82PV6nNJ44rObzZwJ7hW/Nj1epzSeOKzm82cCe4VvzY9Xqc0njis5vNnAnuFb82PV6nNJ44rObzZwJ7hW/Nj1epzSeOKzm82cCe4VvzY9Xqc0njis5vNnAnuFb82PV6nNJ44rObzZwJ7hW/Nj1epzSeOKzm82cCe4VvzY9Xqc0njis5vNnAnuFb82PV6nNJ44rObzZwJ7hW/Nj1epzSeOKzm82cCe4VvzY9Xqc0njis5vNnAnuFb82PV6nNJ44rObzZwJ7hW/Nj1epzSeOKzm82cCe4VvzY9Xqc0njis5vNnAnuFb82PV6nNJ44rObzZwJ7hW/Nj1epzSeOKzm82cCe4VvzY9Xqc0njis5vNnAnuFb82PV6nNJ44rObzZwJ7hW/Nj1epzSeOKzm82cCe4VvzY9Xqc0njis5vNnAnuFb82PV6nNJ44rObzZwJ7hW/Nj1epzSeOKzm82cCe4VvzY9Xqc0njis5vNnAnuFb82PV6nNJ44rObzZwJ7hW/Nj1epzSeOKzm82cCe4VvzY9Xqc0njis5vNnAnuFb82PV6nNJ44rObzZwJ7hW/Nj1epzSeOKzm82cCe4VvzY9Xqc0njis5vNnAnuFb82PV6nNJ44rObzZwJ7hW/Nj1epzSeOKzm82cCe4VvzY9Xqc0njis5vNnAnuFb82PV6nNJ44rObzZwJ7hW/Nj1epzSeOKzm82cCe4VvzY9Xqc0njis5vNnAnuFb82PV6nNJ44rObzZwJ7hW/Nj1epzSeOKzm82cCe4VvzY9Xqc0njis5vNnAnuFb82PV6nNJ44rObzZwJ7hW/Nj1epzSeOKzm82cCe4VvzY9Xqc0njis5vNnAnuFb82PV6nNJ44rObzZwJ7hW/Nj1epzSeOKzm82cCe4VvzY9Xqc0njis5vNnAnuFb82PV6nNJ44rObzZwJ7hW/Nj1epzSeOKzm82cCe4VvzY9Xqc0njis5vNnAnuFb82PV6nNJ44rObzZwJ7hW/Nj1epzSeOKzm82cCe4VvzY9Xqc0njis5vNnAnuFb82PV6nNJ44rObzZwJ7hW/Nj1epzSeOKzm82cCe4VvzY9Xqc0njis5vNnAnuFb82PV6nNJ44rObzZwJ7hW/Nj1epzSeOKzm82cCe4VvzY9Xqc0njis5vNnAnuFb82PV6nNJ44rObzZwJ7hW/Nj1epzSeOKzm82cCe4VvzY9Xqc0njis5vNnAnuFb82PV6nNJ44rObzZwJ7hW/Nj1epzSeOKzm82cCe4VvzY9Xqc0njis5vNnAnuFb82PV6nNKih0sQAAAAAAAAAAAAAAAAAAAAAAAAAAAAAAAAAAAAAAAAAAAAAAAAAAAAAAAAAAAAAAAAAAAAAAAAAAAAAAAAAAAAAAAAAAAAAAAAAAAAAAAAAAAAAAAAAAAAAAAAAAAAAAAAAAAAAAAAAAAAAAAAAAAAAAAAAAAAAAAAAAAAAAAAAAAAAAAAAAAAAAAAAAAAAAAAAAAAAAAAAAAAAAAAAAAAAAAAAAAAAAAAAAAAAAAAAAAAAAAAAAAAAAAAAAAAAAAAAAAAAAAAAAAAAAAAAAAAAAAAAAAAAAAAAAAAAGSw5hm8YxvVNZ7Baq6+XeqVyQUFtpn1E8qo1XLuRsRXO0aiquickVeo8mYjrI8E0MlNNJFLG6KWNysex6aOaqcFRUXkp6PgDJ3vDF4w0lvW72mutSXCkZX0a1tM+HwmmfruTR7yJvxu0XR7dUXRdFPImJ7DGHoAAMhYMPXXFd4pbTZLZWXi61TtynobfTvnnmdoq6MYxFc5dEVdETqPJmI6yPHUU8tJPJBPG+GaJysfHI1WuY5F0VFReSovUejrAAAAG44TyYzAx7QLXYZwLiXEVEmqLU2q0VFVGmnPymMVDGbVjvI1u82S44duM1vutBVWyvhXdlpayF0Msa9jmuRFT1oZb79hlaXLnFldg+qxZTYXvNRhWlf0VRfIrfK6hhfq1u6+dG7jV1e1NFXm5O1DzeN9txrp6AAAAA2KTLnFkWDY8XPwveWYUkf0TL663ypQvfvKzdSfd3FXeRW6a80VOZ5vG+24109G6ZeZTX3MuZzbXGjGbzo2PdDPM6aRrFkcyKKCOSWRWsRXOVrFRiaK5W7ya4zaIHlx1lvdcAzo2udHUQrM+mdNEyWNY52ab8MkczGSxPbvJ5L2NVUVFTVOIidxqpkAAAAAAAAAAAAAAAAAAAAAAAAAAAAAAAAAAAAAAAAAAAAAAAAAAAAAAAAAAAAAAAAAAAAAAAAAAAAAAAAAAAAAAAAAAAAAAAAAAAAAAAAAAAAAAAAAAABs+V+Pa7K3MbDWL7aq+G2S4Q10bUXRJNx6KrF7nIitXuVTy0c0bCXNunAVDg7aDut3saI7C+MaaHFdolamjXwVbekdonJESXpURE5IiGvFO9dp8Hs90XZN5b1mb+auFcGUO82e9XGGkWRqarFG536yT0MYjnL3NM7TyxMvE1Zv4dxBtc7TmLoMAUEUmHLC1tupKmedsFvttro2pBHLJM9UbHGqMV/FdV310ReRrrMY6xu97y1/EOxriqiwxdL5hjFWCsyoLTCtTcqXBd7SuqqOFPpSviVjHOYnW5iOTr5IqnsZI32mNjZBlstlZerlS2+30s1dX1UrYKemp41kklkcujWNanFVVVREROZteLBO2IcR2hGU+LMw8tMBXxzUc6w4kxOyGui1TVEkZGx7Y1VPtOTvNXpI8ImXuzYdlXLK7ZS7dmWtgvNRbaupbWJUMqLTXxVlPLG+nkVj2yRqqaKnUui93FDG8xbHMwR3RntH5Px5YYomq2Y7wbjBbrX1b1p8LXN9XLRbr0XSoR0bNxV39E0VeLHdnHOluaOxLNYW2NcYXXC1txFibEGEcsrVdI0mtz8b3hKCWtjXlJHCjXyK1epVaiKnFOCop5OSN9o6mzXM3NmbGeT1mob/AF35rxDhKuk6GlxPhqvZX22WTnudKzi13Pg9Gqui6a6LplW8W6PNjAmzFjzM7AdrxRhW3x32K5X+TDsNupXOWqSdlO2d0j9WpGyFGPTV7npoqLqiJxE3is7SbJS2eNl6g/zy8BZdY0u2HsSUU6SXCthsVyZXQKsUM0vgkr2cEfvQoj2fZdz4oYXv7E2h7EdU17YW3vnPlBnlfMDYSbR4Ew9YnspqGmbaoZHVMCNTdl1lY5Nx31UYjURuicVRVNWPFW1d56vZmUX5nbf8GfuRt8wvmVl9Z7tjlsLGWTFFHA1i07ukb0iuaq70a7m+qLG7dc7RFYiaqZxi5bb1no833T/sjZS3fPT8mbjPA1iqqCiut2vsjYJ7nI+OnYrJqSVd9zGPcnkxqiaNXiqek15LRXLEy9jrCiWeuzbivILNCkwDd5aC/X+rggngZh90tQ2XpXOayNqOjY5XqrdNEb1ppqdNbxaN4YzGyesI/kmM8MTWCK5VcmGsNzSMR7bddq+TwhNeKI5IYpGtXuV2qdehqnPSHvLKuueGz5jrZ2xPHY8cWV9snnaslLUxvSWmqmIuiuikbwdpqmqcHJqmqJqhtreLxvDzbZkchNl7MTaTutTSYIsnhdNSKiVdzqpEhpKZV5I+Rebl+y1HO046acRa9adyI3TFmp+TBzgymwRdcVV9Xhe62u1UslbWJbrk9HxRMarnrpNFGiqiIvBFVV5Iiqa65q2nZ7slS+/+Zww7/wDGn/8A3Ocwj/nPfBWvZ72Lswdo2wXjENlfacPYYtbXLNfcSVElLRuc1NXtY9sb1Xdb5Tl03WpzVFVEXbfJWnSXkRu9OWs9DYal9BRvt2OZrHFe6B1soHT9DdUq6RYopoGqsM0jVf5L0ZuyIxrHIiprup6jF58XqjkZeUa11BPeq22VNNYZVRZ7RTUlFJTtp5tHKqbvStjYr1SR7Yd97W77dfawShE2PAAAAAAAAAAAAAAAAAAAAAAAAAAAAAAAAAAAAAAAAAAAAAAAAAAAAAAAAAAAAAAAAAAAAAAAAAAAAAAAAAAAAAAAAAAAAAAAAAAAAAAAAAAAAAAAAAAAAAWpxav+WnYPwviBP12IMq7u+xVzub1tdWqPppHL2NlRImp6TTHs5NvN73hjdk1P8mmAs2c5pf1VTh6zrY7DIvB350r9YWyRr1rFD0rlTscL9ZipHmk+zZB5lYj2EsA2jK7DFVeUxpdK684oqKOSONzm083QUcD1e5quZ5L5N3iiOTXrMOasZJm09nu3RgtnnZK2jcns7MG4tp8vLpSRW+5QrVuSpp9H0rnI2djkSTi10avRU7z296WrMbvIiWwYHwZb8h88dqTGNqpYkqMu6OtbhxisRW0VRV1HRU8rUXgqxMeqJ6TyZ5q1jze9lHKysqLjWT1dXPJVVU8jpZZ5nq98j3Lq5znLxVVVVVVU6WKedgb/APWDlh/8Sd/0Ehqy/cl7Hd6dmvLu35q7bmHsN3aFlTbKjEVVUVNPImrJo4OlqFjcnW1yRbqp2KovPLTcjujDO/NS7Z05qYjxheKmSeouNXI+Fj11SngRypFCxOprGbrUTu7VUzrXljaHkpr2BrlNi/HuIsnbg9arDGP7JXUk1HL5UcVXDTvqKeqanVIxYl0XvTsTTXl6RzeT2PJ6rRje/YQ/Jsz0tlutTa4bzmRPQV6Ur9x1RT/m2F6xOcnHdVzG6oi8dNF1TVDyYicvXyPBWrBmMbzl7iu1Ykw/XSWy9WuobU0lVFprG9q8OC8FReSouqKiqioqKbpiJjaXj9DcNflNcs83rJSWXP3KmkussbOjW50NJFWRI5eb0il0fD+w9y9hyzhtXrSWW/m8GcGxTk1nZlDfcz9m+/K59nhfU1mHllkkjc1jVe+NGS/roZd1HK1HatdoiNRNdRXJatuW5tHg8uV3/mgMzv8A42n/APboT23/ADoPBq35I3Lu3Ys2h7tf7jAyodhu0PqKNr013KiWRsaSepiyone5F6j3PO1divdWjPPPzFed2ad1xfdrxWukkq3yW+BJ3Iygh3l6OOJEXyEa3TinFV1VdVVVN1axWNoYzO67VTiOt2pfyWd/vWLpXXTFGBbksVNd6ld6eRYnQO3nO5uVYKlY1VfpK1HLqvE59uTLtHiy7w78/sZ3PZT/ACfmTuFcC1UtiuWMqaOtuV0onLHO7pIGTzo2RNHI5zpo2byLruM3eXLysc+SZnwJ6Q/OyHHGI6ajuNJFf7pFS3Fm5WwMrZEZVN110lajtHpqiLo7Xkde0MX6x7J+R9m2g/yduAsJ4irpaGxrdqitrFgVGvljiuM7uiRy/Q3l0Te5oirpx0OG9ppkmYZxG8IB/KZZxYpwPd6LIrD9h/QXLO3UUElNBR+S27x6ao7VP9Ex6Obuc1e1XP1Xd024axPtz1l5Pk/P86mIAAAAAAAAAAAAAAAAAAAAAAAAAAAAAAAAAAAAAAAAAAAAAAAAAAAAAAAAAAAAAAAAAAAAAAAAATBsm4awZjnPOw4Ux3RJU2XEKS2mGdJ5InUlZKxW00zdxzd5Ul3E3XatXeXVFNeSZiu8PYZrZwyLosRbQ9fhvMCkc3DWDo7hccVRNkfHuU1E13St3mq1yayIxmqKi+VwXU8vbau8eJEMHlvsz5lbQ9RebtlxgKqrLLFUyadHUMip6fVd5IGzVEjd9zWq1NN5ztNFXnx9m9adLS823afJlFjSLMZcAuwxc/0zSo8G/MiU7lqek03tN1Ord8re5bvla6cTLmjbffoJFxDsQ53YSvmHbXecBVlDPf6tlDQSeE08kL5nIqtjdK2RWRuVEVUR7m66L2GMZKT1iXu0uzab2PsabNWYFDYKynmvdtvNQ+nsFyp440kuqsSLf3aaOWR7FR0zGo13F2vDXq8pki8bkxs8WOdjDOvLfBj8V4iy+uVBYY4+lmqWvhmdAz7Uscb3PjROtXtRE69D2MlZnaJNpYTAmzLmdmbaLZdcMYSqrvbrilUtPUxTQtYqU2706vVz06NGq9iav0RVciJqp7N617y82TnPgnJbITKTLS6Y4y1vuZNVja1Nus+IqS9S0FLble5yeDU7Y03ZJo0b5bZF5qi66Lomve1pnadtnvSGuZabDWK9oHL/ABnjvLihrJbPS3VKTDtpuE1KlRcIFkcknSzLMxsT4WdGq6t0er13eR7OSKzEWNt0W5P7NGZ2fjKyXAeEKy/01I7cnqmvjggY/TXc6WVzGK7RUXdRddFThxM7XrXvLzbdr2McpsZZf42TB+IcN3G2Ymc9kcdskgV00yvXRnRo3XpEcvBFZqiry1PYtExvA3jMPY7zlypwb+lWKcBXC12BEaslX0kU3QI5URFlZG9zok1VE1eicVROamMZK2naJe7S3HPrZrmlz5qcI5YYbVKSlw1Q3qqifW7sNMxaKOaonlnqZN2Nm85V1c9E1VETmiGNb+zvYmFa1aqO3ea66cOJueJruWxZndaMAvxnWZdXaDD8cHhMkzlj6eOJE1V7qff6ZrUTiqqxNE4rwNfpKTO273aXhyr2R83s68OyX7BmB6672ZjnNStdLDTxSq1dHJGsz2dJoqKi7mvFNOYtkrWdpk2mWs2nJHHN7xlesJ02G6tmJLLS1FbcLZVK2nmghgZvyuVJFbro3iiJqrkVN1F1MuaIjd5s3C+bGedmHEw1+cMurvC/EcyU9tjajJHySqxX7j2tcqxO3GucqSI3RGOVeDV0xjJSfF7tLUs3cjMd5D3ymtGPMO1GHq6qh6eBsskcrJWa6KrZI3OY7ReaIuqcNeZlW0W6w822bNnxgax5a4TytsdPQNixbVWBL7fqzpHq5zquRZKWBzFXRix06RrwRFVZV114aY1mbTMvZTNcdmXBWA9j/MC5Ygo5KrOSz01mu1QnhErG2SCuq2Rw0zo2uRjpnQte96Paqt6ViJoqamvnmbxt2NuiK8osU5D4MwXDUY5wPfcx8WVlW+OagZc3Wujt9Mmm4+N8Sq+aR2qro7RE004aau2Wi8z0nY6JmtmyrgWxbdUGBp7bX4jwEtlmxC6yVc0kNYyNbdJPHTSPiVr0e2Tc5LqqbqLrquuvnmce/i926oj2ka7B1JaLbabVs6XbJO/OqEqXVl3vlwqn1VOjHIsbYaqNiIiucx2+nHydOszpv35t3kpPyPw5s2Zr4wwzlLQYGxZdLxe6ZIX49kuboainrFhV71bQt3ouiY5FTVyuVEaqrvc1wtN6xzbnRhtjLJDKbHObtfhfMK4z4iurqysttrsNB00MM6Q080z62Wdjm6RokKtaxjt5XORV8lOPuS1orvUiIQrkjXZX2e6Xa55n2284hpaSlR9tsNqmSmZcKhXIitnqEXeiYjVV3koqr2ppo7Zbm/xeJWz1wFljT5a5X5xYMwlX4bsV/uVTRXHBdwukk7ZPBntVzqepcnSKx6bzFf1KqaIiouuFZtvNZl770gXCTZ//AM3q75gXXZ4XBa3JJbfhNHYzuNZPc6xEVHzNjduIkEKqiukdqiuRGIiqq6Ye3zcvM96NH2cNn3DlTlZU5n42wliHMOOquDrThzBOGllbUXSVjd+eeV8TXSMhjRUbvNTXe59SLne878sTs8iEJ511eH6rMCtTDeBK3LehhYyKTDtwrZquammRPL3nyta/ivUqJobK77dZ3eS0QyAAAAAAAFm9gy80d4zCxLlVeZ2w2PMqyVFiV8n0Ia1GrJSTd7mvarW98iGnLHTmjwew9O03aarIvIjK3JiqiWjv0vT4xxLT9baqdVhpY3djo4I3IqL9pF4Ck81psT06PVg6wP2qdl/DuA8Pywy5mZcVdbPbrJJK2OS8WuqeksvQK5UR8sUjVXc57i8NVXQ8meS289pO8Igs+y/m/fb2loo8scWOr1fuOjls88TY15eW97UaxO9yonebOesdd3mySdnCrocr8zsxcoMxq2nsNsxZbqnC1fcVlbLBbq5r0dT1DntVWqxsrdFXXTR+qqiIqmF/aiLV8HsNCxtsnZu4DxHLZ63AF+rpEdpDV2m3y1lLVNX6L4ZY2q17VTRU0XXjxRF4GcXrMb7vNpbHkdQXnZe2pss7jmNZ6zCbIq2nrJo7nEsT4qSVzolmc1eKI3y1VFTXyF4GNtr0nle9pbDcrdiXYs2ybXiu/Wmp/M9Nfpq6iromaw3S3SPVHyU8n0XqsM3JF8lXIi6HnTJTaDtLEZ8bJ+KbHiurxBgCy12Ostr3M+usV9w9TPrIVp5HK5sUvRoqxyM13HNejV1avDqT2t4mNrdJJhvGQmAbtslYfv8AnNmJRTYXu6WqqtuDrDcW9DX19fPGsSz9C7y2wxMe5XOcia7yadSLjaYvPLUjp1alWf8Am5bb/wDulP8A/aoz3/qfgeDQNmrZ9um0vmYzBloulFZ6p1HPWeFV+vRojETRuicVVznMbw1VEVV0XTQzvfkjeXkRumW9fksNoG1XJaalsFqvEKO08MorxA2JU7dJVY/T9nU1xmo92lY7LHAFL+TV2fMxL3mDiK21WPcX0baa24coJuk1cxkrY04oiu0dMqyP03Wo3RFVV46bT6a0RXtDLs1HYhgt20NsU5oZC0V3pLVjSardcaKOrfutmjVYJGO61VqSwKx6tRd1HtXTiiGWT2LxfweR1jZpWybc7tsA7WzMOZrNpbJR4gtfgdTPHVxzxUzZJUdBO9zFXdbvxK1d7RWtk3lTTQyv/u03qR0l2Z0/ktczkzKuFTlxSW7EuCrnUOqrfWNuMMK00Mi7zWSI9yK7dRdEdHvI5EReCroiuau3tdzZvG0hJY9jDYkgyDivVJd8w8UVDa28tonatp2LIySR6ovFGq2KKFu8iK9Ec7RNNExpvkvz+BPSNmVwlZbV+UK2KMLYFtN5obbmrl6yKKGirZN1J4Yo+havBFXo5Iuj1eiLuyMRF0RdV8n/AGrzM9pO8K1Yk/JvZ4YNwXifFF+sdutlrsFFLXz71yimknijTeesTYlfxRqK7y93gi+g3RmpMxEPNpTndKyei/I54edTzyQOdeXNV0T1aqp+dJ104d6IvqQ1f9Z74NtwTWW38pnsqy4XvFRBDnXgiLfpK6dUa6rTTRsjl+xMjUZJp9GRrX6aK1F8n/ZvvHaTvD8zb5ZK/DV5rrRdaSWgudDO+mqaWdu7JDKxytcxydSoqKh1xO/WGLwnoAAAAAAAAAAAAAAAAAAAAAAAAAAAAAAAAAAAAAAAAAAAAAAAAAAAAAAAAAAAAAAAAAAAAAAAAPRbrhU2m4U1dRzPpqumlbNDNGujo3tVFa5F7UVEUC/W0niKx4fyIxJmxZJYIrznxFbafweBdHUTKePfurW9zqljGO7d45aRM25Z8GUs3s/YuveYOydgLDGWOBcssxcTYYqa+O94bxzSxS1USyzrLFV03SzRNVjmu0e7XXVqInJTy0RF5m0zBHZi8N5p3i7bV+ObZje7YIwRj+7YEkwvZbxhepVLZbq9zY3QsdN0j+ilRqOhVzXeSrUa3XVNfZrHJG3bc8Vd809mvNPIfDK3PMC4UNrts1zhljtK3+KpnuUnlf0iOCN7t5GtV2r37qoj+821vW0+y822WaxvDQZYflC8PZy4gr7Y7LPGdRNJYsUQVMVRAyR1vbC2V7EdqzopZY1VXoiJ9JF8ldNMe1j5Y7w98d2PySyYzF2ac2Lvmrm1i22pl2lJWuuVet9irW4rZJDI1kMUSPV8qve5jkR7U00PbWreOWsdf0IjZDeO8WXO0/k+crrNRVctJb7ria7vq4onq3pkiWPcY7T6TUWRV0Xhq1q80TTZEf7ky88EjbKuVeeNlsOG63C9/wAKYwyevHRVOIbRcrrTVNsoYXKizx1dNOqOilamu8sTVXVE4qYXtTx7vY3dWCMDWDNbD21FldlDVUFVPcL7ba7DFsmrWQ+H0lPUzrIkD5HIjkajm6K5eLVbqvETM15bWPPZj7Pl5ifaT2T8t8FZV3OjkvmEay4sxLg91zio555pajfhrNJHtbM1Gat3lXyV1RuvHT3eKXmbeLzvCRKHMbDmUOb+zPhfMLFduvOLsHUV2pL9iCOdKyG1yVaObQQyTcnrTqqa6roxF110Qw2m1bTWO71X/N3ZSzly6smLsWYvxLbEsNU3pJLu/E0cqYi/WI5jYmNeskzlVEeiPamm7r1G2t6ztEPNpWrzfxTHm/ecZ7P1HR23DuKbthKzXCyXigi6Cpvk9PRsnW31suv61rmq5I0XdRu5x14Giscu12XuUZypwjcMq8Y5ZZl40sj4sB/pRFHJNK6N7nrSzsdUsWBHLIisTmjmoi6acTptPNE1juwTxn/szZu4izDxxmjT41s9dgO6LWVlNjJ2J4o6aWhkRyspUaj+k1WNUi6JGK1V8nka63rERXbqymJZXHeUuNtq7L/KG75PXmhuGH8OYZo7VX2Ft4iopLHcIUVJ5pI3vb9NdHJImrnImummmvkWikzFjv2b9Z8xaV+1pJPZsQUuJcTYQyhqbbd8SUjkmir7tTUr3STI9f63RVY3eXmrF15GG3sdfGTxQNkzmLiWg2LNoisivlf4bVXWytkqnVDnS/r5ZWzuRyrrvSNajXLzVNUU22iOep4M/T4CqM7MlNj3CtVO+WOvvOIaSeeR66w0TKuB8y6ryRkTZHd2nUeb8trz8DyR7b898CX3bNuGaGP7Xcrvg6O5y1VHbbVDE+To4W7lCxWSPY1WMayLVqrou5poqKqGXLMU5Y7vN+qxGG8T7PmNchNo+/wVubdxo7lJZqrEtVeVti10sz6560zqbc8jTpVXpEfyZojOJqmLxasdHvRq+ypszYrt+RFrzdwHl/R5k5hXitqIbQl0q6aKhsEMD1jWqdFNIxJp3SNduJxazdR3Pg7K945uWZ2giPFFn+SDPy2bSdbbL7ilcC5uXagkurK6txHHSz16PdupDHUwPVqPfuORse81NGacE0M+anL0jeHm07pOz9gx3gLZBuOFc/cRRXrH1XfqWqwvbq25x3K50ULWu8Jmkma56pE9qo1EVy8V9mFdpvvTs9nt1SHetkfOjJLA0OEckcv46u6XW2RtxFmI+6UMddUvkaiy0lGkszXU8Ddd1XI1HPVNdeCKuEXrad7z+BtPgiz8nds25jN2i6DF64d/8HcLXC62O8Vnh1N/RaxKCaNYtzpN9/lzRpvMRzfK110RVTPLevLsRHV07O+wLi2PMLF0GYeB5btc8KWmmutNguC7Usa3eWoklZTskqWyqyOLWCVz/KR2jURE46L7fLG0cs9yIaztU5S58XHEeF7vm/ZrXgHDdVWRWCzRR11I202eN2qpGyKnlkWONrWq5z1RVVG8VXREPaWptMV6vJ38UyZcZc5n5J4BxbS51YntNzyGjw9V01HSzXmC4U9wmVi+CpbWbyvY9JFa5q6M0/hrma2mOTu97d2uZIXzMXNzZFwxgTJPGD7DjzCl3rJLnY6S6MttbcqSd/SxTxSuczeaxyua5u8iclXk3XK0VreZtHSSO3RGe33d212MsBUF4u1BfsxLVhemosW3K3SNkZJWte9UY97eD5WMVqOcncnVomeLtO3Z5KrZueAAAAAAAPVa7pW2O50lxttXPb7hSSsnpqulldFLDI1Uc17HtVFa5FRFRUXVFQdx7MUYtvmOLzNd8R3q4Ygu0yNbLX3SqkqZ3o1Ea1HSPVXLoiIiarwRDyIiOkDHUtVNQ1MVRTTSU9RE5HxyxOVr2OTiioqcUVO09G8XHP8AzQvFqdbK/MjF1bbXN3Fo6m+1UkKt7NxZFTTu0MeWseBu0IyG74bzyzIwbam2uwZgYpsdsamjaK23qpp4UTuYx6J8DGa1nvA1a93654luMlfd7jV3Wuk+nVVs7ppXelzlVVPYjbsOy44lu93ttut9fda2toLc1zKKlqKh8kVKjtFckTFVUYi6Jruomuidg2gZbB2aWNMukmTCmL79hhJl1lSzXOak6Re13Rubr6xNYnvAxWI8UXnGF0kuV+u9de7jIiI+suNS+omcictXvVVX2iIiOw4XE14dhxuHlu1ctgbVLXNtS1L/AAVKhWbizJFru9Juojd/TXRNNdBtG+4x7Huie17HKx7V1a5q6Ki9qHo362bQ2alkoko7dmZjCgpETdSClv1VHGidm62REMOSvkbtMvN8uOI7jLX3a4VV0rpeMlVWTOmlf6XOVVUz227DrttzrLNXw11vq56GtgdvxVNNI6OSN3a1zVRUX0DuPXibFd7xpd5LriG8V99ukjWsfW3OqfUTva1Ea1Fe9VcqIiIiceCJoeRER0gbBhvOzMTBlp/NWH8e4nsVs4p4FbbzUU8PHn5DHo34Hk1rPeBqVdX1NzrJqusqJauqmcr5Z53q98jl5q5y8VXvUyHZabxX2C4w19sram3V0C70VVSSuiljXta5qoqL6B3Gz4pzozBxxb0oMR47xNiChT/mt0vFRUxfuveqGMVrHaBj5MxsWS4Njwi/FF5fhSN/SssTrhKtCx+8r95IN7cRd5VdrpzVV5nu0b77Dz4RxviPAF2W6YXv90w3c1jdCtbaKySlm3F0VW78bkXRdE1TXTggmInuPNiLEl3xfeam73661t7u1UqOnr7jUPqJ5VREaivkequdoiInFeSIIiI6QMcegAAAAAAAAAAAAAAAAAAAAAAAAAAAAAAAAAAAAAAAAAAAAAAAAAAAAAAAAAAAAAAAAAAAAAAAAAAAAAAAAAAAAAAAAAAAAAAe203q4WCs8LtdfU22q3HxdPSTOifuParXt3mqi6OaqoqdaKqKO48QAAAAAAAAAAAAAAAAAAAAAAAAAAAAAAAAAAAAAAAAAAAAAAAAAAAAAAAAAAAAAAAAAAAAAAAAAAAAAAAAAAAAAAAAAAAAAAAAAAAAAAAAAAAAAAAAAAAAAAAAAAAAAAAAAAAAAAAAAAAAAAAAAAAAAAAAAAAAAAAAAAAAAAAAAAAAAAAAAAAAAAAAAAAAAAAAAAAAAAAAAAAAAAAAAAAAAAAAAAAAAAAAAAAAAAAAAAAAAAAAAAAAAAAAAAAAAAAAAAAAAAAAAAAAAAAAAAAAAAAAAAAAAAAAAAAAAAAAAAAAAAAAAAAAAAAAAAAAAAAAAAAAAAAAAAAAAAAAAAAAAAAAAAAAAAAAAAAAAAAAAAAAAAAAAAAAAAAAAAAAAAAAAAAAAAAAAAAAAAAAAAAAAAAAAAAAAAAAAAAAAAAAAAAAAAAAAAAAAAAAAAAAAAAAAAAAAAP/2Q==;clipPath=inset(6.36% 15.67% 17.8% 18.67%);" vertex="1" parent="1">
                    <mxGeometry x="677.5" y="296.25" width="45" height="40.89" as="geometry"/>
                </mxCell>
                <mxCell id="56" value="" style="shape=image;verticalLabelPosition=bottom;labelBackgroundColor=default;verticalAlign=top;aspect=fixed;imageAspect=0;image=data:image/jpeg,/9j/4QAiRXhpZgAATU0AKgAAAAgAAQESAAMAAAABAAEAAAAAAAD/4QAC/9sAhAACAQEBAQECAQEBAgICAgIEAwICAgIFBAQDBAYFBgYGBQYGBgcJCAYHCQcGBggLCAkKCgoKCgYICwwLCgwJCgoKAQICAgICAgUDAwUKBwYHCgoKCgoKCgoKCgoKCgoKCgoKCgoKCgoKCgoKCgoKCgoKCgoKCgoKCgoKCgoKCgoKCgr/wgARCAJgAmADAREAAhEBAxEB/8QAOQABAAEEAwEBAAAAAAAAAAAAAAgGBwkKAQIFAwQBAQABBAMBAAAAAAAAAAAAAAAHBAUGCAEDCQL/2gAMAwEAAhADEAAAAM/gAAAAAAAAAAAAAAAAAAAAAAAAAAAAAAAAAAAAAAAAAAAAAAAAAAAAAAAAAAAAAAAAAAAAAAAAAAAAAAAAAAAAAAAAAAAAAAAAAAAAAAAAAAAAAAAAAAAAAAAAAAAAAAAAAAAAAAAAAAAAAAAAAAAAAAAAAAAAAAAAAAAAAAAAAAAAAAAAAAAAAAAAAAAAAAAAAAAAAAAAAAAAAAAAAAAAAAAAAAAAAAAAAAAAAAAAAAAAAAAAAAAAAAAAAAAAAAAAAAAAAAAAAAAAAAAAAAAAAAAAAAAAAAAAAAAAAAAAAAAAAAAAAAAAAAAAAAAAAAAAAAAAAAAAAAAAAAAAAAAAAAAAAAAAAAAAAAAAAAAAAAAAAAAAAAAAAAAAAAAAAAAAAAAAAAAAAAAAAAAAAAAAAAAAAAAAAAAAAAAAAAAAAAAAAAAAAAAAAAAAAAAAAAAAAAAAAAAAAAAAAAAAAAAAAAAAAAAAAAAAAAAAAAAAAAAAAAAAAAAAAAAAAAAAAAAAAAAAAAAAAAAAAAAAAAAAAAAAAAAAAAAAAAAAAAAAAAAAAAAAAAAAAAAAAAAAAAAAAAAAAAAAAAAAAOhZIqguOcgAAAAAAAAAAAAAAAAAAAAAAAAAAAAAAAAAAFmzVtIEddb6fXVZBai0bG5J4AAAAAAAAAAAAAAAAAAAAAAAAAAAAAAAAAA8E02Dvgm2MyY93H/X8VUWc21creStINtw5AAAAAAAAAAAAAAAAAAAAAAAAAAAAAAAAABHI0lXOVGEfUqtrbmotDf4it7MPm5uHnIAAAAAAAAAAAAAAAAAAAAAAAAAAAPzELCH4Mh5Is7AAA6mjoSTizfi4dokOyeSQrGvMtbc+l0wDOGAAAAAAAAAAAAAAAAAAAAAAAAAAAAYCjBRQZbeTH5gr6157GLPNS9vTvtM0wAAeEaJ3z35R4I9Y4cyDp9J3ONVs2RP06llzoXmPucgAAAAAAAAAAAAAAAAAAAAAAAAHwNIYk3EvobfXGZz+H10Ys5s8vNpa5YTktAABjGNZuwyzksh30nxZzb5c7WtzwXIQUUaj5Dylv8AcS0yF69ywnI/XYpnmL8AAAAAAAAAAAAAAAAAAAAAAAAApU0YiaUV7/yFxPYGIEgahxDkDTvecLngAA1SSOuBbbX+xeesfUy+Z+9Ue6YmDWotmc5OYa9MvVp7r15+Y45drnGSTdGNyzspL3gAAAAAAAAAAAAAAAAAAAAAAAHBrRmM7HJoyPRF6MeR32nG7MHnBsPXmNMxJ5JDkhiRrLdmLVzOqJfQ6196jC/8gaf7WhyY+DU2o8lyMRH6K3Is8jAQvkTTPK/nmpeeEAAAAAAAAAAAAAAAAAAAAAAAAEWDS2J2RjvdJTDdkqdq8dxqzL5pSuuGHRBc1VY5RurY5X9anutK12L1PR5JLrA9t4WyJphfPNtXdq8rAoQ0iCZkTehl9sYnSOmXa7XYsUrxzy7XWfkg6d7GYAAAAAAAAAAAAAAAAAAAAAAAAODV/MS/VccocLenVbW3Nbc3iO4rZtqxJvDdmLqWOUwABb66x/G7MNcv05vqvtTdlJhIMZ2Lz1kLif0H8iotGJedfJ/9nz21k52Zu235SwAAAAAAAAAAAAAAAAAAAAADzTHgSjL+nILUmkKXzw3ZedsY70g5OAAAALH5LCEI5Y89/C6bplDhT0+qWiySBcpaH5Dcv1w2PD1T7HIAAAAAAAAAAAAAAAAAAAAAPMNRwilZZS9i8Rru4/VP7R+c1kzGDaZEyKRJ6H1dQZaAAAAABae+xR5/bQXox2ZooZ1qpZCRtKtz8ueAD8hiXLTGQ4l6cgAAAAAAAAAAAAAAAAAAxYGspa89ykQn6hYqJw8rtoC4YjlGNe8wv2mRclEPekPt016AAAAAAAHPH1iinLyq2CK/Es4gAODXgMMtrz2QWK7AWwvUXZDMkhTZYcVGAAAAAAAAAAAAAAAAAAYZzXitUhZRIU9PbH5LCMO5A0/kTe4uiVS3/JpC/ppVtDloAFu7tHdTUeT+9S30AAcHIAI8ZZr3D+UdDtuP7pJqAHU0XiS0Z7zSdwvZoRKzvU2Uki6Y7QByAAAAAAAAAAAAAAAAAC1hrPEV8N2Xm3G+7Po9NwsNk8EffiovljM3gAC3t2j7rz83EtEhgAUFdcEpatxa4dpkGo6PIwBYzJ4OhzLHnluA8/MqAfI0fy5eA7dTKj3cYfH66cTk6+T27RU2a+IAAAAAAAAAAAAAAAAAB1MRZrlUOWzFjXd6+2LzqAAAOXI4cAAdOfixWTwXWVuzG41okYACEUk6TUTm+rG4eVUa4xijp7zkwhz0pr+1Z+ccOMZMy+aG1Je4vyBgAAAAAAAAAAAAAAAAAAELTUL4+pzxJ6I3vxubQAAAAAAAAAB5nbbsWE3+W17KzGbdvqs8VnuWmCbYwHlHQ6q6HKcgUV7+/k+6TGBNPmNuA1VgmuAAAAAAAAAAAAAAAAAAAQkNOIyOxF6L3rxyaQAAAAAAB4lTZbAZTAV07JKVx7RIoAixm+rcbcv1xnXGe8vuU18x4Sx56zRu8dQ8Lbddb+rjsy6dtu2Zj9AAAAAAAAAAAAAAAAAAAODVnMYFJkOWCDPVj9Hz3gAR0y7XelK7FZX4LtX9/nvAAAOcdEuedl4cfl+PWV6/TRjzcu9WNzSAc/H66KCumB425f8AOHPFV4/nwPCIxF3i8ByAAAAAAAAAAAAAAAAAW0K2PVBTZonEgMJ2inLGu7wAFH3DD4SyRpTWttzWqKLJpW4NtWAAB8PvoxnzF5rZNoa9L6IuWExFz/UeeUXb3gAY3pf848g+Qw3tEHYAAAAAAAAAAAAAAAAAAAg8anRdU2cD6mHgw0GQKK9+5EYnsKABYLKoE9PoudU0OUw8kHT/ACCRTv8AgAAC0d+iS7lhlsfH66ft89wAGOqWvPCbeTQdtUnIAAAAAAAAAAAAAAAAAAKbNJIv7Gu792rDLGMaaPMj5cc3/wAXnyR2IbF3YsUrVHSZEAAOHHLnyu+1+r0XQAAAAAAAC2F6jKEUzeZu8047AAAAAAAAAAAAAAAAAAAgGamVvzDKzB/qgI25jrhcK0SBdCyyeAAAAAAAAAAAAABw4xCT95Eb6v1T+uAAAAAAAAAAAAAAAAAACD5qT2rP8pEKeoIAAAA4cDlyAAAAAADj8310U7V49+7rrfdpr4B+LtosQk9eR2+Tz81eAAAAAAAAAAAAAAAAAADzTSl4+5Ywx6Z1DSZDCGSdJr64zOd78bmz5fXTVNDlIHiVNlgHKWhHg1NkufZpKvbjk2XcsMte9SX7jn5AAABzRNywmFMjaXWiySD/AMP38+bz0zIj/cCYMf7fCjrhh+KacPK/YJMrpfwxpF1CeByAAAAAAAAAAAAAAAACHZqz/FTHTnnJ39UtzzEedKLJ8rUHeqf2+e4WCymBceEr+fM8ccmu19dh+SLjCYB1vzQ9NlGQax5tb/oyKOnN2qPprPW4Wh76bze613N7bH8q3FvSrsJy/WrrhHW8VFiu3WNLLdeLB3HCsscGerVQ0mQfn+6eAso6F2SySFfN77T7nPx0pMg7OdiGrx3NqAAAAAAAAAAAAAAAAAfM8AqIEBzT/MnUM+mdz7LJopGvxPFrNnl5lvwrZ2RVqz6I19iv9fz22trcXu7coY5+qaxvbU7EFi+fU+WpDlHXmztfzPm3d2Cq9fFLUEpVn3YpUVmmaYVhlqNF4jnExmes+UqEvUKrKHLAO3z9/D76LcXmOPcpb5Qd0wW1UuedO5e47AAAAAAAAAAAAAAAAAAA8Y0NybUYb2yXw7ZMC0l+iWNchaeSfoMrlHZpJranvPB+D6p/J7Kb8v11QiyGG/nz8zNsEu0d32m19ZjV+7bnFyaTIfm4tjWY3Ya54TEKuxSV0ebjXSskoj8vZSxczXWC2l4jWk63Fry2CYZf4Bt3H/KoCpuVfP3cS547AAAAAAAAAAAAAAAAAAA4NUkhhjU45Fok9DwB8frpsbk0HWEyiBvLumCVhz13FpL/AFr0Xn3Ous9D57ujjzfun8HsoqP77TR/bb/M6bn51Lfq6tEi3px2Z7i2iRABG3MdcIVyfodnhLamGH4qr/YhsdYHKoB2X6iy5fgAAAAAAAAAAAAAAAAAAARqNL4lxHW60rsE2rOAAOXPl91rpauxfxu+z+b3W75fXTy+v3dVb69Pd6hpcgqKkyHvx2HAAA8iotOLqavMDY9rsUzHnBCExTk+jJ2dgAAAAAAAAAAAAAAAAAAAcGuoYMCdEa7vyjwnaEAAAAAAUBdcCr61Z5y5AAHBj8lXQC+OV6/bfh9wAAAAAAAAAAAAAAAAAAAAAAcGuYYQvmoynwj6jVlb8yAAAAAHhVVj92lvlB3TBK3tubfX57QABFPOdVo5SPpRuaF9QAAAAAAAAAAAAAAAAAAAAAAcEIzTvJE4fslPSMN77Y3iMawoMv8Aepb8AAAByR9yvX+QOKbAAAAA5xrTF5tZLr9EedokKfsAAAAAAAAAAAAAAAAAAAAAAMBZr9nu018yeQv6axGz3UuL2a6xVFSX7JXDvpPXlrzsAAAAAAAcFlckhbq+fYp7vjVmHzb+XPzM366dwUqIAAAAAAAAAAAAAAAAAAAAA6mjEXLwnaGWWC7XxozLWuH2fah55y8xg4xTYHIJFW//AGfXV8gAAAAclB3PBo+5Xr/HLLtdqOumBepx95E4c9KfZp7zVtvyzGRM3mhtIXaPMkoAAAAAAAAAAAAAAAAAAAAB1NE8nlDPplcuzSTjNmXzVn/eou2pjEga3VokPKNC3p7i9mjzE9novMscG2tvvi868gAHDjkObI5JCmOSW/OuV/PGZoymmBMxZWGWslMPeknfj6xjTP5m7Rl5jHI6AAAAAAAAAAAAAAAAAAAAAcGquYzKa+3Ls8k2byCHtpTnqywmsKQ7wLbeZ8d7lYkJ48mcnFTZIgFMY7NWRyIfRY5iTnmpdv7pgXk99opurx71+m6Sqwfafrz809Lfndt7H6zkiwaXpdnHZm9+mv3g5Xr3u0FTgAAAAAAAAAAAAAAAAAAAAA/EY2CKpL0yPHY1ESrIa9MPP7rdAiX/ADh3aHGJswu4hsfPiLt8aAumA4yps8vs67iQBfEjKYJ8dmaS+G7LSWlTQPZhAODEIYGi75sgEwgAAAAAAAAAAAAAAAAAAAAAAAADWnIC4TtFXFszeipJ0m3TTVL5W1i3fSSGIbGRdzXWH6yXo7uGHIKBNHegyuUeE7S3RkXS/aTK/AAAAAAAAAAAAAAAAAAAAAAAAAAAABYE0yi3fHY569640nyf0Jeo1d2zOoKyZozsBZprLlYAOppDuZaQ56VQeknSSV96i/b1O4AAAAAAAAAAAAAAAAAAAAAAAAAAAAIZmGUnSTnNJwy9wH65/u663GLM3mZuIXqMpNAHBp5ublQ16XXHtEjY0Jk81NwC8RrKsAAAAAAAAAAAAAAAAAAAAAAAAAAAAAAxnmpqZZIM9W6moslx7yv595e8pgPP6AcGoYejEnohfPGpwhLI+lWxJnOqmSYAAAAAAAAAAAAAAAAAAAAAAAAAAAAAAh+aaJLbAdupP4Vs/GHNNZLg5/qDt6nIODVRIcYrsBIfE9hIOyXo7ue1eOyUAAAAAAAAAAAAAAAAAAAAAAAAAAAAAAODGYa7xFtz7rjaDMrIAKNNXoxxGbA2IzkAAAAAAAAAAAAAAAAAAAAAAAAAAAAAAA6FqSpysgAAcHyPsAAAAAAAAAAAAAAAAAAAAAAAAAAAAAAAAAAAAAAAAAAAAAAAAAAAAAAAAAAAAAAAAAAAAAAAAAAAAAAAAAAAAAAAAAAAAAAAAAAAAAAAAAAAAAAAAAAAAAAAAAAAAAAAAAAAAAAAAAAAAAAAAAAAAAAAAAAAAAAAAAAAAAAAAAAAAAAAAAAAAAAAAAAAAAAAAAAAAAAAAAAAAAAAAAAAAAAAAAAAAAAAAAAAAAAAAAAAAAAAAAAAAAAAAAAAAAAAAAAAAAAAAAAAAAAAAAAAAAAAAAAAAAAAAAAAAAAAAAAAAAAAAAAAAAAAAAAAAAAAAAAAAAAAAAAAAAAAAAAAAAAAAAAAAAAAAAAAAAAAAAAAAAAAAAAAAAAAAAAAAAAAAAAAAAAAAAAAAAAAAAAAAAAAAAAAAAAAAAAAAAAAAAAAAAAAAAAAAAAAAAAAAAAAAAAAAAAAAAAAAAAAAAAAAAAAAAAAAAAAAAAAAAAAAAAAAAAAAAAAAAAAAAAAAAAAAAAAAAAAAAAAAAAAAAAAAAAAAAAAAAAAAAAAAAAAAAAAAAAAAAAAAAAAAAAAAAAAAAAAAAAAAAf/xAA4EAABBAIBAQcCBAUEAQUAAAAFAgMEBgEHCAAQERITFCBQFSEWFzAxIiQyQEEjMzRgoCUmNTZC/9oACAEBAAEIAv8AwnM57v3IbL14Ke9OSEXCqWDPcC/6Rer3XNeAHLFZtrch7tsqQ5CZaiyJGe5j0hOCrEjOueT2xaQ4iKV1ptym7TH5l1z/AKKTIww458qR3DtUtte1uF5VIpEebGSYMMstRkYajZznP2zsOvDEiVGI3FMyoXuaBH/6Nt0FNsuszYQb/wDrquS4kwHFdhdl8UhNUlePjVCem7rCYZ+ZcdbZRl12z8idQ1VSmJc/mrQ2V5SOHc1aI87hBKj7ZoOxUf8AtXv7/fnrZUSLB2IchQdaD1xQSpi7FZYdbaadlytrRMI/kjVmLn1fz3EbURACy9saw/M8yNmSGMxtZiRgIwYxlQ2FrE6/95edUs4j58KXS9VN4djaD2IR2Zrtg8Y9xOfHFDnykwnNfOnJBHMCGgfCagt7VmYXOiwU8fdBCdujJ5c3S+NOqqVJQQZ6yrGP3I7I18Jc8onB2XrwmrwD23WnUYda+UcWltGVr2fa13i/FbPnXLCGqu2vHTrjbLannrITQYOSCLXEwa7A03Efc93K+6/hfV7ohijwfXWaNhXVmJfWDkidji/W81zTw5TnViPjKsDlWExtbfV02bPdQoeKIlF+WP8AwBbPD4uhxnYuv3cPi6HzHtwpaIt6omyahsgZ9UqnyRwYg0GlhnbCDnVk7Lr5LWkxMiu+m7NmzDTfgi4jsLlSURm6XXY9Rqg+sxfdy1uKrHtBYVnVULvflEc3In9Krsh5FcCybIfhgIQsfGEjY4uH1zILvj9WMwGa2FWeLtwMQoMUdGTDhdZxhSfCqy6+gkEKkh6parLrmytmwmuruO2JUIVrGfJcyaH9ItkW8w6IeSEL4TI6nQYpKIuFMs9ZlVyb5a+MO8o9rENUGzd+OppCANYzJI2DkXp2ud6JBrmvTo2coBTublqXn/01fNDaSld6DpibYzUs6Q11C9JWUOZ2rLz/ACkDHEeq/XtqoLPdnJihEL7rJ6OHFFJgIimdGrlmgWSNlyP27RFNNusGG+EZ910ecrDnyW5qEjY+vJ9cQ806w8ph7X9o+oxvo03oqLhmYK4E0qNJVUv5XUvkpueWNbGdFDx0+/6g2OpljJ4wtljVM9WP5nOps932l6uMtY8UQdqtz7LKRYzMKM3Ej7UbVgrGd6487qg6kMSWDAI8Hsotk0B6s9hG1QBLsZi3WOTb7POs0yhV76MK9TI6sewoYl7EUaEOwD8TEqDtQg14YwtPCJpebEdex8lnrllqpdVtX45Ew5b8GSiXFrxpk8LbINdWStxbHFSw8/q8yiThEcDTw4JOFt+4/Wh9jbbbnFtWutt5cDay21ctOmlZH622lVNoBcFK7yz3G0fIflvXaFW/rJH1snqfOZGw3J8h1xcmQp1UZ+ZCdw7GihbXbJ38jxd1Mf1rX5060fGy5kQfGXMnGuVWng8vMRuibOpOyIipNS7btXK9a6xMBWk7EHwDMmEK1iQfZLLH4/UuNSaPx/VRRJuwVMlmaFHQZZeeiFHECowUc2Oi9Xy2pKvfSoHD/WqzVke2CS+mj/3yhtDePCj42bMij4js+bvPehnaZlcGCLptgMM4kxaLcDGt7lFsQ8dOjlIDJKH064hpvLrnI3kMu6vO0mmVytT7JK8pgMEHgomIkD9Ww08VYf8AWdqdPZrXmPOdbEtKoqcgIGvqMZ2Nao1VC02pCKPW4lXB+x99qM0p9+48w6AAmKgV4fzeAOO4wUo29NabCWmKC+H5dWp8Bq36VEq45BY9GgvJTjGMJSfdQ+emOo4+bno5mmiadI7+uVW81vPPavqdarkqxzvIaHDogqImDB/sP89H1vuG5apPDKRR0gZ0WH7eXW35jpL8rgVdr0mxEPRMr1Oru/gKUKwh8eoa03ymPVJ1oDfRJYccHMlhHwvNMTJlUMcWZqZFoUfjTX8Z7/vg7QgxjOX2DdPOAs5ceqvIfbFQH5FwYMKeeJpjtBA0QEPTAie2zZPpHeZXReZyhzKif6dypSDfeSHAzZ6kn2jInS25A22gHqG+3PV8JSDF1LFJerpDCxL8dHZsCps5YUfHcV9wv1KyIoZv4W61EXeqvMqpjZfFe9UdpwoDqd8WKSkYXiy405jEqH0foAgvjL0Ol1TNeYW9M91kOLAwPVNVk1JOjvVyvbZybwcG+Qj0wgUlAczzw8uOLYcUO9l0qbR2JmXFqNtP0OxMWOvam2oD2tWkmRnYtSUpypWz8BPzDM5rmqW1+ZNe7XG23m1MuzWHRZRyOjWllVcKCJsrnwucd/W9eMo27Ids9IS/ZKUXdhO1q9QDeUxJf6H7ft7lJSvHhXehB01HYhiqxX266N9Jj27HrXpnvr0PXWwj+s7M1YwGvNgANk1pmy1+0W+t0sWoxZ928oSd5ZerNKgD5ZWUmHCrYNmvCkwk9t1ThNqm4xxeeW7pIP4/h9s6OqG14nmEbCLQBPywzNCNyTIfPrP7aZEYnxXIUoyLfDk3R7+tNrWzVZJ4jWbVb7PeCmS9nA69LlO56c1EAUkUuQg/YyFgl5kSazdCAJ3DTw0nBLRsSh5kvEBwFTppQg6WJOkH+OwiSF00DiS/h+QGwvy71vMIxs5789a/gehrTS1f2BAjCFRVTZ7m0gqV+FsLawp7PlwvZssC5LjtmIlcqZKxL72AdRDAsYXHNnR4GJ6qfY7MQscnzZGseNF42ONUcXb6RaaGVUItDEiTGV5kZb88g6lDmkeLx6xz2LHsFptDTeGm/h+Xd6VZNh4rEUSPWVIsj2mmm2GksNe21X3AGb9OhitotOvYaLNONvNpeZ/Quht4+czEjxtVxvSJ9WerpGqzU4cpNlzYB+USvYhttpPgaslhjV2B6p0mUml5ipk/j3xlZw0xeNkJThGO5JIQKMxswi7+gtOSHfOXX9fUiq58dc+Estxq9OiJnWiFOhkYyJo/sMEmAwqSXlGiso6YlGp2rR3nEXya/aeLICCXiSqeA/FRR2YT2FVoA6K2UF6wMLfjOhnve74vKV5dOY861w23erCFaPi1wHKIxOFW/wCnyfbfiLk+xvIzxQ1RFulkct5z4jdm6hGowmFdW+6WW9mVnrNrPcV21dO82v6q31S9pMJjxLtyF1ZRnVxCG0+W824g5lWrHWso+Gq8p73bHhypde8UagjMjq62py0jVlwEiE1rjLjVo8vP6CKcPYsSbDF7Mtt5Xh3Pt2CKcHn3JHXEe5u17Zqa858OYKQwYqSZI7BuxTYdumWkrT6JCZiIImTVeFzBL7DaXVtrw4j7q6B67LlMYfmRtb1llHheFCogaHiDB/QxBhJleuT/AGNvDINBHWeqCVWDvAgwjHw/J0k6M0sYUxX4aSByLEX2ENZiZcrMmOFp4MHnDkf+97u/7deLypPiTAe9TBZkfD8jgzhzTRuOzVX0RrJCdX/duvMsY8T6joRGe5TBQZKV5cbtkueTGceznPfnvzX+/wChw+/4aZFjzorkKXtGhENZ3iXW5NWsLFhHJcwYMwAUTMsg9smxKn5kMh9lCpmMNlGzAh5HmtwzYkjJXEg9pGfHFwXSEonsCxzXsqYZu9pYz3pgbSKNfYhA2NXJf2fiEx07HfC7s4/f9E5YB1fj+dPM7DOkVZRDksElMNkpi4slphElzCs4z34olzfdfSELdliVlACapP8Anqn80RrLTMC1U3buvL6jH4anT4QyIueRPcutTB5uYUWm8kdU3WWkdD+D3Fp0FtsD6ObdtV7C1lOU2dz6ue9hPWpuLlwu0hsjbLtw0uArxyqWbAmq0RWIPhijwckyQYbcQ62l1vs2SpeKznCeta65EHw6jRuy043r4q2Yg1k3xg2QNSm57ZrWrq2RaRrbXg0/brIxVxbuiORkH7MlKRyHAsqfmxbrdpTKpDEa0X6X9oskzsqI35spzaJtKsoz+ZdldV4Ghsbdtj/+FtlM3bWA2T1r1XpY/uRL8yFTuIFCCuIlWjlkerkoyH1/VAlTgx6fGrJa/wBHeqBDHlNrW05hxsTN+pDI8/sdabfaUw8e12XgvKcFujCLGe57ucaz39SS5WYziPLGiSJh7yBxISRDP+nJcTNxz7Iw5ryy/BqQleMpVHECobvnxOzkVroVeNcz5Tn+eqZK9XWIjmew6LQaEvDVS4j8KQuJJ1LhWKLF8TrTT7amXjWmq8Qdy+Mr2oAAiRiWRt2on2nsladXOVO1KY1gNZ7Xy92AegqHAtR7YtOmjOSMysb+1RamEuxbXvLWNSHrnSzZAlcbNPsCNQcmKBEHNDbtP5I6YhRcyc7w3fP3EQjggQzXd8qjMax1SffuS51jIiXQ9YYAyMGz3W1pIRNVdhlYkSRNkoixQY3IgQwNV2+LPSkIc+zhSoV8qjOHgoOABiejgX8ezNrbryuP5N4TuMA8xj9vhyMNshAegOkYTwwg+Okavl+cEdiZ7bPUYNib8zMYveddu+RgLusPK7mzgyxgTOO8X+379SIsWYjy5ccKGiK8cQ4CF2OFkeXIaMd83KhUHRj3md5Ou1YLV43pxBrXFROOZkSEaTq+F+JYKo12ufcR0vKW0+JwhdqkL78TCW667G70jXhtrv5ZZiTXKoOrrfia7Hnm47K5D0zakJH2HyNnn3M/6CtgWtWe/qlXcjPJ4FmOtilmoQLMDHHAI8c3IGQ3j4jlZrp2n7BXYomvzaBBnypHsW226jLbpPXdfn97kedrM7Gz44DZHY1c+yYu47lF/hkR96zMf8pneQnP/IRu2sZ/rxumodK3VUsfsvd9bx/Q9vMcn/Yf3pNz/wAZzcF1mZ8MNR7bRj+j8DXMtnxlYWq4aPuQHVOvC+5UX2bJN4gi8CmhAgkeJsiA9T4Ux3RqH7pfeGhoXDWQojrBAKRyzIXtMzlnwInkZhaSqZP4o6ilUwG7dLB8RtjXcDZ1LlVmWXFEARSQGKUi7tyEIDF/d+37Pwocn/krq1bc/rXSKqvrOv6pnr8vKr1+XtU6TRKojpuo1hv+lkMHj/7CU4RjuR7502MNiOTpZss+cJOEH+J+oEVkBjYJzs2toWl7WT6uerhFZfU+FGtOLFFoctswUx8VzNoEUeTg7Bgda6OlyLa4Ez9YpZgwaU3DIY++O/Hvvlr+syvp8Hj9qV/aFzR6xttDTeGm/j+ZOxYBYjD18MZZcfdSy0ADtAhTQ5v9RgnAkynIMfonWQhh/EoihCW0YbR7thWr0zeQMCm1MverLEq4PXNACa1q0esBPj9v7gr1GqJNY+VIfmSVypOtQvqyqir3Uy5VqA95D48oOKtecO/SB0dwKa+rJ/RuwV0Occ64eEqmEPmjFjj7h1XKfxGYYkMSWkvx/jeVG9Cw0krWtQypSs9+Ro2UVlohQwYhgELbHs3W8LnKUKD/AH6GkpomWmZCrh1iwjUzWv7E5ewgfGW2q7eRZ5zERVwr+LCKyy0604w5llzCHPD48af3VZtVGW1MiSkI2MYMDfi89Xwq8eupYw/XNdYKD2iU8OBFgmfKHX25pWlQMT++euOHHB112NsG/csNPiZ9ac2OD1uUVDPehz13Z/VJWYEI+00ntNGO9AgraThn7To8aTNeTGizxpMEQUPKU899fEJedJ1oIYexInpjR0MelRaxjYg/IhscUC75TTcNp/4vPVwhLGWwmOcp5OMTr8fLK0JcRltdxDwQZjMGBxU1fDvVxdPm8dcxrR9I1uzX2qjharNC8HVhmym7BMy2MvViGZxjoFsAOW7mpX6OwnHmay4tj7561/pTYeyM4dr9M4X1eBhMm7VbX9LpTPk1bmdSsjrTBu8WmWD6AWwt5KsKx4k9XIg2Sskl9jioHeE6bguvfGcotWWCuXqddGIBMgKe9SPe2BaXWvK6Wtx1WVucQ6kZrevZE4z1zNPKn7Ehgk61rviX+IpP2x98lH8SiL8nGm+N6NsUeRZFbI1Vb9WE8D7LTTJxBaMMh9lm2K7CnZgBPzQPd3TuyLM5/Sq82xWeouwrTHV3uVe7RLCv0bmxf/qrvXGqpBbltOMNsDDDMZlLEfs3Lr5Gytfza2iXFkQZTkOWCvRgGziJgtscuSjZix9fUgrsO2xKqJCiYQARGCDfjJEdiWyqPJuHFDVVmdVLH54QC/O78UTi5rGlyUEn8Y7uzlNl387i3m0rKM1aH5d3OpChVpQACz7KbiABdBpo6gVGDUxfNqwYYroesI1hB9QbXNV1aCeRIGTNRDiOkJrUJkbwflZz4i4zhbruP/ETh8U9LRf9zfXHzXYDWU+wU7X7vlWqPjOzXfBXMI64VDMP3wmVz25+/W++NLd/lLttLKaY2sHkZjTKjxq23apKUL1DpquakD5jDfk+Z1QkQbhCuTVBt8YYjIcps6MzKExijWjzY+u7YBlin+OuXFk+t7acGN6xheQDcmZ62nL8sVHh4440p26bUHoV22oM3Yq0QAuh3lij8d13az/dHiRMcctygNSkp/4grVoA3AO0erfzWzKAL2VT5VVJ2uqm6UfkVuweNfh8HSPFnP8ADWVTGKmPWaux9dot5KxOViL6OvQ4/ZtGV5phiHjiTRGq3rjFle7c9bUF/Q9lHRiZAgdbQUdc2xVInXXPE7x521L1pc2o8zGe/Hf83t7SlZ22OSghJ4U7BTJ8MTVPE2v0sm1YbXuI5muauOlkf56jJwiM2jHVylZl2eYvrTEmLK1RXnYfbnrkrF9Ju04nFJd82rQ89PsMymVR5FsA4r5hcRvSFjctWqQhl/53lpNXF01LZR/noNKTOERpaer7XZI0o4TRw22UpXqNYEvZyjWle7i+Ma6dw5Vm0462spv10RGOJ3mfktA8fzu9aJL2HrSeAGvsPRX1x5GvrXDixVBif1sNhPjzeLrBlwVBhHF2FLmbrErjezlPry0AtgTLpNo9uZr63IZAhseuxWMqhkycs2QVOlafqztM1oHrsj53OO/rc3GyubMccPCLrprY9AdVg/0NFkTMxA8Vxo0fM1oOesln9h8AIswh8Gd29xkttHmuEqswFLypGIcbj5xnNYMx7tsT/oGU4z+86h0go55xMVXQAJPgCe/wY7+//wAJT//EAFMQAAECAwMGBwsHCgQFBQAAAAECAwAEEQUSIRMiMUFRYRAyQnGBkaEGFCAjM1BSYrHB0SQwQ1NyguEHFUBjc5KissLSNGCT8CVUg5Sgo6TD0/H/2gAIAQEACT8C/wDCd7ubIYcGlty0GwR0VjulkJ07JWcQs9h/yTO5JlGCEJxW6rUhI1mJpdnWVWiJCWcpfH6xXL5tG6GFr+wmsSz7RTiF3CmkTqrYkBpl51yq0j1XNPXURPePbTWZkXsHWecaxvGH+Rnw0xLNKcecVyUgVJhSm5NolFnSlcGm/wC46SfhCLyFeRY1EbTDSW0jQlCaCDEolt5DibymxS8DtEKzZ1h6XX+4VDtSP8jVy79nryQHKIxu9NKcChcDKU0HJIGI4dd0DnvCE+TdccWdgDSvPSwlKRVSlGgEd1zUw8k+RkEl49acO2O5i1Xx6S8mj3mO5i1WEnloyblO0R3QtPupTVcqvMdT9049PzKQGmrXmEtpGoZQ4RX5S7VI3DD4ww4vKqIGTpFkuFX61wAdkTGYDmsowSIlCy7Ns5KzWXE0UGjiXOnCm7n89TJSFoExad08Ychv+r92JBx0JNCU6BDrDA3qvHsi2FF2mbVrNiYclZyTdqh1pdFIUNYMMpTNtPKl5laNDqk0z6aq1HT4a7rUsyp11WxKRUwnxs5NKcI9Zaq++NDLYRB8m0VK6T+EWtNyzUrMIZa71Cc83aq4w5uuLGXPTLZqh60nMpdO0J4vZwGO7iyWFDSl20GwfbHdzZDx2N2i2ffDgUk6FJOHnVVABUk6oVVM1OKyGOhsZqP4QIHlHVqPXT3cCwlKRVSjqECiHF5nNoEIp33NvvJ5r13+nw3aTNsud7I/Z6XD1YfehNQ2rKK+7jBg5qnKN/ZGAhFHJ8rnHMPTOb/CE8D+TlpNkuPL3D3xPuyVl3vEWaw5RN316cc9kSTjp13EaIsvoyqa+2LTtOzaHS06pKD7jFmtWmxyphgBp8f0q7ItZL4T5ZlWa40dik6vZ5zdU2mbllsqWg4pvJIqIRdfkphTLo3pNIOcw8QeY4/HgTdkl8pHLVsVBF5xYSm8aCpjiSUohqvpEDE9J8NysvY7IYSB9Yc5Z9g+7A4qA2k8+J9kKotwZNvnP4VgeNnZpDKOdRpCbrUsylpobEpFBwKIE9ajbbu9ISpftSIVdScXFbEjTDIbbToSOAVB0iEJYf8AqxxF/CJlctNyy6LQdCxrQoawYzUzLfjGq4tODBSOg+c2aM2o3k5kjU8ge9NP3TC6MTGY7u2HgavtuCihGeyvyLu3dzxOBNqSbd2TccV/i2h/WntGO2DE40w2NLjzgSB0mO7NiYcH0cikvdqcO2O5S0JumhUw4hkH+Yx3FWe1sy763PZdix7FA2d7Of8A2QQX5yYW89TReUamBi+4pfuHsg6lOK9nxhurVkyq5jH0zmJ9pPRwy5em5B9M2yynS5QEKSN90nqjBbZxSrXtBjMdR5VlXJ+I8BNC54t3eRoMLNxl1qZaH2gUq/lT5zQDMXMtIk6nk4p6+L0w2UrQqi0qGIMOePZT4tR5aPiOBuqF69aTtEOqQ40oLYfbNOZQOqO7JxtLaLpdaZQlxfOulaxbE1OOE8eafU4e2LPUhB5bxuDti1WUbkIKot3/ANv+MTbD26t09sWmE7W2E17TCaIbSEoG6NBl6D94xZOWkrRKBMTDXlWbtaEekMdEWi1NSr6bzTzSqg8D1yWk2C66ebVznRDSELnZlTpQ2mgTXVCKTEznKryU6h7+BtEy4D403s1O7nhz9o2eMg74OdUur3ah744qZJkHpWfh50lvkFrL8fdGDUzr/e0896HClxtVUKEYE4Oo9FXAvJrQqrboTUiJphbZPlCaU6IZDr+t90Y9Gzw1LTkiSlTZxieyhH0TwoT0worl1L+W2ZME3HP7Vet7YnPGIA76k3PKsHePfoMTV6Uk3b1pOIODjw0I5k+3mhFZeWNVV5StQ4DRDSLxjjLUSYccbWOUgkGLKnp+YcP0TCnFGGEszlprbPewNVNISDS9vzjh5umm2WW03nHXV3UpG0kxbUxOlJopclKFSOs0r0RbaJgt+WYIKXG+dJx6dHgIQZF5k5da1UydMb9dVNNd0WkJyWafUliaCLuVSDgqmqsJUW3m6mg4pGv3fOpCZtsZp+sHomLRmJCaSFNlbKyhQBwIhN5x1Wv2xxUDFXpHWeBz5M0rOWPpFfCJb5LZwLUnfTgt9QxP3UnrUIkWf9IQkAbB5ufS0yy2VuuLOCUjEmH3GLEYc+SylaZX9Yvad2qJKjZ4q3V3b3NClJdk3qPtV8oiue2eeF3mphpLjStqVCo4FhKUiqiToibKbIbVSamUH/GqH/x+2BdbT5V5WhP4w1T01njLO/54Fp+nlmxp59sPh55eAcCaUTs4HKLUn5Ssah6MI8Y+rxjpGay2OMs7hDFyXlGrqdqjrUd5OPguJQhCby1qNAkbYs6ZthSDRTzSg20eZRxPVHcJNso1qYnEuHqITHdChE0rRJTYyTp5geN0V80OFK7Wm0y6yPqwL6vYB0wMxbmfzDEwKagBGhUyunXFvIYtWUk0S5l5rMyl3AXCcFYdPBNkIRm2xMtnjn6kbvS6tsZracXnacUfGGrjaO3ef0Kt/vhV6vPDn/HlOXp1LtKlkcW56u3f0eFNlDDKUqtZSD5RZxS1zAUJ3ndC7gAq46U1CRFuiu+X/GEB9Ccb8ucR0aYddtGzcEpmlZz8sOflp3HHZsicbmJaYbC2XmlVSseZk1RK2nR3cFoIr1jtg0QF0WdgOEHpEJ72ePLbGB5xEvlGh9M1iPwjulU/L5MpbbnU5XJYaUk4inPSCXHn11UpR61GBoxWvWtW3wiMsF5yboJUndWEgTBbGWAGv5yiZoDOSdDv4xMuSk9Ju1QoaUnYRs3RcYtKXSBPyNeKfTTtQezR4KyXH7ReWqv2zDSQ429VahpUDo9/C1dUn/EoSNI9KJo/my0nbstfVhLvnR0K0HfQ7fMyTkJxq6VJ0oOpQ3g4wr88yKMVKl26PNje3r+7WKrYGCHBipv4iH0uNq0LQeBIlX/SQM1XOPhF0zLhoSk1up2eHILfUpVEpSMBvMSBl1Bd2mNFbxXwk1WgC5UaCTSsPfSEodcwzNsTYdDarqynwWx320M0j6QejE2WJqXVr0KGtChrB2QoNzDdEz0mVZzC/eDqPCdETomJJVouql3U6CCquG6tcY4t1A6ceFNUrFFDdCilbDxCVA7Dpg1cm5FC3ft0ortB8zstSlr8Z1jitTf9q9+g69sIelJlhdyYlnk0x2KTAEvMnQknNXzfD9ASCNhEBJbv+OSV05uiF33FqvPL2nwm/Fuq+UAalbemHc5Oa+wo5j7etCv94Q/VC8HmVcdhetCt8WwxJy6eW6rjbkjSo7hDbkjZa8199eD0yNnqJ3aT2QyVuL0AQoFVbzznpK8D673QeLl0j/WX5ob71tFCaMWkwnPG5Q5ad3VSLQbmhKTK2hMs1uuXTSoglTkuu5lDyhTD9HRebcTdUI0tqwO0ajEwikw0UPy76bza9hI2jVFsPTkwrQXDgnckaEjcIHerJ1rGceYfGG7iQM9ZxW4dkOEIr4toHBAhanpY8ZpR0b0xMBxJ2aRzjVCsBxU61nYISAp1d4hOqGihxcup4pOxa1LHYR5oeuzs18lkNt9Q43QKngGc+oun3dg/QXw22nWYkJlSfSwETNHPqXBRX4+CwVLaF166OTqMJybKTnvr0D4mGL72t93FXRsh3TxGxxlndButo8kynQn8YKLMki0TKPTaDWYVqon0fW6qxY7sq6k5pWnNc3pVoUOaHloO1CqQ668smiQpRUYs9ySsxBC0ybwuuzW4jkJ58T2wgJSkUSkDR5oerLWK3kyAcC8rFZ/lHQY0uuBPNAolCQlI3eFKIecSmrhWrBJ2RIBtJ+lZNadELCkqFUqScCPmSS0yvJsIGs7emLTcD9M64kXQYcqDiy+3hX4GFfKWMHPWGpXgoCU7EikC84rBlr0j8IevrV2DYIkLylUXI2U6MANS3R7E9eyBhFmsTTJ0tTDQWnqMfk+s8H1EFI6gY7lJCTV9YxKpCv3tPmW3ZaRaWu4hUw5S8d0TTb7LiatutLCkqG4jTw+TlWFuucyRWF3npuYW86fWUawMGG7qOdX4eEKlCcwbVaoUpTSDeeNeOo6olw0L9x1CdG4wquRz2vsnSOv2/Mca6bvPA+mqejHgoFaWl+iqGlNqLS0uJPX4SsyXOSbHNp7YZQ5I2StOTYXiHX9IruTp56eaUpmbUmknvGSr/GvYn2xajky+vRe4qB6KRyRui0SuVUqr9nvmrLnRyTvETPedpXfGWbMrF77h5Y7d0d0QmZpHGlbPTlVA7DTNHSY7mxKSs4yWXpmbcvOlB00CcE9vB9LMK7KDwkkhp4LcA9HHGE0XMHKq93ZCarKbzY9YYwCKsrCgfmVltQKitmmBJGndwtpvAUCqYjwk+LmvGIO/WId+TWyyWlJ1ZRIvIPtH3vNDtxiVYU68rYlIqYWb0y54tuuDTfJQOYRL5V1wXktL0IHvMWawleRVk1JaAINIUUqGgg6OD5K0frE5x6IbeePpKdp7ICg2FEgKVXT8zKNh6lMqEZ36EnxjYyjJ3iFU72tJlwncFivmg0LwaZruU4kHsjiuPpCubhnHGAo1LYSCOiJfKO/XPYno2fp54q8OuOW0lXWPM6KrZYS+B+zWFHsBg4d8J+H6Y6lA9dVItiV/10xaLDitiHgfA5Daj2cH/Kt/yjzO0FtOoKHEHlJIoRAVcbcvyTx+kZPEV7ucGFjLoFH29YO3mh276KOUs7BC20N6pe5UQ2ZZfpcZHxEWrLFO3Lpi0G3Vtiqgg+AcxpNTE33u3yW2fjFsOHcuivbEiy8NqMww45Ln9aio6xE+y79hwGB805ifJtJ4y4X3q16LXG64aeLb6lBp9wGiyKVoTppUdcMLS25XJrKcFU2cD1+9hLuqONfRPD/yq/ZwdxrjSEJSjLyD4XoFOKqntjunlnXTplXFZN0fcVjE22wy0mrjrywlKRvJh2etC6aKek5bM6CoisW6ZSZcNG2LRbyV47Ari9vmRQl56XqZGeCals7DtSdkWM+02OJPS9VMrG5Y9hoYK3nFYDSomJd6yLL0kuJo+99lJ0c57Ythi02hol3vEvf2nrEWW9KTLfHZmG7qhBxbViNo1iDVKhVJ3cOgzCL3bwZRYWtSGW0Lu0prg5WXbeC5eZLYIB2LGj3GO52V7nbVp44yylstKPpIKc3oUOuO7Z61QonLNqaqGf8AqYXurpjuqEi/MgiWVNPrDa16kYVoTqh6SmqbJxv+sCO4bLIQKlUu2l3sbVWO5jLNoXcWtuWcISrYaa47hX3f2co8Y/JzNtJ9Jck9SLNlkkaQQr4wzLVOgJar747mLRcSeWzZhCesiJCelJQLCC4uYQMToFEqrHdRIsiVWEvpmnFqeGw3aaN9dUWnM2u4n6LyLJ6BnHrhhiljNrDjUogXWlru0aFNeb2xKoeSlrxyFemcT7YUpcm9XIOHSPVO+FUUk1Bj6VoKPPr4EXkLTRSTrENGZY5N3jp5xEg8n7TRiqSNEWk+62NCHHlKA64lVOqAqbuqJVTSiKgHXE4XZiUZylnPuGqltDAoJ13cKbubzImoOkGLMl2l+m2ykHhkkmfs2WXMyL4GcLuJTzEA4cBxS3cP3TThNMonMOxWqGihxtVFpOqBpcdp+9DaVoUKKSoVBETTskTpQkX0duiHlTy08VDiKIHRrhWu93pfoUn1D7os5q0ckKAz6FNv9Khp6RFmylk5QUVMMErdH2SdHVWLOmHrOtPGal3apLlPpEE8oV6Y7sZeVcIzpe0F5Baf3sD0GO7CTmFpTVErIzAeccOwBPviSUXZuYdmnG2k1uAqr1CLCYsycbSEm0JKz05N71iECqT2c0d2zb2GDbDDilHouxZzrFmMO3peXOLsw5ovKp2DfFsrl7TSnxrTD1xSdwOhW8Ra9qhChdVk2kM/xpA9sOJenBi22k1S0dtdauCYCXXM6TQMVFY92+GStxxVEJGuHLxaRQq3+AqEJP2hFnobVqdZF0iG8CarWrSs74SL8vntq9sKIyk8GVbwsFB9vmjivNKbVzEUhNHJd5TaxvSaQcWX69BH4eAclMJGa8Bp3HbDh73vYIWL7KubZ2RIOSqtbjWej4jti12HvVS5ndRx4ZVt1Ox1sK9sWRKtHaiXSPdEtlUaQa4pO0HVFvJuakzLWI6RHdAgJ1pl2ce2JW7e8o6o1WvnMWbkXVaXJZVyvRoifnlD0con4RZiUL1vKzl9Z4DdG1WEd0EsCOShd8/wxITE0dqvFp+MM3EuHBxzBCE6gmPGPqGe+odg2DhVRCElSjuiy3HPWdXd9kMyzQ3N19sWlTmZT8IeDmW8ku6AQrZhwK8bNGgT6uswmqZZ8zLp2BCSfbTzSx8htol5BAwS99In+r70Lo1Mi4onUdR/3t8FAUlWlKhUGEqlV/qeL1Q+1MAaKKuq7YmbRZSNRqpPvEGWf25Rih7KR3OtK/Zvke2sWBMp+w8kxZ08n7qD74Ynf9FP90S08f8Aop/uiy549CB747nnz9uYA90dzrKf2j5PwiVlkV+qlir2kw/PJB+rbyQ90T4398TJWffFqLX6rKLvtizEXhy3c49vgq8ZNcbciJNcxMzLgQyy2KlRjusdRNLTVUvZ7abre68rjdUW7+cSgVMlNIDbh+yrQT1Qy5LzMs7nIWm6ptQ3GJKXC6YrofZD6nHFaVKiVLc/abYDDSxnMy+nHYVHGmwDzTdS6RfknyPJPDin3HcYllMzEq8pp9pXJUMDD1HBgw8rl7jv8MxJtOfbbBiw5bobpFjIHMtXxizVDmfVEi5/3CokF/66oskHndV8YsNj7wrFlSyeZhMCn2cPmF3W201UY0rOan0U6hEp/wAQtFv5GlacWJfbzq081N/C2qTtFKaItGWAvEbFjljt3x3cSORrxzKrvdX4w6u2J5o1bXMoCWm1bQjbz181thPfx72ngBpcSKoV+7UfdHA2XWmU5swTin1d/wA/NXFuCoza0G0/MufJmVaR9IrbEufzVIKDtorpgrY1zq9lYQEpSKJSkYDzg6HDIOF+fUk4JcIolHOASTzwmqlqASNpjSkVcV6StZ+dm0LdZ8qhJ4vBI31gUvXyMIFAkUA8NfjFj5QsckejDN6YmnLoroQNajuAxhGa2KvPKGc85rWf94ecO6SQNsNy5EpJ98pLmUOAN3dWvRDynHHFlTjizUqJ0kwjxcrxd6zwWqi8NIbBVTqicQ6nXdOj4fN2wVjOq3k6Xq7cfmlKU2/4xtajprpi1ZSUdbkm0y7s28lAulWfSvMmPyh2OVnQPzgj4w8lxCxVK0KqD5utBUuUNg2rNMqoupFQ0DqwxPPTbBhorcWcB74PEFVr9JWsw9dYGDjqfpfw9vA+W1p7dxgXVDNeb9FX6E73y8Po2jgOcwky754razUK5jAGXaN5g79nTDZSpJopKhiIQaDXSJlyYstbnyyzlKzSnWpPoq39cPh2XmmUusODlJUKg+bV1VM2i8v+MxPqbDoqG0IxpzxLXa8dZNVK6YdqNEy8k6fVHBJ3W00cs2zXU4r2OODZsTr0nfJtMTsiQZ+4AnLtE0qfWBI6OiDmTSbpHrDEcA+dtJsK+rRnK6hFm1/WTB9wieUUfVozU9QiXW44o0Q22mpPREm9KzTJF9l5BQtB06NUK8e3mP8APt6YkErcHLBoTz00xLoDVKZMIzac0CjYVVsbAcYXe7zmXpdJPohV4fzebRRTFoPNkcyyIULzTYbdT6JEDBQoYfK03ASFHFB2RLB2RscJXkljNdePEB3ChPVwOUXas6lKhX6NvOPbcjT3yngmnBSZXSiztidLyPq3878YV3q8eS4c08x+aeUg5VFShVMOCxCJWtDPzRybI6eV92sW8/aDmuXlfEtdfGPZHc1KSWGK2ms886tJhrxdos5GZP61GjrT/LCvEO5j+4beiDUHQRwKqi/cSdtBSE0M4+9MAbiqg7E+bbNWuybRdDomWxUNuEZyVejj11iaW0vakxaIT6yGgDCiSTUkxZ6pc2lO5aXDmClNXAAaatdOBWZIWcDT13CSewJgYJqmXG06zwfSPKV2x3QOSD6Z1TMuCwFtrASnHUdJiS8W5XvecZxae5jt3HGJ9eTceAU2rEU16eFLZySqOPLFanYIlpX9w/GHmUfZYHvi2F9CE/CJxLw9F1oe6GcjM0rc0pVzR9aj2xZyZqVal3X1sOcUlIwrtFTohpKEITRCECgSOEJ75u5WRUrkvJ4vXxemGVNutLKHG1jFKhgRFx5lPFQ7yeYwy3LJWKLU2SVdeqEG/MOeMcpg03ylnmENXJeUYSyynYlIoPNrKXG1potC01ChsMSj9kvKNSZBeZX7CqjqpH5Qn8ns/N6a/wA0SrtqzTZqhy0CChJ2hAw668PosXebIpj6s157xhXj5gFDI9phq9MTj6WWU7yaRi3KM0UumLi9Kl9JqYXjMza5hY3ITdHavsgYS7PacPjwKosIut/aOEcd5xKE85NI/KC2ka0y0gT2lUd0FqzJ2JWhsfymO5x987Xp9z3ER3NCVnJG47fTMOKqi9RQzidRr0RywtP8JjlzKfYYH+Hsu4Odbg/tPgral7VUPlMu5mtzW+vJX2Htj8n9q1BpVmTU4k9KKiO5tdmsHjzNp+KCfu8Y9UfKJ58Dvy0HE0U5uHop3edGvET8qGXF7HW/ikj92HLjRVVl06EnWDD6Tk3LoorjBX/5BAYROhK1HQm8Ci90FVeByqLLk22MPSOer+bsgYvvdicPjwHyr149A/GGqy1nr78mzTCiDmjpVdHgJBTOSTrJr6ySIF0szIvjpxjWta/dFmTDrVohpJflqEtXb3JOnjRabc3KvDMdbPYdh3ee83Ki9LvUxZdHFX/vVWJMszUsu6tOo7FDaDCjTZGnVBo+iz2u+yvUq4L0Kr35POOjmKsOyBoYBPOcffwfRMV6SYa+VW05lSrWGU1CB7Vfe8HANWq/c5r5I9sIzlsJUh1PGQSITlGScx9Gjp2GJpX5ptBxLU+0TgiuAd5x7PPhMrPsCkraDSaqT6qhyk7o7prIW1Xyi1OJPVdPti0xas2woLYZS1dYbVqOOKz2boNFIs1xLZ9ZQuDtVwam0+zg1O3B0YQRc/NLKcNoTQ9oPg6FutL62kRqbKepRhoLQsUWhQwMElpQvsk+iYcvOmSDbqtqkG4f5fPx/wAROMNq5r97+ngPHYSezgRWXmF3goclR0gw7gAqZswn/wBRv+r97wdQYB/0UQeI6tJ66+/gOcGVV5qxo75mLvNlD5+xmxdflE+ktBrd6cR0wyptbailaFpoUkaQYmUNJSbzDjhoN6YteVpty6YdDuU8s7TCmwRWjAeceI9HJKHvHgy+Us+1XgWJlrQghIGTVsOHTAVkHTevJFbiocVMOclCUEDpJg3nHDoTq2AQi68zJgvp2OKz1DrV5/eTZtsEZz4RVuY/aAa/WHbHc0/kE6JyXTlGT95OjppwSL0y+4aIZYbK1K6BDYTa0+2EZHT3s1pu19InTzDwZFEzKzKLrzLgwI93PEo/atkk1QtlF55gbFpGn7Q7IsuZcdJoGkMKKuqkWcZZmWUHJOznhnuL1KWOSBs0n/IXcdZcwv0nrPbUe0RYkpJg6RKyyW/5R8wP/CU//8QALBABAAEDAwMDBAIDAQEAAAAAAREAITFBUWFxgZEQobEgUMHwMNFA4fFgoP/aAAgBAQABPyH/AOJwzNFTghsubpR58/qJmhn/AMRh9KJM5J8BdQJpYWSlboQrsPlU2zsvwqehJTluMWp/DA13TPToKQmABJ3uG93W/wDDYwlXPeAUoWQ5rKYbPZYFNHbLWF5zYoqFWIuxQMpNlolPkRRFiyzF6mvI81Gixj/wtnJecKP6F6RGJDs0yAt0AE5n1lEWVA25CTVq/B3ox95e3wADdXFREsMlbYPcUdS4h33qTol1DsmpraJifVY0cJOaBh9d3msLxvDMHTFOLJGNi2e78KNNk7xAOrzTI0skPctS5bz2D16tXIURAFDi0aoLgfelzvecb3FlFIUrWubK2qBSsnstvvWsKQSfN1iioxR4gD9ijSgwBagNCY5RaPrPwpDZFvBU/LlwPlQDrW7F/eawFZc2vb3UIp4lrdKRA1FDYMiaAAzhkm9AGKkkCM0qZ0Cp5KkE3DZ7VFhczCOpUjr90HM8tADLSEXMpYZQFPLv9NPQrF7sBZWkQ2Gl4gngpiV6NbN+uJkSY3B4kCs5UQuBD3iusN2rqOYfoB71Ca8aiBfuv6W029KFgNUwBqpU3YBLaLu3Zs0CoLPujqcHf0CRCh7yAHzVLlYCjvB4o66iqgym1d+rLRfucWGExMpokzT+4WNZI4cnDWhJ7sX9aegEZ8zZ8EZDXPQ/1iGQglcF80tgw/oPuj3+rF6nQni1vqpaXvV3L4B5p7yLa4V7SUl1gcmxn2ma4U6yJeD0EIWDoV+m1McWnzfLroctF3uC+7u8+jQooUkepUPZrgbaNfJbjWrv843nvyO5cGhqytK4LoN9SHX7lA0tk2mwwLWoekEcOfbfZfQg8ofZNk0aQTyGPHdsNSjGkvYFiXIWTIF0UtTQ0vz1tkCpyxidr0Xzp/R7gF8FKIzc1F8za2ih3oxJxTpLVh9z0n4vdU+3QXtpcBQcMT1qSxHoVIpZIsayQasNaS+eAWGBVOCAkX5HyfQZqWsYE9SJOxT0yzbD9ztdcAZfoZLh0qDEUEwibjRHIv5i0/STo+kQaWHQcxRyfo7YZOuvcSlH1wHZTciPN6vHMvR1bWNmAPyHxR5c1/oVYCnmyr+E7zfD3pd8NYdMXs1fL+MwKcWf1CT5KBANacQMXc2uo2hsoHmf4TCMI2T03OlWgsN0gG6Ufl3ktYwaEE5YlvWK4By/XXXis2KuVECIXUZ9hV/oF10Q/OGkHUkbI9ynvKBJPl9zEkVIAPTjUngNv9FBkQxhKBgNEceTpqcPonPqxiRqP4KyYeFjd/rNAmRbWXDHz5puy5+pmkJRcXLjaxUXWTE6QWnrFRDqmIMvTwO8LVnhAQXprGx+QBBeKYymdWvE9AFs/wCV461m7Un0uaMHdg70W0nQarNYAeDXio2QB2IJgajzbTE0i01ITFpvIfbXnKEB5sAdaj6gNnhh1SKEbZc3xbg8m9Z9YHYRE2C7NkdFHXD/AC4S7wXikePlEuxbWnuP5XOzrfkNntiicXPIlx8U4+NNm64MtEJqgu+Xq11q91IxT/DTdvtU4fTQQE5kf0Klblv/AKaCnWBg9qAMH22FgLwWS7ALTK6BKw2PVyKxsXldNA4Hcu9cVjrZMstyCThhyVx3FQG8J6LphBgGVdCrcQNlGDg433xFIZVI1n87CoUa3lBfjB/MrCMC86P/AFzSjn2i2w6rnt6XYJIu+B1LvEGrWdwJPwDPKgXaCkAkbrfuVy/Sl8gMElS2ANab4NOxtXqkdlqQvbPP0s1bLlJjax7tJN/s7rILCYPedwqkwSDuSHcI70AcAWADQrMFfROr7wR7HAgWHorppeD+QsaPJ4yLqx8F+ZaFBZBY1Wqarv8A4JEJxN6vVu6Z/ios0YQ1HOZ5Tvb6bYmksJrSQYmsBqA0IyF/7gm1eHpg9qoW7cGHXQ7UvXyx3SVy6DVaklthg4R/Y+zMZtVpAuydlSMW2yU9pmgAJEkSzWWT27/1uRSRlWn7uvdTrMU1JBy0DQxSUPp1VunyrVhdcCNQ/wBsfUSQM7sGhNLqCCA2wfyCF0YAN3TnrrvUXvBQCyjKJFWRoW44r8RJdGHVdovrhS5FzRNrsQdqHIwCyZdIHpyUSm7sm1NzXfNODDTSJE4eA3cgZJ+ytepjb2Z2gB0oKxl/vMyg3XIKPjT0O34MntWvZyB/3xXEU4wXy79b+DRvPogFsHnL2+spKbDclCx80gbWUgQOojTt9Q/xVwASdJmssQRJxLsETMNFC+EwKTrn6SZtLINXOz2q3AnD29Kz+QNX3yPQcd065yJ6ghASq4ogworoXIIGoJ1q3j86Xx6iiddqiGobs0EbQew1ILG/Z5gggNHDcs6N3nKDrUq4DUfu1WcIXG5uHl2n+EW5R0pVZWev1IWLMgaQ225jreN+6Wo8WApBDEHAfUNsQBZ8dPy61q7VUhwNHRyoTFZ+RsglhoN8JCWaljphq2HYC0NT1zd1GXUciE0a/kD93Y5pVr0AXbgwdPVxQY7vIaJ5J9AfaCWGL7Dpjci5qoakwRM3d4YoWAD5Inkw9v8AHnoHwn869qvrQ+79wilaEqWLGJdZXUwpS/8AIt66XsAK1DJh/s9YUJ67LYparsWKEGvDobvOtPPyJl5jh4w0Cbr63bIqinHB9DzfFPM/guFEqCGE+0M6znbDY6R/3wq9rM6tLAfRxt7Dz/g5QcazsGrxS0Ged2msEbL4UY7H6U0YOd1p0Z7NK7ABdo+A7xQMyLAk9nb5pdEZZuwH5wUJA5k9/nlVvyPIMa43LtGFVHcLBGm7hVZo+cvJU+fnGugMtMlGNqjJ3WAWC8AVggQDABg+zrBNKMwoDO0Oi0a9mNmr2JaiBoWgIPqguAtFYiZYv3pCaRJHNV46NDx/OEYR/gu2K5pDJ4epe0U6TUy7ZXuxvUkh34Q+DahjMCxE3/B56/SQLpgoNcFPxNZ1/wAY1f7p9mrwaQaHFFWJuulMuq2M7B0gCACIrM2n52UpkuMx40j2oMP/AOk3yoAx9kJ8MfN0GXmMF2K5fovmsB09X6hqmL1+xTwEBZlL+aGQbi/bB8/UXKCfXsPPsNJg1WL1JaarUS0t7HZwj2pjupuEjsQe7+D9Ugt71c0iM7l/CinuVfGHD00eGnAy30CDySEP1KsyDY1O8qgnLQRLLaxc6hNBH2h8zQLWLMVxe6sapNYYSjRjsOz5vQKYAW9z8O9S1BNORhurYOl1CljSnKYXPANQwH01gRmS13OolxUDrqegD8/UACo8tg8JqbioOYbe0Peoxy7hYHeI70RaDyEgm/c/hI+BpPCHdMfHqvA5Zgcg5j6s9ZZ/qH5KTGJ9sZ1tqwzf7OMBbdVbwVKGFvhW4ljll1oOYw9/iT5LFWhgrnIhDcpqQTDK4oEgJvgpj84ZD4/vFAdRV+yNSRTZBUt/rLEHb0eJqRBDkXX/AAofF+rCmO5J4qVj/WBRP2gtFZD/AHxI70R0hG8pfapm8ejOvj0vJIOL1EnNg/h2f5yCvCQ1K3r6OKOi/iB+zrSIY0o0jYEl6v8Aaoi38UlSb/4HIzh+dQznn+6pm5hk9h+gW1vAppHzN65Nf+z2AwvqSOotGm7qIou8XbAqNMo3sG7M9qISAtPQGvwVMmcMIeXK8yVhjOMp3+TzVspY/wBlXoHf23HD2x9DARseXYOVg71fBTACDnJaO3nhB8KgtaGfyntQYr6fINXcbfPEzTkB1P4c4qbcPcXBty2qUDYS45z8RTlIJLa5S4jEKvjxYToZYYaDJCMiU2vVsNxrOjvb1y5EfnXKsJbZQJRrTSr+IfgmLqSc0orh92sACg9kYr/9nhHNAM5ITbhTxc7UM/YyRAl8Mnxp4CXKRFKc8WD/AGBSk6oZS2MrWlm9tsfx42KXR0YsGwqv/wAKcR912DDkdEs0tCGk/wDcJqJOe8RJ64uU6LvkPQc1z4Fi0us4MW1qG1wCmRo8IbHih5COoPsYcxIxupk0AYtIIG7FnhQ4uQJJkGQLMwa0pC92nyafvhFe8j2VMeMbXLJDg0zLdviClgISnjvFKVZJONEAdIRT7qgHAHsBfetLwy19SOlHMCyqSJudwguio3CKyRy7+mKMqD4ZALQEkNSN5q2DLZBFRyIokvamllR7mvG31L705wEWRMNW9ud2R+U+h+EMYhCUzSM5w21OpT92ZA/igeCEpIRq4Qjs5KKWR6IsN1bFArEqwNxLNTfvnRCzKSWZp9kBWBAJGniBlK7hUG1QOaBpMWc3+pxwmHJRBV5sR3j4B6iKV10rryU1IBV0VZQkcidITGfS0RyU5Z58MCnyq7Vwp27N82OKblJeamlfkyaLVpnlwGkLvRd2p3QkeejfJBolaxtlV3KXbBh0TO6E42ZHWQpHSNE0ZYndAatNMylOng1M8VZe7WVro+sCm+ysqRP9tYjulRQqjIkCkECgzElWbLzixXd7giS071IMQSZynFEMxdEa15sHLf0h+WBI7IaXI4X7VHUhd1VpR6wpVjiX6NGXmioLqC/NKxpY3b2s9ypuCQE7xfirYs6wuA7j7FQxRQ4YfvT7QbCvGqXzT0kO0azyUdyCDhPyvow6JNQ0HR7ntRb986p9JUN/eE0VD690APF7KRwR1PTbyxD2Nczh15KCRVwnnp+tIkM3X3EfBUdINyV3iHhpFPw/ShsQcVOoEz5buR7Ve4OQ+9RZnIQqeY6EekIo5aHlrVAL2zKoxriJPM+ykE5claq6Bt1c1GljLlGx/sdX1m4WegJWnnagx4k082xI/dUcHieg6IJDRcsEj8+hLYU64EfYDvSqdi3l9vvUov8AZ0kilNFsso8rA4W1BQzvWnlu9qax9BFcgnqBphOaqfL+Ip3eR8Ks965/gn80QkC/6jSIN+fj1Bbhr+RD0fpUSn6RsHuG/kaE6b+CVAvBPw5TZfgnQAjZM8gUiQJy8MKQG9wjzJ9qdU/9rw7fTsl6Nxb+W3ZqTfx99D+8BdoaWFRNxst0BtOan5mFM2Hpnv0qKVxtXhuCJhovY8q33uis0Ehg2DQ4Ki5/fkAg3hFo1Mn2nPzq0V7LfkKFkwN0wfuagREbsNH02OvXMRp9QuQdGrH+llyrz+taRWS6KUv/AOg7+iAWU6/3VjOotMqer82tEX9lqi3Ow/Cm+Wev185Mp0OVsVaXyWxYehXKqRDA2+Na+iDaowyR9MJsHMDQUBt4CY98UGkg+LB1EaLhkhoQY+0pJFNBUgHmShKBTFHgvlzR/HUj+d21iGJokMFIBJEkT68XqBkZlbD2mDzrV4bJsZkuQZ2K2otUIABgDQ+3rBNSC5C/0UkImRpk5i5RgKBEYi1f+HQP5Q9FMg3RfTPoXg8iUMDDei3ii0AgPreP7mZfkmeLa1H1teV25ldKlL23F+e6GgDT7eoZqJMFGQiWdqlFnuRXShyqrNPMAZlsLwS+K6UwcaJlcoioDNlf6jPd/EMM7UlXdRGdl2Pb+HDNNKhZ0hWLqjbxU+DCK9xl5x3pAGRCy9WFQNqIHuJZPt0iHQZCPczFLsLIkxcqyu9QdxBgNVsGrQYmRVpr/rgKS2uWhWoOn7WqVam43kwNQ1OKEsq4/Ycn+Douhl2oZ++aeE7S1qkjE/NwxUpQGWnVPYe4U/okAQ0TSlthr4ChWwJdzYuHIMxEisWmARPAftmFPSdV0GA7EHaoZHPt2zJtPSlk582P4YqSa6C5W27239BO6roGXMYvEsQUhAEOGQrDfGVJeKBb88AV+TvWaEwvFcfxguKmDHU/oO9DIaCD+3Wlls1v7TvUhJwX7Au1Ys7QIEq6hGoVlYN9Ha95pZ4lwU00HWtDyU6Gio/hs0QDtMdqRMuMAOxDt9tI/TrR/HVGHOW4ov1LlTGmjORIaA+Qoq1utoe9X4B+psLWQmqBs0IL1accMv6u70I6x2m/tRpWC0pov5qMl5GEdcPNaF0y/wDXMVIkmEs7/VPrCEgglKJbSiSZpvv60CGT0BUGtkngdm8eSuinBu6z3mlSkW4DueqHfRrQPcLd72mg5wSiRNGoWxQbSA8ApeRpibac37g9/tjioRYx3rXJmi2wMyUVCiLaTZMJ1rIZIfK4WpCDl5VdVqPmjoZfkFFLJfCek5B9LFFV/wAZnOzg5nahQSAb0gsgzwtpblq0RV8iSOmKOOJKJzjI3EDaL0OVzteBhYcV09Ck9gcshtzRb3969m/bmqpxH0nxS+SLqT3A+9TZg4FCZVp0aQDvTlv5BCLZoF1nWjmsIgYALBxUR6HhQWou7tC5OzqCishSSaIiVv2s5GwXDjFTTggBqC+F6gclnC7Y8jBloxm12vsH21Z0izmQbJxUKhwx9EHSrVNZ+5t9qJ3QuvAR8ShwppFxa+6WmuEQQ6mo8o0ySe2PlKlQTWIwngy8FWoibBDK5XuRpVi/X/cJS6yxHa29vRe4CcsHtM9qvKSVsh7tE/8AQAj+KdBbKr4T3o4SGrz2NWBpijCgXQUP+9L/AEUM/i+FqdeTm34H6AQijO8myQtxFpdCYbmD/EZCTzTGYMAcLxHhSSMUmHg9FxPlV+6O+jsWlWeydW1b1U4XYDmdHrU0PY5CTaMx8q0173uLgHZQhQoBzMInvWlBvg4eKHu+i0SqG5/dR+pLbBlP1J2oseoFFL9LemoDU0iP5UDzKHQB8tSfUgC7mCLsZthqaRbWjINy1QJ970EWZYG6Nk1Q1phn1YdTooR1Gm4QGSVqAQrLDM0oFzkDe95pfin2jk9oHaitx8vfomBad1T8BRZxii6dHfabfRhQgYcDR+wCmX4DAMxuTkqIOGBfx8DxNZLpgyhbK33mbRaDPJ97TkUaHMiL95IjcS86VnQvzWQDznXdRIG5MDdV6m04nPgp0URtjHh6Tckfon+tJmcdDH1+iYUQGxe+feaR1/ECr97oB2oGgshsPIydqk1VzdZnlZd/vzcAi3oCeUPdbH3H0ZY+FvNleU3qVpUvF7HkP0HFfOLiiSY8U9AoVNHUVvw0Bcar+q8/fiSgoMWx2YeRT9qnKoA3EbRTIxWiuR0vc6tMbB/VejkCIbIZuZZ1pAxoEFE9y70Y9W5RQibL0qvM0GMIRZnEwBExqJ8FKFxkFwCDpNWtShWGi20q0/rrtVdGO334BDWYAKEFsrZm3LKH2S7F3ieybirm1ScXqLYBWoAsSl3dFkQwsQb/AEpvLMPlIbguJJT6zcQjJBsQ66KnZMGnaEpq0Qe/762rjuBIGQj/AMATAs5N6WIjK/d5aQAqBp8H1pNAwgXKZf8A4lP/xAAsEAEBAAICAgIBBAICAgMBAAABEQAhMUFRYXGBkRAgUKEwscHwQGCg0eHx/9oACAEBAAE/EP8A4Ti5gAqvR/x8430wGnIlHyGCCig8eyn4wzQT0n/pBfWghUaYysKAXAX9lMhqupF6CJKanPL8+i4in8JLiEr2OAcG1XTQSGiNIDnEIryZBRUdQdlClAaU/wDRX6k5ubehGG3jvEpFweKJojkFhZRdrFVJNUURBQQrRBl1UMHgEMQoRGofkecGnANVcECRA81cjloLQKf+pxCENT/0VlFVuPJM161G6EfDiUeSKOroB12I8J+lPOB4pl7Tge9P94dHdNPR4F+wYYR8fzJvBjj2oADtXWK+se55QrnExIRGP9qD+cZAQECPKHHwON8oGrwMHsd5gi19/vEB6ZD4bJJQ0AI9GAhKEAmTzyOw8MVW2VLiyJoaxKbGmHlD8CnzgUyQbukLt7l3zlfd6bEvFloLkgmifzMQM/lUnOS/5245G04aNLSAzfPGD8+xl9T+Qw52hOXolrimzw8YsshQlXiUiJpW9KZwS3oILLQdAkIH7pRUpKIXQCtxm1LKsP8AOnJfIB2mL7p95agjjwID9L8YvG4URLOkw9s5TWnSAXAKMAgzhGBggqXQeXwYv6ge3ItD6TE6mDxLICnCf7K+aERPY4TTlx/KSPUIFUXgAX6ytsiKRX64+rfOC+TBtQG/R+gwbziKp4A3huQEJPA6UVOlnWCUjxlfoGp6/fGUgQoMXdX8MDxHzQj/AEeUCmO1gdr8HODak6gZH5B+2DB18GivNb+gB/KYC9Kn2Mc5zXRjxGQsirShuU8aw3iMvtRg19pb/rYLEBFx4aJ8BHxgz3C2IsRSXaXKgNpo7SG9EN4sxcHRfH8kvGu54pwpPkyyNlAUluQBOwcdgtE7I/CVH2/QLoioNit09D2KTBWhVoLKlBVoKuCC38YT5ld/dUCujNq+GGHwhbPDesHp2FMjBGCoPf2AYczzuB0eA16M/wDwasqAf6K1EkFZ+RZPTAOwbQIPYnoMDy/RnynL8qqv6KOEKH4TSfODwWiyvgfrk8jDvEkgIKYTRfSAHZVJh0e0QQVl/JHkFwCgJ0hB8NR2qc5UuSu0X0sX+ln/AHTnHqyb7XKthsT6Wxb0cPmOhPs5NODBEKRxprSiOUoRAR4bziiRAOOUIPvGmtAfugJ9BiQahWJpBy+Q42t3gw96sc7KHDXit4nW/wAhAUoFAVQDbzibtlm2X9i40cGo5VPwh+WQ86s1u9E/v1wAA4P0VDa0aK2g+KQbGE7RzvugMSiaR3pM0tbSs6HJRGRR0g8/qrSTOEK87R7PFlTmaYgjxVfnDX8kxi6DohF4bTMj5GiMs2ARHsxJ/IWlm3Ywe4v6HSKUAeZ03HSUdLg8GGvqKBTkRQtMN3k+xomIQsmVqU5ZBIq8LfjNr11ieQgPhYxfnBP2y4Tq/f8A6ZHp9vx4G2CJIGSedAJxQvnOmN6FhXt8vargYKsTVwfjJBF+6ZdYb7nSHEaQHThTpdohkCJlJbgbzJ8EfY8kmOcAE8wVSBTeCiRSqDJcPO9K2HkGAVCqwDFXvNfgkLYbPZXRamQG8gnXg6N+QH+63bxvh2fAPeGc1vr/AFR/J9ep7w3E7mwicAt2BqVESvZdR9nScIo85svWNAf3inR4c+MnwVqnTpIpSm062dZwv87UKoXTrzg+UwF2vQ+PksSjKuVd/tfWFb2bpCSKpJyYkZgRl0+/AA94bWD9oANoaBugG1rTQP1x1qjugaRMBT12zu1RyvMXOQpD/wAtdMwnxgcKp5HnCfJVZQ0+WAeRjYWQlXKB7XADhpI5lh/4wjdzMwomAArADowyBoo47SsJECr+OHMWGNYIN2oMe+EUrmN/Y3S491S2yIiLoAoIJJggp+s3NoZcQup0qdUQEMVmlpAKcXJxVOO02ipFm/1Ji3b/AIJc3phsB9nHt8O22nryoIJoYiiuEHkEFkp0pW39BU8D3lg/DjYexs9EODFAVQCq8B59ZRGynQU87z2MBouCmiiQOOtQbUlIjhImOFmwl9QYBAPj+NBvNBdVcJD4M2YEHOAp5qKArMvUNM78L6Hyzc1bBUQMFg2I6HNV/wD/APek79AdDWPVBAAVXQFcXhZLzhkQVHUPUtUrEVnU7unbywFwsTCKIjr79Dkgcv8AlccEQcSCAuicCoD6ZSRJAUaCgKr0DQ3fz5yBD4MEVHDJfLADyW8QDD2+KOtnE8MQX1A5FfKEAP2oBXWyVgYqkAFcXwZ3qIBaPM8gRxGtgTvIY5azIk8gl/X1sH4H8O2CJYBQ9El2TvOT5N/36HA8PDQoAcAEAx2ixHDy/vnFyCvteZvh4p1yJRPk7xjvZ9gK98seBQLFGqtVug9BOxq6FyTmh7b/AGGVz6AMd/8AgFAahD4uSaxxgQA+AE9TBgq7+ZZt1dRp2YbL+xU8DLB4qlAN8IhJuKaXUAzSlKwBSr6c5GE7Q+UT8Ze3aV4bYQloZOTFnNwAAoicslywyCAUJ0bnsRihEEQ/hdKmfvo6Gx8h3gH3xdJr62vQ4URFQDsRORIiesqOyEX7usqu1XbcuXNMy6SFfib4XLLTMIM70Vijc1jQETJrmqFU3z24RlOJSD5LwHQB+6lMd8CDhBjOUs4ip3gC6vAEIM1bP3cYI8fsS6cNBUUDICaIAHoQjWL2Ax6040MVhEcr9OSmUWxcjRaYBpZ+f16PKW/ONmETah+AAdAMjkQSnW+WwHAPt/QUaInCOzHqeTLmQaGTXg9hWJ1wi4r8MQ1W2Ck/hQVnZEE0m/hLLpcHFL5tWZLmSChyG2w2hzLT/sSmha30LvFOB2onZiCK0SJOTx7Moiv8RKBfU9uHUxEM4RzBtddRv7tlTlvKTPUEqZTka8YKIBwLZXMeXj9ulV9CcDpOA6ULrICNHGbGAZwNHiYWKQeUAghLsprn9tA7TCNffHNsfB0vRUKqZRJiqdIgE91iPVXDFAAkYcI8P6K24eAG6rwa29YnvMAWC6iminQy3EHu4sp8gfz+plA7o8P4XGOh2XQjY6CYEgKm6n+GqKFZOM7NwfmhA2UE0COJ3BTRe9Ss4eYiojhxGKTwuUfI9sOv/p/wPUryplc15V/cdE4cTwjR+8EcQxIDbgx0K0VCUYsFGAXYSF21WWH7PWaqi1PjAccD4ORXiA0MTcpCOjtbM04WRE7kInJqQyc4wMcspWcKfGdAW8BgaD0pDTGPCDa4O24M2rQZDbZaADt0AXMrlcREElKXs8/o4t9YTkH61L+1xogoXhgP7f4iCIGQ3OIJeUo7TW35dVEiBkn5FIuyoFywY7LZ3Fyv/jhx7O0uTwGB6Q4c6pDBiH0q9KnWPxoFUnVrqjy1xTDtnKg5Rx6QuFPCNk7fS15B4HCTDAvL6UcS2MAXGtyHzqh4JXteoA3GwjXaWrn4DOQF1IfscQdifF5xNrKUdwXlPLwKvGVOLZu4F3AArzLik2soxR2K2Pn+IlTPBB3vawdkfeI70tpV9rkYNBN3P7x/4KXFy1XsNV4wF143iMAGjDyNv5TDShdLgbbIBzZOzD5/X3icxJPuUbSReh6MLaKip2Zv8R2rCWI9qEcHwvtk0YCAbnwPLnY2DZQiqDyl5jl+IAazet2bdEkocgsCF8/Tmpsn9M8MaHBa2p/lHBvqUTAOIrCHOM3e6Yi3dZJpEYCgbTPBoAAAGgA/hyZcBlQK3PLKi/Gl24+SQg5Wv6H6MC2cKBQfgP3clDLcOR0lskEtgJiKvHt0O1EOnjBQmECUDSJu/wCCIcqwPOJPwpqWfsMHwGRz2r5ySB4bFRhMbVd5BjR5VFrVEURyUy7G2gHCxE1F8P2bGnPWOxlPEqoAFVXW1wsRAkBVU2BH2AbGJdmK/CAfQ+dqubmC29BLeTRCCrgEZY4A0AHAGp6xTD1F/LQe5crTItvwc9aZ3cet1N7f3gWCef4NQK5fQ4hgcyNFBLIBcChZsvh5R5SfrQ26CN/vG0+8ZcdGjtfbPgMlHBRqyKewf7vWKI6a/VC4Dt2oLA8gxBuEJaB89P3RIVr5irmq/kJvmA/SB/gAwroudun4ZSFT2vJ77zSCtebhXzLOd99Vh2eDGJkcPp2iCiNOcPj9iwUx1zrg9DyjfrxhuXNwO92EQRjoOTR/h1DnNE+LQ2JcG1B3JnR/eyTXlXaEOVqUM4J7rtoUOG1l5k9WFEPlxaQBcsGu3eNrA3SE8ZVH6FaoErYhSMTkmi4dSPU5CPz/AG/c4TOEDYORlfA3gcVeXzQwH8BnyzPMgXug94VCmSFgOxB09/4KjRiNEwN0AVPei1a2Fs2y39EPjJdUMKbBj+1KTLHa00oC3nbPGT8EJdmrw3nTxgAHZ/DyKK93RJWsO2GEANJs2m6n05G2subqYRfPRFOQEWuVsQXMOUmg9imBnG6M4UIj7MIOTAFq9BiJjDzytxB8vyBwWgNsr6IH5c0NgsYGhS8Xf7kERORE8njAAQAQBAPH6RKTZmgg1Dm8f+F5Wzw9X4NTyrrFVEQyJB+WPvODqbf9/wAPHh+pA34p+lgtkDOiP2E+8hIALQCT1nY+PWL6M+5W0WdKC61rELj50vIh84vvO755/wDNIkVA9iR/rN/VSom4f6yqJffL/wAr/D3eZ6XR57P1gZkl4Dc+MCSyIxP0p5/wIaUwZgL4ufX+eR861+WZ6yNimf6EN1D9YiMSJyP6zwJX/ucY1lqvl3mi9087/wCHMj8VIA8CPzkdYeQ78ADT8Mzi/MgSJ5PCGhXkYgJgJoaXtPng2phNihfvVwl0n0AaxYfiqfwPwEwNc6jB80p94I6sDGyDhYNOxZf2aWzxroq7Ae/Rx87UEtqozctDwBgcsp9MEXECXCUvrb9MQe8qr9SfIYHOjR9sEPhMIonsP94I8P71Dlw2mz4MBuNEIOmkHch7dYY9CWPezb6s6j5453NSp5EuEwHgYCp0iDR5xA/CEj5HE2ZIwTT9kEbZsUSfooyXB0pf84MEWcmKWmTpBcSpo+BwD62iuxjjiPjXOcvmCgTY3lZia4NMtNYL2lyIxrWVNUFJ2BNkBOQXv+DPa6secYrNoRSNm76H8OGCiOk1HIATpu4DY9GKJAD+ZHiXWsBvXFcweCKEi4rXoWZLVozG6U0rUGxTCK5RBdP5FGbKS5wSfhP1dd0P8QfX+h+ki4x1x+lpQG6VBnody+vjVCuTtGlOB6dkXnYGwgEPcxZCt7FOOKpcLVyyDfpChY9wY+ZGkv4/2kcTfxdSVCYDeskXGXAEUIRZMeMDt+r2/dkEPB55VJkso1CYiJRE4cvuEfvAKL9ZNBdWL3oz2xhiLzQ7yhQ8axWGEYwauSW2wDqkxWJioO4Gb0gTlcYI1GTOtJhtahACODEGS08MCY5Q6p4EWGpoggwAQDKkPi1D2IOCKAecRB9EfoQfXKuR6RTE2tBHQ6qjjaMsHWcgdiT84SoogIaI6R+MlhlQBwjQnWtZIxgHTrA3VUrxgw5ArywRumLHTHOTBuBgY5gqQ0f4NBIlHGp+EBeRHSZere7bmnX84E02848BcKsoIpPNSI9PFyAzVp8YiFsvND/UeN85pH+gh9Lk+JUkp9jyPCImnFlTUk09PJRPrBDaHc2cieETF9wC1WswvQw6DG3n6XwIvB7iwZU7cYwsUEEFDoBIUeoaiPCe5nmyGAiOIixwu7yIByXNEGXhMoDRWNxmzsg9vaBeVdOBkevI0Da1vagZY3GlT8kSWcU84vmRkBHDyTfBDL8o8GqEC+Idpippi2JrQp+1DC3Z20aFHAPGEJMZvBeORLwNLAnm4h97iqXyEwb1RgAnGB9IJHEXcE0AzbEFJFAn/Qcq6AV4whBP9IRih6B7/XunOEZidDxa1aB36DceOY+CY/Whg82D0WSAaNAACw2rd0HDp4+No8p1iNSPQuHklT0xqF8fw8Y960cNd6eFjQPbBfCmGNbR4MfsIImv6D/h1+CmxKNnZJqrVLW9uzHp0lyPlqHqfLByyP30gPzhoHT1D/eOxE63hgQIBz0APrBR60O3yAR+M22LocQJsTV4TQTWbEaGQ9r8n6sQeukf4G+R9GQ+bZWcLho6Ieq3j2VlzjUQ+829uBt7AKniLx9bvauSyD3E+MUoWXQecf72Aj70GSBL+mpP8zFuCKPfOt9cABIrK0vBwWtSpxfKng+wqeoXsIH6mH4IDX4A42wNIf3L+4wgUHA/25/WOqZsEYhbkeRRAEQpSIxmDSjkbOdsdjxQvavDBZmDh4Pn7JwgnI/h2YM94ohHmuMhBUXYDnCZOmN43QUnoT1iIkRNI9P7Jr6uHwBE+TLs/ZEfesPl8MQsFUucTlfDwfpiFjwGOTnurb5dz6z/APg0+H+1gHxIcZ3J8AT+jlEbxTAbW8A/7wmnh0pwYKfYtz+2JC+z/exd1BB/Ev1jdtcBjxwXy5v/AHQl/tfYYszDXr6tL3GbCTBJvkqL4GVZeiB4PH7CMidUpr4weTFfNTl8C4O1SAUAUd7gIwNhDiliIRHUsI2Mtbo66TFzJhWqmG2A6yFsAixsqSu5s9TGIIdKcE0fQAeMlDV70KAJzYTEH8QJ1PJONO9wjk/MScMgj1PkppNBEomGDnKkI5oQBdGDIcKUUIxHr9qXfnNFQ5oX8YKiHmm/aONKS8pX+eLq0/8AbMsx8Df7eeMP+nnGbH6/4Yxq/bThEZXD/tvItnggT73wKD8FH4jEusvKuT9xl3+0DQXbAO1MW/XBWgQ9Q3217wKhedpUTxQTyGhJAOMU5H4xadIAiRHHAwEJR1JMdF8pZZ1r7yC6vpCmQ3XgABwQ7B/EhR3knXQ1kpy6uzuXKh2zkinEua9gXoq0k/y/GHooDGQ5SR3vQsDeDlAQoiUR7Pf71ApACqsA/wCMrMtdBVe27y16JcarzdKdiobyLYBSUS0E0AABoAP48KHRg91sbnx0k7awAmiH0ED2qGTqTfzm8l08A/yWYTHOzXQg2NEtHSH6L6+AoURAK/nOGmz5gPQAfX7nNUsN0SynDh8UclIgvcwC4GxXmQVQUbQcjS07QNgL0P4+b5cZblKjfWvYgUdJijpdB2pVQmquSwDeoEnz9a5Drhk9SxoaRIJ4riBrhad4Hjegf4mM8qnzj+fme1HoQXQbQ6zjv/AKA5GlxWdcHBU5NS7SnnC4r6iYHKAnA+FyARs9AAf2wdQXy+H1HkU/jVhcaTjQiRYEgbIAyxly2qWqve8kDKEFyeltNBgzUDVsLwXReAdXF8RZiaG2PGt8ngI8G96JnNQY/hA/Cv6d5CaUXEFC7SROxjsf/BUEsGtwPK9HvLkgAXhd8nk+AYbcoBG2CF5ak9XBcmP4EfoALwJeHLo8PmigqHrIoaG1vCyGInlfugsM6EYBNKaLvXW8UNcjTr+Mr7IT7xB6NXT/ANCR0DFnnfWw8UCm0E84bw5wW4tyeAA8XeCia6gHIuehaZGtgfFd/GS7FzHDnU1CoAHBeiifhJSg55UAlctzR8wdfHkeR3xg9V8LHSrk5PH+NCBXoDJULvZ/G1/BjKoGOfIt/P1xFsskDxoPyODe237wKp6DLuEDJLpIdBiOS4kJKZYdGzxHjj3p+lA6PBKZoTN1WTKiLBpNSbxc6XLs35wH00tWCrwMeAHX8ZU15P8AeB91jaNhjczkXq6AE4RTkcLc9iKwU2UU1vvKQeeM0wUAKCBHeKexAYqWjb4BigvPZ83KuTBEl9bm56R3gfLSnhS/By1+RkcG9ZgATSTCo9NleA38P0yG0QA8CRA30V7cAGECDQPY9nv9vPGQd5aU4/Q63bAgVCqlOGGBwS8rcu28XalUo6QnYYPgCrsGPtBvgwZ1R3yeK/PkohrIK7pNecg92I2JU/OzzR7wPPz6ZQTkREexzgtVge86CBqiT2KB8JnOZYOr6hPQe/4wVAynOQpz4x8sCdCAgC1LLyl/QQTFy2BtPur2RxGvAUlUbVdq4UydyOMQ6QoEocTXwfnVOl2vEx/A7HhX+gvmS9hJAL8Btfxntqpwj+nCqwZHpl5kBeyOP/kcS2ogEaAFoJLuih3USPmQ4oqiC6PGboAq8B3jQUPlyXwl0uq2QK7A/wD3Zpg6I6WJ90xc7+gfwGAjGgr0g/rB82UIVh1Bt3zhY44Eoz+3/GJiwFb+ok1pAAlEFMtWoPBAAAAMAIH6JsKMUFloL1TusePbx3VbXA8I41fGdoaqlHajoMY9BHciHRKKNF2YreEbVinis75TomDDDYapMCsFe1X+NEnhmKA1QxQjivYM6PKF/B9Y+RFLAPHew/M5GgpaiCJaKI7w8DA4MqM8YCAAzw6b1zjER9Qfk25W2GNMPQazgGs7JE8KMtTpHrBYBVEqT4c6ANDBQBcbjp4H5XwwzhKjl/8AP/X6MykfkAb3TDcU5C20TbowTUds+5ixFRs8+BD4v3gaF2i+X4AGUF/MnaVB62O5uvRABvcH9gzl9NLyM/6M2U7511zHB+o0Y2SbXoCRJhFpqTgjBlXhms/hMSZxVVdolZYusryx8oCobCrukErwpP5J4x3O4NSFOFGudPLDouF+vXKg7DdUH0km1qaShddLO/2EpUmkJ6G9YCXojgT1EaqX2X7nrJltfbQf9Lx+iTcbenP+vWLo/orNcbocovtAgP38/qaMS6Mh+kv1mjS2rMb4hGXWog9PP+3Diev1PtQSAsQOIhjOyJEIBobYstIfsh4yHAfjIWz+VHIIShlD3REm64LYMCr2iA+PoHdBYtSlC8s4uKVkAqukm7ZPeVi8RT1e6G/dymgXDJmdRvWBQDYeBT8r9Cu4RNzGkNUkNjWaQ5t7OH7J2bBrPWGdABNEzo1PrBlIZoFLhA1ozpBzd0W9eid+5p7Y4QRPUHdFLNs1R4Iwh2JpPJ6/m3lBH+qaDLkAXcErVHsZEh9C+cW10VHChQtyKgIRt1o1Q9iPrKGmzX9TAlBeeAz/AFjx/rEEx14EA/N+8B9OB4CXQCdI/sFZ6wO4ASV/t1Zdc0vgj6AMYNayHlH/ADyMTZmwjQ9SW7Er3D3j87bffv7Hedu/559aIuQGfCkwrpy5Y8AvBB/RPr9FNa8RXsjQdBhscG4sIGHU4oP/ANP2c2QxrY8G/wBJhjQxeUj+h+jPIm9h/LHH3YX+g+v55JSKeN9XQ1jAQoDj4TOKCoGKQIiOGJHLRqGlW7mHivAhVSD++GPBflA4LAWYBBVpWafE0mdO67HcwIB6P1FA5TCIccA4Jp3mkruJzS0DYLnEGbFo7M2lMvunyQheDvJnaWya2CAgOXuq5X2fx7ND+eH6BPODyirgANJIDROqBXkfAvIF+DyjFXZWEOI9mwXD6wiNh+BtGgciVUf7a/PoBsROCKAiCDiMYyoK6NHeIpe2xEeU5ClXUwRHRKoksclwgpkzDtv/AKAisCJwPD5y9HTi8rV+cifclfCU/eBCH7iMfpHFfCPT5HlwA0f/AAk//8QAMhEAAQQBAgQEBQUAAgMAAAAAAwECBAUGABESEyBQECEwMRQVIiMyFjNAQWBCoDVRYf/aAAgBAgEBCAD/AKdJDBCm7xy4pV2Z/ickyQ0YyxIhCEM9XETy9sTtpjpyRCf4i4AePZlaXwxhHuvA8P8AiMxltNZoJKmmk3D3tEDBzq771bTQKtv2O9zbSvr1RJEnM6sXkJucPUybxpIpcdpheg97RsVzpUh0uS8zsIjq2MU699y4r33bmrpjHkejWVEJ1dWjju9DJZPw1KVU/vVNCWvqxAXolTocJnEf9U0PFtqLZ1839juvvrMY7h23M8MMj1z+IvpZxJ2EGOmOwknW42O6LexbVV75CyZJ5ZlKfSKqLulPlkmK9BSxFGYaPZ3TJ6tbKu3ZqLJPDO0waa5BcR+JvWq7ay6Tz7lzdYPHT7x+mfBBYxXALcUsqoNwv8cJnPeIkR3dcqpFil+LDqDNkV8lpw1tlHs4iGFrdE95mRVEJVa8ucRUX7X6589R81rSeRZWbsRVbGOcskzikwd6LCK3qym2+YTeWLVRiciePmyLOrl1R+WbB4j0cWSvdTgFJC4RbatJVTnAdqmuT0x1ewWa1zxKr7TILC0cqO6qq4l073ODAzYb3o2WMozDR4/DKLf5dE5Q9RYpJslgGDG0Q0YhgBkM4ChAGMNBi7tmkQRIDZCr7+pj18+rNyisewjEeyXLDBjPOWwnFsZbpBNYvROgC+JP3KbkFVAJyysewjEc3ot7iNUB4yWFlLtD8w/q1OQTan6G3t++4RjG6xKlaZfjT9yupjoFWU7XKrt1WqY4dYFq+NxbgqI3MfMlyJ0hTG/gLvt5VbQsrgoLrtrUNTEUz25ym/nAymqnPRip5p2i8iPnVJQsXdF2Wsymxr0Rj62/rbPZo9TZYYEZxy2Nia0lKcnTSpVOl8NhOSM2YRI/UqKnTjuSOrVSPIGUZho8fVmwSMnjIul89YpekQiQT9ovcXbOcp4p454xVEX+9VWVT4Cow2R3qWxWsD1U1ay0lKJ11XBrJaCH00sEVjZjATIocIFogIUuBMgK1JHRjl6+sOgioqKm6dOdPZwAb4se4b0c2GdJUVhk7RPrYVkLgkXOMSq1FKH0PJU8/LqRzmru3GLCrrikLLurYlvM5q9OIXLji+BL0S5ceCBTGuLMlvOUy+S+3hjrlWkAq9pVN021lNaCusftfxgSCxTNMKBNFYQ2SB6Vdk3W0yyvg7sC+RaZLPaNauoiVUdBjucdiWjFc2ZClV51FIrq+RZykCGFEHBiMjs7VlUr4m5e1P4ESHJnHQIG4TYq3d1lR2VX9RujDrRoCviFtryHUM+5Z39jZqqErauZaSOUGopotQHhH4FEI7eEggBAmw+1TpTIUMh3Pe8r1e/ppMXWzjfEGnYS8Y1dFex4nqx/oY5Wiq6xCENm5kMvKqraHdxlVuSUzaqUjhdDnueu7qapPbyuWyHCjQI6AB2/NZijiDjt6auA6ynMjpkFq2jgsDGxS8lzDPiyc1r2iMyWzrHw8xOK/JyqQzm6qLF9VOaduUFjTcf54unF4jItONU7hmZVfbIzqw84Q22xMqmJMt3I2kmNgWgjOzBGkpVcnoOyCUWpWAXwR70YrE6cVnMl1TB9ryDJ5JDujxK63nR5w3u228tKqJqzyuvhKrAmzC5I7dk6dIsZCnN0/wB6XzXfwWVJcDkr/BoLF1bZMf2q1kOi1pip4RczngAjCWOQWdnu0n83zT2Yu7EXtN4Jx6c7G/8A3w/vb0Nl/gbLoYyFXZiVlk5N0LCmhbxE8Qs5hms0ibJt2lURybLeVBaiWrdV9fJtDoIA8PqEioN9hh0+Pu6M+usBv4XSK2fDC0p/GHFLNksAOHilPFGiPJjlIX3k4TBem4JWI28fdWHhS4q7F3RfQ9/CsqpdsbgBAxOriIilGwQ04WIRrnK1FRFTZcnx0TBOmxfCpajrQCKvv2ogxlbwvYMYm8LPGwhDsIb473scN6sd4Ye1q3KKura1kRToIUGzBPZwqRlgF/247zvYvNlwa141cV9Vi5E3VMZxwv4vwyr32RcLrk90w2tVdNwiuTbTcMqGp9SY3jofzj1dAj9hGOCAxGoa4M9Nh1rHoJxiyZ5HTnHFW2LZwtle1r2K10+MsOaQHgMjxER7KzLK+UNEkslxCN4mIrXe2pk+HXi5kiHPh2AuZH7VkQPh7ozU8Kuc6tnskIE4pImlHdqnzF2kVzXbpHv5Qk4SSr2UdvCOBetVvLkur4cr62Cq4wX8SnGGYxWMLCnBTbUeHMK7SKMA2o+dBkEVVGlbMI5EdEiMhCVzvnkIpnDIh6Ye70srhZLVEHVKySs1HjOcUYLils5iWFgSQnjwt30jnMXyhZBawXIrLKzl2kjnGxWWWNcMYnas0j8FiwvRTZBJqHcGgmpsgZxMkY9IH5hNElA/c17aY4gvwdIkPTZ0aSaIXmCHkbUbsQmRtRPtypsiY/iLHtp0ZvCn6hmOb5SZ0qWv3ETSIr18hV8434Bx6U/9yRb1FHH5Ori9l3DtneAhPMVo2R8HkuT74sMq2J9bcVomprI8bhxYSyYmsRgPk2aHVPbtWVVrrCtV4+hjnDcjmwsutYv0ki5lWH+k7DUFgm7X0MB6fS/GxL+K46b/AIrjs1Pb9PT9fp6d/aY7LX3THC/8m42JF+paSsCn3HmxiGu7n5XSRv2ZObyHeQJd7bTvInRh9d8TOWU/+vEg2FYrHswmtaTdYsSPCCggdryTG3De6ZF6lRF9xSZIP223duz2bkl43SZVeN1+rLzX6rvdOya8dp99cvTzJY2Bfzcqu/L2Ty6osU0yQ0Iq6CKthtjj7ll1ZXxHNOL1oNJY2IHFAu6L59eMUfy4HPN3J72CYr32lgSznPO71CwZYANMTUO6sq8KiA5znuVzurE6LnOScfueY2Pw0JIrV811Gx65lD42S4MyCTgP6VnkzLKt+FX0ccsWWNa1e5y5YIIHGNZTy2c1x347jTIrUkyt9TIkecBQmuKstTNULv4Hvqtxeyn7Ofb4zNq2KVMftlqpyPcx7CNRzeNqO4e4W2XLClvACwtJtmTikYxjqtVJkrxzCE2RV85NeX9+pDprSf8Asw8HeuzpUGmrK7zDpzWuaqOyGr+WWCtbDubOANWAcczi81aOY+fVjM/t2QQzQrUiPa5zXIraCwk2dchzeN9t8mPuvtqpjAdVhV03Gaiai6ssVsYO7xf+/RxNg33TWv2TpyGq+aQFaxUVq7LrH4r4dQIb+3SocWaLlnHi1IN6O01Ea1ETxzG2RrPgBr5+WoQ1DDGNfDIK+sfBLJNr21TYiORGQ01cKqt9Dw+lH+TcZo00fE6Qrdm3eOSKlvNbiP8A5xnXZ4zX2T1KsDEa+GZCk7rkfEl2fixusdY2DVXxzOVyqxoU99UsJJ9oITvL+ujKhqSjJtho1fbq7v2UUBprvi42FmKCeWM7wT31mcnm2bRJrCQcc0hV6bQHxNcUWsGGrimKvftk336Lo/xFsZ/hhIFZAIXrDYS6CzK0NTewrdmzP8CZVcZ7l1jwUBTBb15IPl3h00IpAEQg6Kz+a16Fd/gLICxrAol1i9sGbBZHXp9tZcxWXblXWDtekYzl/wABlVHIkGSXHStslXbWNY5KBJSXK6sloSWrWmBExG2MXYsGECvitjh/6lX/xAA8EQABAgMEBwUGBQQDAQAAAAABAhEAITFBUWFxAxCBkaHB0RIgIlCxMDJCUuHwEyNAYJJicoKiBKDS4v/aAAgBAgEJPwD/AKdKgMyBGkSTgR1/ZRYj3lXG4czuhRUTaS/rqWVIILPNiA8jd+yRMqJzBLg5Nrx3dk/sn4AxzM2fANCgOyAS72k3ZRpgBgCfU8oT4j8RmTts2N55pAl76wFLOTDeZ8I0LItm52SAMF0qDj2NBPdHxEneekfEQP4j6+fGSQkDc/PUHJoBabhFUieZmeJ9iWKh2Rtl6PqqA5zMz3dIEjE/fCNN/qpvSNKlRuBnurw83otI4SPLVPTCw2C9IxtNRT2VpKjskPUwPCnxHIT4lu7MiQF5NBCipRt6XDDVWD2kX/ENtoznjBcGYPmodaJjG8bRTHUplCn3aLxElj3k3fQ2bq+xMkAJ5niYrJPM8u7Q7wbCMYmk0ULehv7hkmYwBqN9PNh4FGYuUeR4HUZjiLQcDBzFoN3S8a9ICbkzPCW8xoVEYkDrGg/2/wDmEKRjUcJ8I0T4qPIP6wXUouYr2n4Bu8fy9G4GJtPLUTo0mlCTjlxMCVhsIwxwrFCyRixc+bB0qDERMWG8WbbDjqHaSoMUuz3bRCFBQskdjg+oEKKUfKJbzUnhh32PaZwXaWREaPsj5kuQMxX1guDQih1n8xchgLTyG+zUJqIG+uwCsUAbdCQoXEPCQlIsEhu83kpB3g1GM5+1c6JVf6TeOY3TqXBmCLRfBkn7YYmgip4AUGoNpFCQPwj/ANG3Db5npPFaACWzaC4Mx3ZqNE2noLzBe4WDADnU2+28SPlPI2ekJ7KBUO7m+VjU26g4B8IxFuyzHzOoEszIR9YqEp9B3JqPui0noLYLqP2wuAu5/ovd7KW3ewDmgF5+mUf8c/y+kKKFGxVDkab28p94hxmCCPTUfxECw1GSuRcQrsq+UyOyw7NRZIH2BiaRbQXCwDneZ973CCxcgA4teIL6Nz2cvaT0VhtT9LxtEEEGhEwe+olKksBcQZ73GsuD7pNQflyNlxlTymSzMigViLjwNsJKVCw/fHUfxEXGoyPI7IcaNM52m85UG3Dv6QIADl7cvuUaTtgh7HGBaXePhLviAHbbSE2AEBz4pyFbGe6EdkqDiYs7p/KUZ/04i7Ec+/V1HYwGssRTDHZHxAHePKUPcbRkY8ejH8hmOY3foKwSFN4ZPmB/UYDJAYC4Y4m3vHxJ93EXZj0y7qmSPts4EhJItAHWvc+Xn5XJKw7XF2Oy7b+nLKSXGcUUNxtGw6/zF4GQzPSC5NB8KRaW51MB1WqNSelwsgdnSWEW4EW51EJ7J4HEGhEVNTYBaTlZjBcJDT8rMkAJ3TPE8P0KXUftzhGkSDt6Qjw/MJjbdt7qgEqml76EbfWJrNEipzuGMK7KPlS7bb4FKk0GfSsTUaqNT0GHrrSFDEP6wkJyAHp5XRIJ22DbBckknMzPeWUgmQAdwKnJ6XxpO0RYZPkRzgMRIg1GfsZLUO0o4VAyAjRDsWOS5F8oE6KSWNfUGB+WuYtYio6d0knGcSSJqNw6mzfCWSOJvJtJv8w+Much9Tw71pnkK8OMABRknAAVa1pAQvtFnBNcRzj4pKzFDul7Cjh8nj5W3sOeqnxC8W9cxBBHaSQeB9ZjvCa/EdtNwbzH4UDiSe8WKkkDNwWzj3UeEZgueMtke6CxyMj1ifiSRv6exDhgAq0AESN9K1v1ksah5HMd4+LR+E8ju4+Vq7KElioVJFWNgymY0qiO0HBJIIecjr/MXgfCMz0BgpSLgl/WG7RAEpU9islFey8t36L3T4VZHoZ+VVCS2bS1oCyKFyDtavCFMn5UyG207/2RXsnr7MfoUk5An0jQr/iekaJSReUkD07lpA3keVUgflmaTY1z3ikB8bALz95QCVfM5B2CjbIUNINyuh3iNCp/7T0jRlKVFg/MWc+57yi3U7IR21WlT+lI0IGTj0MLUnPxDkeMALGBnuLesaNScwR9PZiQqbBn0qYT+Iq9VNgpveAALhKDMVw1JZpqApmBZi0jr+dPr5WARjOAAMA3coobjYRlFRI5jXYlTZy5PqYNMmtbIku0dILpx+zCWjQpV/iI0bZEjgDClDb1EaVQ2p6Rp1f69I05P8ekaRXDpBWf8hyEJfNRPONCknEPxIhDDAMOEBoNb7hCmuOFkSUKjnAcGPhURss4aixEwYP4a7X90nA8i0aQEZiDqWEjHlaYWFDCzMGY8roS+8P6vrD9kzF4MjBdKg4MXD0gsYAVjSB2MRMx/KzbBrdSJtCpi4+rQ5GDwCBBYUnb9YU+EDj9YM7TA8Fh62iFDe/CcSTfaeg1CQkTY0FkgOThCWCjTCgfFh3OUEjbGkKhcp1D1cbIOQEgBcOtsGS5EbHB2N5X8SfQ/UdzxaM1TdiMcLeMHxXUUMxzmMYV2sDI76QgjZz1kjKFk7TBY+uBjR7iPQxo54kcoOyyFOLjP6wkPkesKcXWap8Y0Z9PWFBPE9IU6h8ImScbBtjw6MGSR6k2ngLBrDlRYZmNMB/aCTxYQpSjm3oI0T/5K6wOz2ahyQRfMybrqHh0cybHIYDi/lYdejmMRaPQjLuliKESI2wRpE/1V3jm8JKD/IbxPeIUhW4HdIw4yPWNI2wRpBuMKTx6QRvPSCneekKTx6RpBuPWNIdwHWFbyB0haHz7R5wknJLDi0aEDFRfgG9Y0pAuT4RwrtPdHh0dP7j0D7W7gcGRhaiLpDizyhPZSLPuufliXSZqSKi8jC8WWS9gtSciRH/IVvf1jTncnpGlB/xT0jSD+I6RpB/FPSNNwT0jTq2MPSNMo/5HrE85+wDqUW6nICZigtvNp2nzM9lazNIob1YNbYX9uhwmVWJNWAt9iPzFD+IuzNTus8zLATOUUMgLgKDnn7VBCVUJt++OrSMkl6Az2wXJn3x4R7ovPzHC7HLzQ+LSV/tFd9N+rRFjeQPWNGUnEVyNDv8AZ6BjKbuxFoDXY+yDKR4SMqHaJ+Zlkj7YYmBMyAuAoPupMB1mYFifr6Z6kuk8MRjExUG8dRQ8P0Sfw03qrsTXfB7ejFoqMxzDiPcVJXXMejwXBoRbBn5ho+0UycmT2hhVqZwp2oBIDIcy8CfwpPBRF9wsrd3B4tGX2GR9voi15kN55PGl2J6npGjD3mZ3nk2qhgeBU08xs9GjSEJNlQMQ9IUe1e5d73j3iGOYLH08vElEkYgz4Gt0VBhLFyJUIFofHj3PlOpAPgTYLoR2FXplwpwj8xGAmMxbi3skg+FVZ94eNM08xtgMRUWjPV7zOds+fl6AoYxonwJJG5/WAwHcqWKjcKgbandbq+FIG4a9GO0lJLiReyYrNq6yR2hJILEC8ljM3WQpe8dISpWajyaNCN56xoynFJPNxwhXb0bs9CMxbgRuj5VenfdCzaGnmKbYUVkUBZtwrt3ebXj0Dc4HgQe0dlBv4P3DNauAmeLavddzkJ/TvWMdxEWJJ3t58HUAyhaQKEXkUa3ZCSHDmVCk0Ob9yiEjeZng2r4UtvP071qT6SiwJG9z+w/mI3S5aviU24dSe+ZBSgQaEAyfkY8KxVJrmDaPst+wrSfU6rQ++fftIO8CCyhMEWGPeElZjrI/sEe6oji43g6iy0BmvAoRz79oSeDctVO0BtAn+wUFRMlABzKhbhhGgX/E9IHZ7PuptzN2Att75H4iZMaEZ2EWboAQm0kg7gD6tA8Kd5NpP/Ur/8QANBEAAAYBAwIFAgYBBAMAAAAAAQIDBAUGBwAIESBQEBITITEUMBUjMkBBYBYXGCKgJDM0/9oACAEDAQEIAP8Ap0s42QkDCVq7gJ1gn53P9ID3HWEcJx03HJ2GfYtGkY3BBmYxjFEptwuPq0nVFLA0/o4fOscy0VM0ePXjvDOyiKeK5H1P6OHuOttleWi6OeQVyJkmIxu0buH8puniSoj+HXXJluvqvMp3utUS328pjw8Ltlvb/gz9TaszCOOBJ2FkK7MLxj77DVss8ckQRgIdGvwjaMR3SzBF51hGE77t2YItcYIrF06ctmTVRw4yNZkbhdnssj9jCEH+O5LYJm5D5HJVm/y67vZIvRA1axWdx6EUGBMrCl59T9Ht1X95Xu22yYSfY8+jDW5iYurcEWIfZ2sQvnfyMsfMlnNVcePHCfRjmmLXy2N4oISDia7GJx8bo5CKJimbJO36DsCB3tefMXkY8UaOu6YNvhKVcCputTsHF2SJVjZHJuNZXHM0KCvWACI628Qv4VjVFY26iXP5oyLL0VG1SlMn0ZZhjnJkHkeNMs18PnW6GqtmztnYEe64BygFijAr0lq01eIuEGrFyV6pUtQrApFvtAAibgK5hnItnIVVsw2rz6pAF6bamby/8ZfbBc2ZBMwr21p0byKzcVGMoWMQj2e6VuqW0MFx6P51gfHw06rA9dh76yLuCh6m9BhD0i9QF+iAexu6SwtjIsIQndYmVfwckk/ZY/ubO+1dGVR1kfG8TkeJI1dP9sVzQkiptKJh+n0RIqiXuI8j03/G1fyM2QRk7ZtfeNWxl68+YPYx2dq78MD44/zKxfiL0R5HU9Nsq1CuJV2+dqv3qjlWOlJKHcg4YykrJTb47x/3bbLPvmVtWiQD48OftZjxK2v0cL5g7aOWLk7dxW6/JWmbQi2NPq0dS66hEMhEADkc75YJbHv4HFdx+dVbDeQLexB6xdtV2LpRuv0Y7xrO5FlPQaU2kV6ixIMYv7uQsP1bIP8A5C+KMPs8bGcOVh9g1uHygrFkGrRnPcsYVxC2XthGLpJkIBUyX90i+vEmul442x1KZFnAaIV2vRFViE4yM/YF4Ewc31Z84usio868d0CSyHYCxrZXakr6f5VtwHfasgZyQQEB47RiuxNatf2Ei6KYpigYt5wNTbeYzltdsP3WjiZV1qs1uUtk4jFx9JpsTRa+lFMenJp78lXfWqVYUnVa61PM9X8c9OY8KpXbzTEQ+YvIx2dq76tr0gwXqjxmnoPYeQ3A4oZqMVLTE9oxNnlarIJw89Fy0ZOMCPY8eBDgb9gOqW0p3MfhfFJsesFnMj1ZJu7iiQIPkMZ3ORvNdF+96cm2d7T6M8lmeGrDaJOiGlLRXrdXLYCxojozPilve4kz9ich0ziQ3TtUbuPqpVx4uGyD1uduvYok8DPuo4/aKld7NSX/ANTEY2zrX7ucjB99gDCUeQExjDybpUTTWTFNTOdSvN0jmcfBYwx+2x1WwYB07i8bFi33+Tx/RAV+Ws8qnHRuN6Ozx7Vk44nA+Bv0jrNCRUspSoF7SUxiGAS4Gu0ncqcYJD9tMRDGfilo17caw9p9kcxLrRSGOYALRNvtutIkcyTWKoWFKos8SvmQ7Bfpczt5jXM9horsqDiuWaCtscV9E3K3RFHglJOStNgd2qwuZdz2rAECaExq3UP1cD9qwWKGq0WeRlHG6KmJOBIlTMqUu9m9KN6NydEcyzBCwMMd4psmRHPLWj4kptFIVRrdb1XqHFC9k8iZKnsiSQLPPBlJSEYr6rN/LykqcDve1VOvuLTY2sSg0at2LVNsh05SzwSizn4RH1fdA1cvARnmrps+bEcN+sAER4DM90fX27mYtI3a1HGiifiF9x7Y8WzaZVsJ5KUv9fMk96G7Zu0SBJDJGQo3HUAL1ezWeat0upIynb9r9cB7Y3cyp0321o0qpupc+IKEfKVpcyEzuCxbX67GITcLtityz6Nc15x1uvW+lU9LD7IH2UoxJcPjWQ6U0v1WWilsFMJyq5dGKe+3TnixuJ7IzpI3cNtMeVpj1Rx1bjYeUlce+dngWsGruOkDq5SrS9uoT6NQ24iu1yeCI/YRw/AMchpWxj4GbNjOCrm6dwFVcV+/rO+14gwXCtIhKXsV0x7VpiqPGyWgKYwgAUfb5brQQrqQjtuONWaAEc1arRFNhyxcZ0iAD8gAAHAaLBQicqMmT9jl2moXWkOW+h+e04/h05+7x0epyA+4asG2ipy8qd2zpeIKRRzAs0/emKU5RKZ0UpHJyh2jFb5GNyNFOFeBD2H7PJQ+fMUfv8hp28ZsCed0peaSibynYWetSiwJMvGScgyjl3AnMJjiYe0JqHSUA5MW5DYZCrqa5LhcoGjRJn8q93HZDWnBeNqhuSqkuBUZttcak8b+uhDXapWKSVYRnjY56Pq0E4lntkz/AJGmnpjtWebMosjgYsFuhtDTgkrA7icdS4FK6ibNW54nmjhIcocjyA+HA9QAI/F4v1cx8w+olbhuEvNhUMmwdPXj9cVXKjRymgVY5TGIYDFwVmR+7fJ1ue8MhLHb0KVUL2po9dsFfVbO3rx+r6jnw51TrO9qFkbSzZu4QeNyOEfDcgqunjQxSax5j+JnYk0hI3CiSVVXFQoCQQ9+QIPJYy8XOIEAZNM5ZXZiHCG5LJSIfmI7oroUP+Zd01nD9Q7prOIeym6S4D+hbc1kRX2I73BZUd8+V/lbJUiAgu5dvpNb1XQNwD3HyGVVBNOGqzJCpoxD680xaqPw9Nuuu1cEWRqc2FkrDKV8HjRs/aKNXF72922BenWhXVbsLEwlcKJKpDwfgdVyqWK3PRaxFkqdiqD0Gkx2kPcdYalRmMZRqw+F6qyN0qbqHUloqQhJFVg+xaBgpSHKqSS6YpqTGIoB+sKrOCxPAxS4LO7didUDmdQjpu+jlhRcCqc3tpdi+YkIo4KomPydRMA9m7V08MYECHKHz6qYB7JprvVypJOcSTqUSk4QSotyVV9IKNjVOCWK/kQ51k5zClq6jd5ExUjNSaTBjRa2ao1FnEG8fOpxpVBBcOFbPiCgWpuYq9Lo8DQoj8PjM+V5nNY4cuDj89q2wywO6Y5YD45NxHB5Gb+qMiwyZiJ16LqGzDEueCSMbYYOXKAs/cPBw1aPCgRdvDxDU3mQmoSNn2QtXz/CygqiLJlhZUVAF5AVmIrTf0mMxj2qzSplFSYdrRD+Y0JVICv+7Hn+NHMVIomO+uVWjQH15HMUC29mkTjvImVpYZAcc4nruO2wnQ8HzxtHMlXbiZ3TQqHJYqR3N350Yfpls+5UVOJtYYzbYp6zkhbB863E2xrCUY8WA/PasB3VCo3MEHY+w8dDhu3domRXs+3igzxjLNJ7bPeI04mjHMZl6n+yzfLVuam8qyGanheAWSzPFiH5hMx1sf1BmCqiGhzDVgD2PmSvB+lbM7AoflLZqejz6JcoXiSN5GbeOztYQ/IabfMpTZwNJQu1mHREDS1cxRj6rCB2XRuQuhYSrlg24+/iyeuo54m7bL7obmdkCaU/YZi0SZ5CU7UGsJZtQfoJV+wiHA8dIe2gMYvw9hIaTDh44xfjlyP5i2E8WLfJ8A4pOPsO33Fmi7fsVh8o4LxWj8IYkxm2/Q0ptQYf/Mimm3L5UhETDyPx1Ts3HVuHXk391tj+7WNeWd9x541t2vVvsSCsW/8AvWjJtMpsohHyxTAYoCHV8AI6zplMLnKBFRvcmjRw/dJtkKDT2lFqzeJQ+376YWWAlJVeNaas+NKTcX5Hsuggk2QIil1bg8pjGNzVeL7nttpgzVoPOOONTWY8bQDwWrqAtFetTX6iJ+yHsPOqRhB1TLuM8T7Aew6zXTHdPu6/Pcq5Xpa1S6UbG0ipR9ErCMS2zRm5xOrqQcBquWWaqsqSRjMdXthkGtkkkP2A+wCI3fO1KqJTot8d5yrN7dFYKZdx8XINUMgg6aOWTk7dcG64pCqHb8d7dyWivt5iUp9Cq9FaChEZ2zKkuRSswPjtxsysPfAjTBoCHH4/nj7fAj8WXJdFqICWSsu6RAoGTgbTk+73ERLJCPOkVVEFSqJ4gvv+fVEjhey40o9veEdyqUZHIR/0KeVaw1qN9exrXt2H7NHWSgMhbLopOUDoqZeqEHSLkeMi/HExFlMlRIJF/jWQJmVQv8oKNYzjkWsmKUKNn6m2ryt34DyXkOj41yHOufDcC6es8arKthERHnpw3fgoVtIq4TUTVTKonxz7azFPt7Jkd+7b9ugLNP1Z99XEvM+5RdtPQ0sss5WMqr47bceGWcjbHhRKQQEbM+JJ2J48J4YfuN4RtjCFj+QH3AAERAAyZuIeQ02eMrf+5+/ATjTvcfk1x/61M5ZWVHkYvcJlCPWAy2Ls1RGQlvw9bcOPGLXIddEzjcaQyKwLbtxdvscadiz7oHzrCxkDYujPSzbeUaZTFU0x9/HbJBfX3dWRNrKFlPUqG+kUzCIjyPRgB2VrlNkBty7sEMdkS79gTLkbWUTV+b3NRzCVqjGbQ8ds0IDCjrSJtbo5X6erMo8vTRZYYO5x7/W6qQKnHxseHfQ5DQqqiTyD4BrGMWENj2La+G6GV+pt7RgHSAiA8hI1Gu5aozFWSyJiiy48cedz/QYxIqEY3TKPxrMkmaWybJqj0h86wq7+sxbFnF+wZSjJRo8yvRf9P7eowS/oFMlE5uosHxNZ5x5JVq0LzKfSOtu7ojjF7dMNbqVWxp2NTL3/AONbf8qxETFnr00a7UsqXqjm/NMHLQqlegerB+W2OP1V4+Vn9xmPYxkJ4+12iVuM6tKyP9AARD450I8/9Oj/xABGEQACAQEFAwcJBAoBBAMBAAABAhEDABIhMUEEUWEQICIycYGRBRMwQlBSYqGxI3KCkhQzQENgorLBwvDSJFOToHPD0eP/2gAIAQMBCT8A/wDTpotUI91S30BtstSmu9qbqPEgfwUl+m8+aomQGAkecqalSQQqAiYkmIBprSQYBUAUDuWBYyDocRbZlpbRTdAxQXQ6ubpvKBdJBKw2B3k/wSwNNaSJA9RkUKyHcQQcNxByIPLqKYH3jVSB8j/BJM7VULAYwEToggZSTexiSAN1qT1BWZlAS7IugEk3iMMRbya7PoajqoHcgYnxHbav9mDK0k6NNTwUZnixY8fbmxvWVTBKgXQc4LEgAxjnlarS2ZdxY1G/KgI8WFvKbGvHRJpgU53EXi8cRJGcHKyXa1FirCZEjcRmDmDqCD6ES7kKBvJMAeJt1aFNE7boAJ7zJ77H9VTZz21GgfJPn7eGNWpVY9zXB4BeRwlNAWZjgFUCSxO4DOwinUfozndUBVJ4kAEjSY9CJSkTVbspgsP5rosY/txsZRnKp/8AGnQSO0AHv5uyvXYZ3FJA+8eqveRbyf3ecpT4X7bDUoj3mU3e5hKn83tc9LZ6rqRweHU9klu8cgueTakdJZJeoMSlU4RdzROq3W6REL6EdRUpKeLm+3yRfGzRVqgUk33qkgkfdS8e2OaSqNLVGGa01xYidT1V+JhakKVFBAUfVtSxzLHEnXTkEqcCDiD2g4EcCLKNm2oSbgwpVDuj92x0I6M4FRMhClSmSrKwgqwwII3j2q0bNtMU6h0Uz0HP3Wz+EtyUw9GoIIPyIOjKcVIxB8LS+zVJNKrHWG5oyqL6w7xgR6EQ20u9U9k3F+ST32PRh6rdshF+Qbx5pHnKc4HFWU4MrDVWGBjEZgggWmnXSPOUmIJWdVPrITgGgbiAeYoDVZpVI1ZQChPG7Kk6hROXtZ/+qoL9mxzqUlGXF6YEHesHRuRL1N9R1lYdV1OjLpoRKmQSLCYxRwOjUQ9V17ciM1YFTly7EUpn16pFNY3gNDEdgNvKNKmdyo7/ADNwW8rY8aH/APW200a8aSabHsvC7/Nbbwu9KKyey+8CdJCnhNlu0qKqijOAogSdTvOpt1WoEDtWo0/1DnJG1bVDNIxSnmlPgTN9uJUHFeSmu11gT5wkkIkGCoIxZ850XWTgKmIAv0yenTbUMN25h0W0OYBmoC1ZhuBFxJ7ekewcfazlKtJgysNCPqNCMiCQc7C6x6NRfcqDrL2ZMvwkazyP5qpTMpUChis4MsSJVtROBAYYzO00alEnrklCo1JQgk/hLTakK+04TWqAFp+BcVQbo6W9jz2dTRLFWpkBukACDeVhBgHfIttfniP3dUBWbgrjoE7gwUHfamadRDDKwIII0IPKk7HspBM5PUzSnxA6zj3QAesORop0FLnjGQG8s0KBvIt1nZmPaxJPzNqz0qgyZGKt4gg2rNVqtEs5LMYECSdwAA9rqzUdoQsYBIR6eKudACLykmJkax6VQu30x0TkKqj925353G06pwPRQo6EhlYQQRgQQciNbJeq1WAG4DVjuVRLE7hbq0xi2rucWc8WPgIXQWys87HRaWYZVqgwkHWmmN33jLZXY9pbJFFuq9Rlphvu3jLA6EC7xst10YqwOYKmCDxBEc0XKKR5yqw6KA/1OfVUZ5kgSbUoBi85xeoRq7cNAIVfVHpgaO1AQKqASQMg6nBwMgcGAwvRhaqK+01OiHClbtMeqAZILHFjOQAGEzZ4qus13BgqpxFIcWGLn3SF9Y+0xNN3l+KIC7DvCx32F0CAAMAAMgBpAyGQt1Wr1SOy+eZ0KKQatSJCL/dmyVdcScATancpJkNSdWY+szZknsEAAD9gytPnDXqzOkOQB2AQBwj0DXEALVKhUsEUakSJJaFAkSTuBt5WBbjRMfKoSPC1NdporiWoyxA3lCA0cQCBr7JMUleHOgV1KFjwW9ePAWMjMEHDeCO7EHdZf0TaWk36YFxiffp4DE4llKnfNqHnaA/e05ZPxYXk/EANxPIl6pUMcAMyzHRVGJO4WGC4u8QajnrOd05AeqsLpziP0lXF5bqMzJkQt/CQYMZkTGVgBtZQGqAAIc5iBgIwkDCZ9IAm3AdJclrADAE+rU0DZMIVtCKZp1EJDKwIIIzBByPPpqtanVBdhm6uvQLa9EqyjQDiTy0wtRMa6KMGU4edAGAYHr5Bgb2BBJ9kXqmyLgjjF6Q0B9+mNB1kHVkdEVlq0nyZTIPDgRqDBGoFsv8Af9iwGybUcZQfZsfjQYCd6QZxIawVtsqkqSpkLTBwVW+M9JsvVUjA8/Y32mozXVVQbowks7KCQoyAiSTAIxNtjOzOrlIhrrCAQyXgDGJBzEjA6DmqGqoFCyJALsFvEahZncdbVM3ZkqPdSaQA6TYKAt69dYwI4RbaBWWkwVioMAkSMSBekTisjDm0wPKFIdEjA1VH7tt5j9WTiD0ZunAQRgQcDI53Uu0l7WvMfkAfHlF5HBVhoVYQQe4m2dGo6flYgHvGPsmuaZPWXNHG5kOB7cxoRYDZtsOSk/Z1D8DHEMdEbE+qzehMWM85QynMESD2gyD3iwVqBcmqC4XGOgzTgaawZElrxELkbP5ys7X6r6FoAgTjdUCFnE4kwTA5qRSrNFYD1apyfgKmul+feHNpGpVc4AfMk5BRmWOAFmDVCb9V8g9QjGPhUAKgOMCdeZ/3Z7yqk/M+yjBFiWq7M4plzm6lbyknMsBgx1ABzJ/Z1vUqylGHA6jiD0gdCAbdak0A+8pxVxwZSDwOGY5BJOXGw/Q9nOMuPtGHw08CJ3uVGoDZWTzaKOk5g1azeql4gSWOSrCriYABNqhWnPQpAm4i6AbzvYiSdwgWdto2M9amxkrPrUy3VYe7N1siAcRXFWm2cdZT7rrmjcCBOkizQqjork1RtEUHMnXQCScBZQr13LEDITkBO4QPZYhtpZqx7DCp/KoPf+w1hSormTmScgoElmOgAJ7sbbHXdB632azxClj8yO620RWifNVBcqbzdEkNGt0mNRzaJepRBSrdEnzeJVyBjCNIJ0DAnATYeb2dTD1mBujgoGLv8IwGbFRjaj5zaBnWqQzz8I6qD7uO9japiZuIIL1CNFHA5sYVcyZgE3KKT5uks3UG/wCJiM2PYABhy1mptvRip8VINq71SMi7M5H5ie/2X1qzqvYD1m/Csk9lhCIqqo3KouqPADnbMteqqg1GZmCoxxCQuJa7BOIiQMTNtjFJD+8pFmu8WRpJG8q0jccrOHpuAysDIZTiCCMwRl6ElqFBzSooMmabrPuJdsAfdCjfO31F2ojpXFU01O4TBaMr0gEjAAWeVY3qVZJAJU+KOpiRpIIJBBsw/TNngVDlfU9WpGUkyHjC8JgXuZ/v+zZAiicFAUYmSQAAMTnvONhfrPK0qc9dozO5F9c9gGJFqpqVH8FGiqMlVdAO0yZPtBZXZ0uLPv1MyOIRW/NzsTTWEHvVGMIp4T0jwBszPQpm/VMw1So5JC3hkDDMxGMCBEyKAoreFOoizdxBKOASYMqVbfIOcktPmPtKc6Ixh1HAMQw3Xj6DrXWu/egx3zlxsJireM70DPj3ryQHPSpt7lQdU9hm63wk6gWpNTqGnVWopkYAXwdxEqCrCQcwec32ezHzKDQBOse1nLEns3e0RjWrue5FRR855ylhRqrUqAZ3ArKWwzClgW3DHIWWKm0k1m3gMAKY3joAN+KwmqVDoN70yHA/FBUcTYEE0qysDgRABgjMEMo7/QuabAuz0oBRmdWUspkFDLFisEHSOWmpqKCA10XgDmA0SAdQDB5w+y2v7VDxyqL2hsexgfZdAVtoqgMtJ+pTU4reXC87DEhpVQQIJk22GitTzT+bZaSKysFJUhlUEYgTvEjXkEk2/wCjoHEF1mow3rTkQNxcrwBFqdWs2rNUK+CpAHibBhRVmYBjeILmSJgSN04xnPodmpjaSCDUCAOQcwWAkzrM/sSzWpA1aR1voJK9jrKnuOnsrFalamGHw3gSPAG2XJtVTZlckmmFV1BJk3JIKjgb0aYWoedrj97Vh3H3RAVPwid5P7dkQR4iLZAn6+yTCiugP4jd/v6M2PpzaqtMb3YL/URbyps4O7z1P/lbbqNVz6qVUZu4BpPhzPUR2/KpP9ra+yTBBkHcRrZh+lUwBWp+sGGF8DMq8XgdCSpMi1S4AOinr1G0VFOfE9VcyYs6U6OIFEorJdn1mIvlt7Bl4ADC1M7JVPrCXpE9oF9e8Eb21t5QoMm8VafzlpHYRNttp1qtNQzBDOBMSDk0YXrpN2ROY5hilRUsYzOgUTheYkAA4ScbbSdlpYwlKBA0lyCzGMzIG4C3lOo0aPdcHtDKbbJTrrvWabf5L/KLO+yudKiyv50vDxAtttKt9yohPeJkd4sI9E8M3Upr+sf7oOQ3sYUbycLP+h0DhFM9Mj4qmcx7gUcLVGdjqxLHxJJshCNN1owMYGDkY13WMEZcLVS9/CjVY9IHSk7HrBskJMgwskERyZjZ60fkPsuoyONVJU+IINqjO29iWPiSTzDjSYEj3kydTwZZHgdBYyjgMp3qwBU+BHLk1akG7OkfCQO+OS8QxKqoN0YZsSMSZyGWGM26ezk9F93wuNDxyOY3Cxt5RrUwNBUePCY+VvKBcD30R/mVn52FB+2kP8WW2x7OewVB9KlvJ1Dxqj/I28nUPGp/ytsWzj/yH/7LU9nXspsf6nNtrWn92lTHzKk/O3lWtB91ynyS7aq1R97MWPiST8+QSTgBvJwHibUw6hekD7x6TQcwQSQCMRGdiWoVOoxzHwtxHzGO8BirqQVIzBBkEcQcrZ16aOY0YiGHcwbkUNTqKVYHIqwgjvBtSO1bKSbt2DVUbmTAtGV5AQcyAcLbHVQj3qbj6iykdoj68mzNWcCSFiAN7MSFUbpIk5W2ZqLkSAYII3qwJVh2ExkfZZkqhpntpsUHyA5TBqr0ScldTeQ9gYCeBNqZp1qbFWU5gj+2oOREESDbe/8AWf72UMpwIOII3EaiztQJ0HSXuBxHZJHZZztDDIMAFHasm93mOFsQcTSOn3Ccx8LGeJyFMowzDAg+B5KTKHkqWBF6M4nOOFhyIXIBYwCYAzJjQb7DkUszGABiSdABYhqxHTpzEbgpOBI9YGMcibbE4PEQPE4fOxDVx1VGKpxJ1bdoOJgizgVGxpjNi4yIGgxIY5QdTAtTNStUYKqjMk/2GZOQAk2qX2opBbQsSWaOAYkDgOYTZFYHeAfqDbYlpVDlUpAU3B39HotG5lI7LIQCZZ2xd23sYGWQAAAGQkklR5zZoqIYxHSCsOxlOPEA6eyz0qNYmPhqKCPmrcw+Z2xRC1QMxotQYXlGh6yerI6JQijPRMX6Dfdb1Sd0qw1FqTUm95ZdfDrD+btttKPOgMN+UwZ4Ry01cbmAYeBBts9NTvCKD4xNkvLpjBB3qdD8iMCDbaxd0DrBHaVwPgLbWLu5FJPcWIjwNqcE5scWbtP0AgDdahcqH1kN0ntGK992bVapG68v1uWoBW1Y9Jj3mY7BA5DA3kwPnba0kaA3j4LePjFqL1TxhF8TLfK1A06Tn9ZUlaaroEB6TgDRAZOJOJNvtdqYQ9ZgAYOaoMQinUAlj6xIgcrXadNWZjoFUEk+At5Per8VRwg/Koc/zC1GhRGkIXPi7H6W2+72UqQ/wtVFUVwRTe6qsrgSFN0AEOAQJEho0PI32+1kKBqKasGdjwMBRvJO4+y2u7PtQ82xOStM02PAN0SdAxPNRXRs1YAg9oMj5WVtjqHWninfTbAdiso4Wq09pUZQTTf8r9Hwc2o7TSUbwzp49JbXH33kg/ylTbY1P3XYfUNbZHHYyn+wtRqjuQ/5WSr+Vf8AlZKv5V/5W2eqfyD/ACNtjc9rgfQG2xqO1yfoFtRWdyU2c/Mt9LbPtAXeE80PzEJ8zaslOc/O1Wdh3IH+tvKD1PhpIEH5mvH+UW2BC49ep9o/aC8hfwqOa32219aMxSU9LsvsAo3gNzHK1KbBlYZhlMgjsItstBasYvDnHUhC10TuxA3WrGrWbNjoNAAMFUaAAAbvZlW7WUBaVVjg4GAR2OTgYKxwcYEhoLc4xbZadX79NW+oNvJNDuphf6StvJiDseoPo9thYdlar/zNtkf/AM1T/wDbbGx7a1X+zC3k4HtqVT/mLeSaJ+8Gb+pjbydQTspU/wDjYBR8IC/SLGee9ylSUsx+gG9mMKo1JAtnUPRXREGCoOCjPeZOp9p0zW2egou1yekp9WkxP6yRip6yAYkrEem2i5VqicFLBVJKhnI6oJBGupwAm2v+z2HT0DzsVA5jKrUGBfiq4hN+LesI9pLed2CqBmWYwB3m0FlE1GHr1Gi+07pwXcoHpdpWpXoCaiqZKYx0jETOBAJIOccmyecqqAt686yomFIVgCBJzx42UKqgKAMgAIAHAARz3+1cfbsM0Qj9UDozjF9yQPWPtRZo7IOjuNZsF4dBZfgbvJ5QUuMCEVqkEaEoCs95ttSVkETdOKzleUwy/iA9H5UNRSXlPN3S4ecHa+QQCQTAxIBEeiLNR2kmrTdiSSGMspJzKNKknEiCc/adM1KtQwBoN5Y6KBixOQsZCAl3yvucWcycJOAnqqo3G1UrsqytSopg1t6qcxS7INTM9GByVjTqruyYaqwyZTqpw1zsAtQG7VT3HAxHFT1kOoMHEH9hyGe4du61QbXtA9SmQVB+Opiojct48LIdm2pskYgq53I+En4SAd16wH6VSN+icpaIZCdA4wnRgpOAshR0MMpBBBGYIOIM2U3RrBjxy9obY1JawvCmiAtcmFJdjALDpAXTAg2oXS3Wcm9Uf7zHTUKAFByFqsr1a9VTgd9JCMx77DA9UYXp5W+y2tShHxqCyHtwK/i5AfA+l25A49RTfqflSY/EVtsJJ0esYHdTQ9+LjiLbYxpn92vQpj8KwD+K8ePIxVlMggwQRiCDoRmONmB2mifN1eLASrxudcd14MLbGr1VI6QJVmAyVypF9dIaTGEi1FFoRduBVCXdxWIjusIoqwZBuR1Dgfhm73ez2F+gi0qizirILuWgYAMp1nDEGBKsCpzGBEHjkdMbVjUphVYhiC1Nmn7NiMyBBxAMMAceZn5+me4GT8p5NodY2iqBDsIhzlBwttZ2imPUrfaCODHpjubus36HtBwhz9mx+GpgBwDheBNv944acfQ1Wpt5ykCVYqSpJBUxBIOEiYw5zH9GrfZ1eAmVfjcbHfdLAZ2YMrAEEGQQcQQdQRiDryNephgineKahJHAkEjh7P2l6NTKVMSNxGTDgQRbbQs4Xkp01b8wXDug2YszEkkkkknMknEk6k8wdFLyUBvbqvU7FBKrvYsfVxMAWMipVqMOxnYj5Hl2xxQq1FVqbdNLsy8K03eiDisRnyojCk0PVcFgzDrKiyBdBwLnFiDdgYnZ9mnfcf6eci1SlT+7SX/K9byo47FpgfJBba1rr7tSmhB71Ct3zal5jbAC12SyOBmUaJBAxKtjEkE6f9yj/Uefd2jZ16qVJlBuRlIZRwMqNALUk2VHBDMhZnIOYDMejIwJUA8fa2Vxp7fOPe+dmjadqDU6Y1AIh37FUwPiI5g6OzUiRweobi/y3z3cjRUCXEPx1OipHZJbu53rioneabR8xbOpXpjuVajH5ge3qnm6DNepVD1UZusr7kY9INkrTODSKyt5uoUEMpDrVEypBIYgoJg5HmDpbTVMfdpC6P5i/Ica1UueymkfVx4c4wKdamT2XgG/lJscS9V+5Qqj5sfb7G7unDwy5ggiijH71T7Q/NuQ4UaMntqMT43QvPQ3no03SosX6bMgmCcxPWU4HgQDZfObMxhay9U7gwzR40OB9UsP4CyWmgHYEUchwWqaY7KYCf488zdRl/LUcfTC1MVKVQFWVhIYHQ/7gcRjYk0HAqUic7jTgeKEFSdYnX+ATIqUaZPaFCsO0MCDyIW2XanLhhiEqNiyNuxkocmXLEEc8/q6lZTw6Qb6MDyEecFJy2+6anR+YaP4BrrRVCXou5urDGXpknAQeks5ywwgT5T2e7v89Tj+q1QVhVjztWOgFBm4kjpEkAlogAQpJMjnBv0WsQwZRJpuBEldVZcGiSCAQDiLO21VY6KqjIJ0vM4EDfdDHhZpq1DkOqoGCqo0VRgBnqcT/wCpX//Z;clipPath=inset(18% 21% 18.67% 18%);" vertex="1" parent="1">
                    <mxGeometry x="400" y="295.61" width="40" height="41.53" as="geometry"/>
                </mxCell>
                <mxCell id="61" value="" style="group" vertex="1" connectable="0" parent="1">
                    <mxGeometry x="399" y="426.75" width="40" height="20" as="geometry"/>
                </mxCell>
                <mxCell id="62" value="" style="shape=delay;whiteSpace=wrap;html=1;sketch=0;fontColor=#FFFFFF;fillColor=#FFFFFF;gradientColor=#6E6E6E;gradientDirection=east;labelBackgroundColor=#FFFFFF;" vertex="1" parent="61">
                    <mxGeometry x="20" width="20" height="20" as="geometry"/>
                </mxCell>
                <mxCell id="66" value="" style="shape=delay;whiteSpace=wrap;html=1;sketch=0;fillColor=#66c1c5;gradientColor=none;gradientDirection=east;rotation=-180;labelBackgroundColor=#FFF7F7;labelBorderColor=none;strokeColor=#6c8ebf;" vertex="1" parent="61">
                    <mxGeometry width="20" height="20" as="geometry"/>
                </mxCell>
                <mxCell id="63" style="edgeStyle=none;html=1;exitX=0;exitY=1;exitDx=0;exitDy=0;entryX=0;entryY=0;entryDx=0;entryDy=0;fontColor=#FFFFFF;" edge="1" parent="61" source="66" target="62">
                    <mxGeometry relative="1" as="geometry"/>
                </mxCell>
                <mxCell id="64" style="edgeStyle=none;html=1;exitX=0;exitY=0.5;exitDx=0;exitDy=0;entryX=0;entryY=0.5;entryDx=0;entryDy=0;fontColor=#FFFFFF;" edge="1" parent="61" source="66" target="62">
                    <mxGeometry relative="1" as="geometry"/>
                </mxCell>
                <mxCell id="65" style="edgeStyle=none;html=1;exitX=0;exitY=0;exitDx=0;exitDy=0;entryX=0;entryY=1;entryDx=0;entryDy=0;fontColor=#FFFFFF;" edge="1" parent="61" source="66" target="62">
                    <mxGeometry relative="1" as="geometry"/>
                </mxCell>
            </root>
        </mxGraphModel>
    </diagram>
</mxfile>